<?xml version="1.0" encoding="utf-8"?>
<!-- Generator: Adobe Illustrator 27.2.0, SVG Export Plug-In . SVG Version: 6.00 Build 0)  -->
<svg version="1.1" id="Layer_1" xmlns="http://www.w3.org/2000/svg" xmlns:xlink="http://www.w3.org/1999/xlink" x="0px" y="0px"
	 viewBox="0 0 228 56" style="enable-background:new 0 0 228 56;" xml:space="preserve">
<style type="text/css">
	.st0{fill:#FFFFFF;}
</style>
<path class="st0" d="M44.9,53.1h29.7c0.9,0,1.9-0.2,2.7-0.7c0.8-0.5,1.5-1.1,2-1.9c0.5-0.8,0.7-1.7,0.7-2.6c0-0.9-0.2-1.8-0.7-2.6
	l-20-33.6c-0.5-0.8-1.2-1.5-2-1.9c-0.8-0.5-1.7-0.7-2.7-0.7c-0.9,0-1.9,0.2-2.7,0.7c-0.8,0.5-1.5,1.1-2,1.9l-5.1,8.6l-10-16.8
	c-0.5-0.8-1.2-1.5-2-1.9c-0.8-0.5-1.7-0.7-2.7-0.7c-0.9,0-1.9,0.2-2.7,0.7c-0.8,0.5-1.5,1.1-2,1.9L0.7,45.3C0.2,46.1,0,47,0,47.9
	s0.2,1.8,0.7,2.6c0.5,0.8,1.2,1.5,2,1.9c0.8,0.5,1.7,0.7,2.7,0.7h18.7c7.4,0,12.9-3.2,16.6-9.3l9.1-15.3l4.9-8.2l14.7,24.6H49.8
	L44.9,53.1z M23.7,44.9l-13,0l19.5-32.8L40,28.5l-6.5,11C31,43.5,28.1,44.9,23.7,44.9z"/>
<path class="st0" d="M92.3,52V8.5h9.9l12.8,21c1.9,3.1,3.6,6.4,5.3,10.1c-0.4-4-0.6-7.8-0.6-11.4V8.5h9.4V52h-10l-12.7-21
	c-1.9-3.1-3.7-6.4-5.3-10c0.4,4,0.6,7.7,0.6,11.3V52H92.3z"/>
<path class="st0" d="M166,20.7V52h-8.7v-4.3c-0.9,1.5-2.2,2.7-3.8,3.5c-1.7,0.9-3.5,1.3-5.7,1.3c-2.3,0-4.3-0.5-6.1-1.6
	c-1.7-1.1-3.1-2.5-4.1-4.4c-1-1.9-1.4-4-1.4-6.3V20.7h8.6v17.6c0,1.9,0.6,3.5,1.7,4.7c1.1,1.2,2.6,1.8,4.3,1.8c1.9,0,3.4-0.7,4.6-2
	c1.2-1.3,1.9-3,1.9-5V20.7H166z"/>
<path class="st0" d="M190.1,35.7L201.3,52h-9.2l-6.7-9.6l-6.8,9.6h-9.3l11.3-16.3l-10.5-15h9.4l5.7,8.3l5.7-8.3h9.5L190.1,35.7z"/>
<path class="st0" d="M209,11.5h8.6v9.3h8.4v7.2h-8.4v12.4c0,3,1.5,4.5,4.4,4.5h4V52h-5.2c-3.6,0-6.5-1-8.7-3c-2.1-2-3.2-4.8-3.2-8.4
	V27.9h-6v-7.2h6V11.5z"/>
</svg>
