<svg width="140" height="36" viewBox="0 0 140 36" fill="none" xmlns="http://www.w3.org/2000/svg">
<g clip-path="url(#clip0_7_2)">
<path d="M15.4286 0H0V36L15.4286 0Z" fill="#333333"/>
<path d="M26.2285 0H41.6571V36L26.2285 0Z" fill="#333333"/>
<path d="M20.8285 13.3428L30.6 36.2519H24.1714L21.3428 28.9512H14.1428L20.8285 13.3428Z" fill="#333333"/>
<path d="M66.8571 22.9091L68.6571 27.944C68.6571 28.1958 68.9143 28.1958 68.9143 28.1958H72.5143C72.7714 28.1958 72.7714 28.1958 72.7714 27.944L65.5714 8.30766C65.5714 8.05591 65.5714 8.05591 65.3143 8.05591H60.9429C60.9429 8.05591 60.6857 8.05591 60.6857 8.30766C60.6857 9.31465 60.4286 9.5664 60.4286 10.0699L54 27.944C54 28.1958 54 28.1958 54.2571 28.1958H57.3429C57.6 28.1958 57.6 28.1958 57.6 27.944L59.4 22.9091H66.8571ZM60.4286 19.6363C61.4571 16.8671 62.7429 13.3426 63 11.3286C63.5143 13.5944 65.0571 17.6223 65.8286 19.6363H60.4286Z" fill="#333333"/>
<path d="M82.0286 28.4475C83.8286 28.4475 85.8857 28.1958 87.9429 27.1888C88.2 27.1888 88.2 26.9371 88.2 26.9371C88.2 26.4336 87.9429 25.6783 87.9429 24.9231V6.54545C87.9429 6.54545 87.9429 6.2937 87.6857 6.2937H84.3429C84.0857 6.2937 84.0857 6.2937 84.0857 6.54545V12.8392C83.5714 12.8392 83.0572 12.8392 82.8 12.8392C77.4 12.8392 74.0572 16.3636 74.0572 20.8951C73.8 25.9301 77.4 28.4475 82.0286 28.4475ZM84.0857 25.1748C83.5714 25.4266 82.8 25.4266 82.2857 25.4266C79.7143 25.4266 77.6572 24.1678 77.6572 20.6434C77.6572 17.6224 79.7143 15.8601 82.5429 15.8601C83.0572 15.8601 83.5714 15.8601 84.0857 16.1119V25.1748Z" fill="#333333"/>
<path d="M98.9999 12.8391C94.3714 12.8391 91.2856 16.3636 91.2856 20.6433C91.2856 24.4195 93.5999 28.4475 98.7428 28.4475C103.114 28.4475 106.2 25.1748 106.2 20.6433C106.2 16.3636 103.629 12.8391 98.9999 12.8391ZM98.7428 15.8601C101.314 15.8601 102.6 18.1258 102.6 20.6433C102.6 23.6643 101.057 25.4265 98.9999 25.4265C96.6856 25.4265 95.1428 23.4125 95.1428 20.6433C95.1428 17.8741 96.6856 15.8601 98.7428 15.8601Z" fill="#333333"/>
<path d="M109.8 6.54541L109.543 27.6923C109.543 27.6923 109.543 27.944 109.8 27.944C111.343 28.4475 112.886 28.6993 114.429 28.6993C119.057 28.6993 123.686 25.93 123.686 20.1398C123.686 16.1118 120.857 12.8391 116.229 12.8391C115.2 12.8391 114.172 13.0909 113.4 13.3426V6.79716C113.4 6.54541 113.4 6.54541 113.143 6.54541H109.8ZM119.829 20.3916C119.829 23.6643 117.514 25.4265 114.943 25.4265C114.429 25.4265 113.914 25.4265 113.4 25.1748V16.3636C113.914 16.1118 114.429 16.1118 115.457 16.1118C118.029 16.1118 119.829 17.6223 119.829 20.3916Z" fill="#333333"/>
<path d="M136.286 21.6503C137.829 21.6503 139.114 21.6503 139.371 21.3986C139.629 21.3986 139.629 21.3986 139.629 21.1468C139.629 20.8951 139.886 20.1398 139.886 19.1329C139.886 16.1119 138.086 12.5874 133.457 12.5874C128.829 12.5874 126 16.3636 126 20.6433C126 24.4196 128.057 28.4475 133.714 28.4475C135.771 28.4475 137.314 28.1958 138.343 27.4405L138.6 27.1888V24.6713C138.6 24.4196 138.6 24.4196 138.343 24.6713C137.057 25.1748 135.771 25.4266 134.486 25.4266C131.4 25.4266 129.857 23.6643 129.857 21.6503H136.286ZM130.114 18.8811C130.371 17.3706 131.4 15.8601 133.457 15.8601C135.771 15.8601 136.543 17.8741 136.543 18.6294V18.8811C136.286 18.8811 136.029 18.8811 134.743 18.8811H130.114Z" fill="#333333"/>
</g>
<defs>
<clipPath id="clip0_7_2">
<rect width="139.886" height="36" fill="white"/>
</clipPath>
</defs>
</svg>
