<svg width="37" height="36" viewBox="0 0 37 36" fill="none" xmlns="http://www.w3.org/2000/svg">
<g clip-path="url(#clip0_7_13)">
<path d="M13.1385 16.0461C12.9846 15.5692 12.8462 15.1077 12.6923 14.6308C12.5385 14.1538 12.4 13.7077 12.2769 13.2615C12.1538 12.8308 12.0462 12.4308 11.9385 12.0615H11.9077C11.7692 12.7231 11.6 13.3846 11.3846 14.0461C11.1538 14.7846 10.9231 15.5538 10.6769 16.3231C10.4769 17.1077 10.2308 17.8308 10 18.4769H13.9077C13.8154 18.1538 13.6923 17.7692 13.5538 17.3692C13.4154 16.9538 13.2769 16.5077 13.1385 16.0461Z" fill="#333333"/>
<path d="M26.2769 15.6307C25.4308 15.5846 24.6308 16.0307 24.2308 16.7999C24.0462 17.1538 23.9385 17.523 23.8923 17.9076H27.1385C27.5385 17.9076 27.8308 17.9076 28.0154 17.8922C28.1385 17.8769 28.2616 17.8461 28.3693 17.7692V17.6153C28.3693 17.4153 28.3385 17.2307 28.2769 17.0461C28 16.1846 27.1846 15.5999 26.2769 15.6307Z" fill="#333333"/>
<path d="M30.3846 0H6.53846C2.92308 0 0 2.92308 0 6.53846V29.4615C0 33.0769 2.92308 36 6.53846 36H30.3846C34 36 36.9231 33.0769 36.9231 29.4615V6.53846C36.9231 2.92308 34 0 30.3846 0ZM19.5538 25.3231H16.3385C16.2308 25.3385 16.1231 25.2615 16.0923 25.1538L14.8308 21.4615V21.5385H9.10769L7.93846 25.1692C7.90769 25.3077 7.78462 25.4 7.64615 25.3846H4.75385C4.58462 25.3846 4.53846 25.2923 4.58462 25.1077L9.53846 10.9077C9.58462 10.7538 9.63077 10.6154 9.69231 10.4308C9.75385 10.1077 9.78462 9.76923 9.78462 9.43077C9.76923 9.35385 9.83077 9.27692 9.90769 9.26154H9.95385H13.8923C14 9.26154 14.0769 9.30769 14.0923 9.38462L19.7077 25.0769C19.7538 25.2462 19.7077 25.3231 19.5538 25.3231ZM31.5692 19.2923C31.5385 19.5846 31.5231 19.8 31.5077 19.9385C31.4923 20.0462 31.4 20.1385 31.2923 20.1385C31.2 20.1385 31.0308 20.1538 30.7846 20.1692C30.5385 20.2 30.2462 20.2154 29.8923 20.2154C29.5385 20.2154 29.1692 20.1538 28.7692 20.1538H23.8923C23.9538 20.6308 24.1077 21.1077 24.3692 21.5231C24.6462 21.9385 25.0308 22.2615 25.4923 22.4462C26.1077 22.7077 26.7846 22.8462 27.4615 22.8308C28 22.8154 28.5385 22.7692 29.0615 22.6615C29.5385 22.6 30 22.4769 30.4308 22.3077C30.5077 22.2462 30.5538 22.2769 30.5538 22.4308V24.7846C30.5538 24.8462 30.5385 24.9077 30.5231 24.9692C30.4923 25.0154 30.4615 25.0462 30.4154 25.0769C29.9231 25.2923 29.4154 25.4462 28.8769 25.5385C28.1538 25.6769 27.4308 25.7385 26.6923 25.7231C25.5231 25.7231 24.5385 25.5385 23.7385 25.1846C22.9846 24.8615 22.3231 24.3538 21.8 23.7231C21.3077 23.1231 20.9538 22.4462 20.7385 21.7077C20.5231 20.9846 20.4154 20.2308 20.4154 19.4615C20.4154 18.6308 20.5385 17.8154 20.8 17.0154C21.0462 16.2462 21.4308 15.5385 21.9538 14.9077C22.4615 14.2923 23.0923 13.8 23.8154 13.4462C24.5385 13.0923 25.4 12.9692 26.3846 12.9692C27.2 12.9538 28.0154 13.1077 28.7692 13.4462C29.4 13.7231 29.9538 14.1385 30.3846 14.6769C30.7846 15.2 31.1077 15.7846 31.3077 16.4308C31.5077 17.0462 31.6 17.6769 31.6 18.3077C31.6 18.6769 31.5846 19 31.5692 19.2923Z" fill="#333333"/>
</g>
<defs>
<clipPath id="clip0_7_13">
<rect width="36.9231" height="36" fill="white"/>
</clipPath>
</defs>
</svg>
