<svg width="36" height="36" viewBox="0 0 36 36" fill="none" xmlns="http://www.w3.org/2000/svg">
<g clip-path="url(#clip0_7_22)">
<path d="M32.8011 7.82782L19.6205 0.419632C18.6207 -0.139877 17.3794 -0.139877 16.3796 0.419632L3.19896 7.82782C2.19001 8.39345 1.56323 9.45438 1.56323 10.5917V25.4081C1.56323 26.5455 2.19001 27.6064 3.19896 28.1721L16.3796 35.5802C16.881 35.8615 17.4405 36.0022 18 36.0022C18.5596 36.0022 19.1191 35.8615 19.6205 35.5802L32.8011 28.1721C33.8101 27.6064 34.4369 26.5455 34.4369 25.4081V10.5917C34.4369 9.45438 33.8101 8.39345 32.8011 7.82782ZM18 27.3924C12.8207 27.3924 8.60757 23.1792 8.60757 17.9999C8.60757 12.8206 12.8207 8.60746 18 8.60746C20.9596 8.60746 23.693 9.98026 25.4694 12.3192L22.0389 14.3035C21.0086 13.1753 19.544 12.521 18 12.521C14.9793 12.521 12.5211 14.9792 12.5211 17.9999C12.5211 21.0207 14.9793 23.4789 18 23.4789C19.544 23.4789 21.0086 22.8246 22.0389 21.6964L25.4694 23.6807C23.693 26.0196 20.9596 27.3924 18 27.3924ZM27.3925 18.7826H25.8271V20.348H24.2617V18.7826H22.6963V17.2172H24.2617V15.6518H25.8271V17.2172H27.3925V18.7826ZM32.8714 18.7826H31.306V20.348H29.7406V18.7826H28.1752V17.2172H29.7406V15.6518H31.306V17.2172H32.8714V18.7826Z" fill="#333333"/>
</g>
<defs>
<clipPath id="clip0_7_22">
<rect width="36" height="36" fill="white"/>
</clipPath>
</defs>
</svg>
