<svg width="36" height="36" viewBox="0 0 36 36" fill="none" xmlns="http://www.w3.org/2000/svg">
<g clip-path="url(#clip0_7_18)">
<path d="M18 0C17.4405 0 16.8842 0.140625 16.3828 0.421867L3.20093 7.82903C2.19823 8.39458 1.56543 9.44925 1.56543 10.5926V25.4069C1.56543 26.5533 2.19823 27.608 3.20093 28.1735L16.3828 35.5776C17.3855 36.1432 18.6144 36.1432 19.6171 35.5776L32.799 28.1735C33.8048 27.608 34.4345 26.5502 34.4345 25.4069V10.5926C34.4345 9.44925 33.8017 8.39458 32.799 7.82903L19.6171 0.421867C19.1158 0.140625 18.5594 0 18 0ZM18 1.5652C18.2935 1.5652 18.59 1.63856 18.8529 1.7853L32.0348 9.19246C32.5575 9.489 32.8693 10.0209 32.8693 10.5926V25.4069C32.8693 25.9786 32.5575 26.5105 32.0317 26.807L18.8529 34.2142C18.3271 34.5077 17.6729 34.5077 17.1471 34.2142L3.96825 26.807C3.44245 26.5105 3.13063 25.9816 3.13063 25.4069V10.5926C3.13063 10.0209 3.44245 9.48899 3.96825 9.19246L17.1471 1.7853C17.41 1.63856 17.7065 1.5652 18 1.5652ZM18 7.82598C12.3965 7.82598 7.82621 12.3962 7.82621 17.9997C7.82621 23.6033 12.3965 28.1735 18 28.1735C21.2007 28.1735 24.1721 26.6817 26.0919 24.1535L26.6269 23.4474L21.8885 20.7022L21.4605 21.1668C20.577 22.1328 19.3237 22.6953 18 22.6953C15.4046 22.6953 13.3044 20.5952 13.3044 17.9998C13.3044 15.4043 15.4046 13.3042 18 13.3042C19.3237 13.3042 20.5771 13.8667 21.4605 14.8327L21.8885 15.2973L26.6269 12.5521L26.0919 11.846C24.1721 9.31782 21.2007 7.82598 18 7.82598ZM18 9.39117C20.4059 9.39117 22.6069 10.4214 24.218 12.1394L22.0719 13.3806C20.9408 12.3901 19.5346 11.739 18 11.739C14.5547 11.739 11.7392 14.5545 11.7392 17.9997C11.7392 21.445 14.5547 24.2605 18 24.2605C19.5346 24.2605 20.9408 23.6094 22.0719 22.6189L24.218 23.8601C22.6069 25.5781 20.4059 26.6083 18 26.6083C13.2463 26.6083 9.39141 22.7534 9.39141 17.9997C9.39141 13.2461 13.2463 9.39117 18 9.39117ZM25.826 14.0868V15.652H24.2608V17.2171H25.826V18.7823H24.2608V20.3475H25.826V21.9127H27.3912V20.3475H28.9563V21.9127H30.5215V20.3475H32.0867V18.7823H30.5215V17.2171H32.0867V15.652H30.5215V14.0868H28.9563V15.652H27.3912V14.0868H25.826ZM27.3912 17.2171H28.9563V18.7823H27.3912V17.2171Z" fill="#333333"/>
</g>
<defs>
<clipPath id="clip0_7_18">
<rect width="36" height="36" fill="white"/>
</clipPath>
</defs>
</svg>
