<svg width="136" height="36" viewBox="0 0 136 36" fill="none" xmlns="http://www.w3.org/2000/svg">
<g clip-path="url(#clip0_7_26)">
<path d="M69.0027 6.90679C71.9674 9.61086 73.4334 13.3249 73.4334 18.114C73.4334 22.9357 72 26.7475 69.1004 29.5493C66.2334 32.3511 61.8352 33.752 55.9384 33.752H45.5457V2.93213H56.2968C61.8027 2.96471 66.038 4.20272 69.0027 6.90679ZM63.9203 25.2163C65.6144 23.6199 66.4615 21.3068 66.4615 18.2443C66.4615 15.2145 65.6144 12.8036 63.9203 11.1747C62.2262 9.5457 59.6199 8.66607 56.1013 8.66607H52.1266V27.5946H56.6226C59.7828 27.5946 62.2262 26.8127 63.9203 25.2163Z" fill="#333333"/>
<path d="M97.9331 33.7845H91.7756V30.8524C90.0164 33.0026 87.9639 34.0778 85.4553 34.0778C82.9467 34.0778 80.829 33.361 79.1023 31.8949C77.3756 30.4289 76.5286 28.4741 76.5286 26.0633C76.5286 23.6198 77.4082 21.828 79.2001 20.6225C80.9593 19.4171 83.4028 18.8307 86.4652 18.8307H91.3521V18.6352C91.3521 16.094 90.0489 14.8235 87.3774 14.8235C86.2372 14.8235 85.0317 15.0515 83.7286 15.5076C82.458 15.9637 81.3829 16.5176 80.4706 17.2017L77.5059 12.9013C80.6335 10.6207 84.2173 9.48047 88.2245 9.48047C91.124 9.48047 93.4046 10.1972 95.2616 11.6633C97.086 13.0968 97.9331 15.4099 97.9331 18.5375V33.7845ZM91.3195 24.6298V23.6524H87.182C84.5105 23.6524 83.2073 24.4017 83.2073 26.0307C83.2073 26.8778 83.5331 27.4968 84.1521 27.9529C84.7711 28.409 85.6833 28.6045 86.8888 28.6045C88.0616 28.6045 89.1041 28.2461 89.9838 27.4968C90.896 26.8126 91.3195 25.8352 91.3195 24.6298Z" fill="#333333"/>
<path d="M115.428 15.7357C113.441 15.7357 111.877 16.4199 110.9 17.8533C109.922 19.2543 109.336 21.1113 109.336 23.4244V33.8171H102.722V10.0669H109.336V13.0968C110.215 12.1194 111.421 11.3049 112.691 10.6208C113.962 9.9366 115.493 9.57823 116.796 9.54565V15.8009L115.428 15.7357Z" fill="#333333"/>
<path d="M127.417 14.8561V25.3466C127.417 26.2589 127.678 26.9756 128.166 27.4969C128.623 28.0181 129.209 28.2788 129.861 28.2788C131.099 28.2788 132.141 27.7249 133.021 26.5846L135.497 31.2435C133.444 33.1331 131.262 34.0779 128.981 34.0779C126.7 34.0779 124.778 33.3285 123.182 31.8299C121.586 30.3313 120.836 28.2788 120.836 25.6724V2.99731H127.45V9.61089H134.487L130.871 14.8887L127.417 14.8561Z" fill="#333333"/>
<path d="M6.15737 6.32037L6.22253 6.38553V26.2263L2.31302 22.3167C0.912118 20.9158 0.521168 18.7982 1.33565 17.0063L6.15737 6.32037ZM27.1384 5.31042H7.29764L7.23248 5.24526L17.951 0.423538C19.7429 -0.390942 21.8605 8.49262e-06 23.2614 1.40091L27.1384 5.31042ZM28.8976 29.0932H9.05691L8.66596 28.6697C8.07954 28.0833 7.75375 27.3339 7.75375 26.4869V7.91675L28.8976 29.0932ZM10.5881 30.6244H29.9727V35.2181C29.9727 35.6416 29.6144 36 29.1908 36H16.2569C16.0614 36 15.866 35.9023 15.7031 35.772L12.1194 32.1557L10.5881 30.6244ZM36.8795 15.3448V28.3113C36.8795 28.7348 36.5212 29.0932 36.0976 29.0932H31.0804L8.82886 6.84164H27.399C28.2135 6.84164 28.9954 7.16743 29.5818 7.75385L33.0678 11.2398L36.6841 14.8561C36.8144 14.9539 36.8795 15.1493 36.8795 15.3448Z" fill="#333333"/>
</g>
<defs>
<clipPath id="clip0_7_26">
<rect width="135.464" height="36" fill="white"/>
</clipPath>
</defs>
</svg>
