<svg width="131" height="36" viewBox="0 0 131 36" fill="none" xmlns="http://www.w3.org/2000/svg">
<g clip-path="url(#clip0_7_32)">
<path d="M31.5745 0.03125V27.7706L35.1379 27.7863V14.5775H43.7434V11.082H35.1379V3.52675H46.3402V0.03125H31.5745ZM52.7721 5.65854C54.0627 5.65854 55.0973 4.61354 55.0973 3.33343C55.0973 2.05331 54.0523 1.00832 52.7721 1.00832C51.4816 1.00832 50.447 2.05331 50.447 3.33343C50.447 4.61354 51.4973 5.65854 52.7721 5.65854ZM50.9643 9.15404V27.7706H54.5277V9.15404H50.9643Z" fill="#333333"/>
<path fill-rule="evenodd" clip-rule="evenodd" d="M67.7572 8.61084C63.013 8.61084 59.7056 12.6236 59.7056 17.3836C59.7056 22.1435 63.0077 26.1563 67.7572 26.1563C69.9308 26.1563 71.7125 25.315 73.0188 23.9513V26.4123C73.0188 29.5002 70.5996 32.0709 67.4281 32.0709C66.2838 32.0709 65.1552 31.6373 64.2617 31.0103L62.4643 34.1087C63.8908 35.0335 65.5941 35.5612 67.4124 35.5612C72.4702 35.5612 76.5665 31.4701 76.5665 26.4071V9.15424H73.0188V10.8158C71.7178 9.45206 69.9361 8.61084 67.7572 8.61084ZM63.2847 17.3836C63.2847 14.4315 65.5419 12.1063 68.1543 12.1063C70.7668 12.1063 73.024 14.4315 73.024 17.3836C73.024 20.3357 70.7668 22.6608 68.1543 22.6608C65.5419 22.6555 63.2847 20.3304 63.2847 17.3836Z" fill="#333333"/>
<path d="M89.4515 12.1063C87.3458 12.1063 85.632 13.9037 85.632 16.0094V27.7708H82.0686V9.15424H85.632V10.8523C86.677 9.50431 88.2132 8.61084 90.23 8.61084C92.7328 8.61084 94.6503 9.84916 95.7632 11.751C97.0016 9.91708 99.0132 8.61084 101.448 8.61084C105.513 8.61084 108.042 11.8869 108.058 15.9415V27.7708H104.494V15.9937C104.494 13.8881 102.78 12.0907 100.675 12.0907C98.569 12.0907 96.8553 13.8881 96.8553 15.9937V27.7708H93.2918V15.9937C93.2709 13.8881 91.5571 12.1063 89.4515 12.1063Z" fill="#333333"/>
<path fill-rule="evenodd" clip-rule="evenodd" d="M127.061 11.2599C125.472 9.61403 123.293 8.61084 120.78 8.61084C115.477 8.61084 111.699 13.1095 111.699 18.4703C111.699 23.8312 115.466 28.3299 120.78 28.3299C123.293 28.3299 125.472 27.311 127.061 25.6808V27.776H130.624V9.15424H127.061V11.2599ZM115.273 18.4703C115.273 14.9226 117.995 12.1063 121.177 12.1063C124.344 12.1063 127.082 14.9069 127.082 18.4703C127.082 22.0181 124.359 24.8344 121.177 24.8344C117.99 24.8187 115.273 22.0181 115.273 18.4703Z" fill="#333333"/>
<path d="M11.981 18.0053C11.981 14.7032 14.6614 12.0071 17.9792 12.0071C21.2814 12.0071 23.9775 14.6875 23.9775 18.0053C23.9775 21.3075 21.2971 24.0036 17.9792 24.0036C14.6718 24.0036 11.981 21.3127 11.981 18.0053Z" fill="#333333"/>
<path d="M0 29.9861C0 26.6839 2.68041 23.9878 5.99826 23.9878H11.9965V29.9861C11.9965 33.2882 9.31611 35.9843 5.99826 35.9843C2.68041 35.9843 0 33.3039 0 29.9861Z" fill="#333333"/>
<path d="M11.981 0.0312999V12.0121H17.9792C21.2814 12.0121 23.9775 9.33173 23.9775 6.01388C23.9775 2.71171 21.2971 0.015625 17.9792 0.015625H11.981V0.0312999Z" fill="#333333"/>
<path d="M0 6.02428C0 9.32646 2.68041 12.0225 5.99826 12.0225H11.9965V0.03125H5.99826C2.68041 0.03125 0 2.70643 0 6.02428Z" fill="#333333"/>
<path d="M0 18.0052C0 21.3074 2.68041 24.0035 5.99826 24.0035H11.9965V12.0122H5.99826C2.68041 12.0122 0 14.7031 0 18.0052Z" fill="#333333"/>
</g>
<defs>
<clipPath id="clip0_7_32">
<rect width="130.624" height="36" fill="white"/>
</clipPath>
</defs>
</svg>
