<svg width="94" height="36" viewBox="0 0 94 36" fill="none" xmlns="http://www.w3.org/2000/svg">
<g clip-path="url(#clip0_7_42)">
<path d="M7.07999 11.1942C6.89981 11.1942 6.85476 11.1041 6.94485 10.9689L7.89835 9.74517C7.98844 9.61003 8.21743 9.51993 8.39762 9.51993H24.5995C24.7797 9.51993 24.8247 9.65507 24.7346 9.79397L23.9613 10.9727C23.8712 11.1078 23.6422 11.2467 23.5071 11.2467L7.07999 11.1942ZM0.225354 15.3685C0.045166 15.3685 0.000119096 15.2784 0.0902129 15.1433L1.04371 13.9195C1.1338 13.7844 1.36279 13.6943 1.54298 13.6943H22.2383C22.4185 13.6943 22.5123 13.8294 22.4635 13.9683L22.0994 15.0569C22.0543 15.2371 21.8742 15.331 21.6902 15.331L0.225354 15.3685ZM11.2093 19.5429C11.0291 19.5429 10.9841 19.4077 11.0742 19.2688L11.7086 18.1352C11.7987 18 11.9826 17.8611 12.1628 17.8611H21.2397C21.4199 17.8611 21.5138 17.9963 21.5138 18.1802L21.4237 19.2688C21.4237 19.449 21.2435 19.5879 21.1046 19.5879L11.2093 19.5429ZM58.3134 10.3758C55.4529 11.1003 53.5046 11.6446 50.6892 12.3729C50.0097 12.5531 49.9647 12.5981 49.3715 11.9187C48.6921 11.1454 48.1928 10.6499 47.2393 10.1956C44.3788 8.78792 41.6122 9.1971 39.0258 10.8751C35.9401 12.8722 34.3522 15.8227 34.3972 19.4978C34.4422 23.1279 36.9386 26.1235 40.5236 26.6227C43.6093 27.0319 46.1957 25.9433 48.2379 23.6271C48.647 23.1279 49.0112 22.5835 49.4616 21.9491H40.7038C39.7503 21.9491 39.525 21.3598 39.8404 20.5865C40.4297 19.1787 41.5184 16.8213 42.1565 15.6388C42.2917 15.3648 42.6108 14.9143 43.2902 14.9143H59.8074C59.7173 16.1381 59.7173 17.3656 59.5334 18.5894C59.0341 21.8553 57.8103 24.8509 55.8133 27.4824C52.5474 31.7919 48.2792 34.4722 42.881 35.1967C38.4327 35.786 34.3033 34.9226 30.6733 32.2011C27.3211 29.6634 25.4141 26.3037 24.9148 22.1293C24.3255 17.1817 25.7782 12.737 28.7738 8.83297C31.9947 4.61357 36.2629 1.93328 41.4808 0.98354C45.7453 0.210235 49.8295 0.709505 53.5084 3.20585C55.9146 4.79376 57.6377 6.97103 58.7713 9.60627C59.0416 10.0117 58.8577 10.2407 58.3134 10.3758Z" fill="#333333"/>
<path d="M73.3364 35.4708C69.2071 35.3807 65.4419 34.2019 62.2624 31.4766C59.5858 29.1604 57.9041 26.2136 57.3598 22.7187C56.5414 17.5909 57.9491 13.0524 61.0349 9.01319C64.3458 4.6549 68.34 2.38754 73.7418 1.43405C78.3704 0.615695 82.7287 1.06992 86.6741 3.75021C90.259 6.20151 92.4814 9.51246 93.0745 13.8708C93.8478 19.9971 92.0759 24.9898 87.8565 29.2543C84.8609 32.2949 81.1858 34.2019 76.9664 35.0616C75.7427 35.2906 74.5151 35.3356 73.3364 35.4708ZM84.1364 17.1367C84.0914 16.5473 84.0914 16.0931 84.0013 15.6388C83.1829 11.1454 79.0536 8.60402 74.7441 9.60256C70.5247 10.556 67.7994 13.2326 66.8009 17.497C65.9825 21.037 67.7093 24.622 70.9752 26.0747C73.4716 27.1633 75.9679 27.0282 78.3742 25.8007C81.9591 23.9462 83.9112 21.0407 84.1364 17.1367Z" fill="#333333"/>
</g>
<defs>
<clipPath id="clip0_7_42">
<rect width="93.8478" height="36" fill="white"/>
</clipPath>
</defs>
</svg>
