<svg width="37" height="36" viewBox="0 0 37 36" fill="none" xmlns="http://www.w3.org/2000/svg">
<g clip-path="url(#clip0_7_54)">
<path d="M30.3846 0H6.53846C2.92308 0 0 2.92308 0 6.53846V29.4615C0 33.0769 2.92308 36 6.53846 36H30.3846C34 36 36.9231 33.0769 36.9231 29.4615V6.53846C36.9231 2.92308 34 0 30.3846 0ZM22.5692 25.3692H19.3538C19.2462 25.3846 19.1385 25.3077 19.1077 25.2L17.8462 21.5385H12.1231L10.9538 25.1538C10.9231 25.2923 10.8 25.3846 10.6615 25.3692H7.76923C7.6 25.3692 7.55385 25.2769 7.6 25.0923L12.5538 10.8308C12.6 10.6769 12.6462 10.5077 12.7077 10.3231C12.7692 10 12.8 9.66154 12.8 9.32308C12.7846 9.24615 12.8462 9.16923 12.9231 9.15385H16.9077C17.0308 9.15385 17.0923 9.2 17.1077 9.27692L22.7231 25.1231C22.7692 25.2923 22.7231 25.3692 22.5692 25.3692ZM27.8769 25.2C27.8769 25.3692 27.8154 25.4462 27.6769 25.4462H24.6615C24.5077 25.4462 24.4308 25.3538 24.4308 25.2V13.3538C24.4308 13.2 24.4923 13.1385 24.6308 13.1385H27.6769C27.8154 13.1385 27.8769 13.2154 27.8769 13.3538V25.2ZM27.5538 11.3077C27.2 11.6769 26.6769 11.8769 26.1538 11.8462C25.6462 11.8615 25.1538 11.6615 24.7846 11.3077C24.4308 10.9231 24.2462 10.4154 24.2615 9.89231C24.2462 9.36923 24.4462 8.87692 24.8154 8.52308C25.1846 8.16923 25.6769 7.98462 26.1846 7.98462C26.7846 7.98462 27.2462 8.16923 27.5846 8.52308C27.9231 8.89231 28.1077 9.38462 28.0923 9.89231C28.1077 10.4154 27.9231 10.9231 27.5538 11.3077Z" fill="#333333"/>
<path d="M16.1538 15.9846C16 15.5077 15.8615 15.0462 15.7077 14.5692C15.5538 14.0923 15.4154 13.6462 15.2923 13.2C15.1692 12.7692 15.0615 12.3692 14.9538 12H14.9231C14.7846 12.6615 14.6154 13.3231 14.4 13.9846C14.1692 14.7231 13.9385 15.4923 13.6923 16.2615C13.4769 17.0462 13.2462 17.7692 13.0154 18.4154H16.9231C16.8308 18.0923 16.7077 17.7077 16.5692 17.3077C16.4308 16.8923 16.2923 16.4462 16.1538 15.9846Z" fill="#333333"/>
</g>
<defs>
<clipPath id="clip0_7_54">
<rect width="36.9231" height="36" fill="white"/>
</clipPath>
</defs>
</svg>
