<svg width="87" height="36" viewBox="0 0 87 36" fill="none" xmlns="http://www.w3.org/2000/svg">
<path d="M18.0001 0L2.41211 9V27L18.0001 36L33.5881 27V9L18.0001 0ZM16.3891 2.169C17.3431 2.871 18.6436 2.871 19.5976 2.169L30.8971 8.694C30.8746 8.8965 30.8746 9.099 30.8971 9.297L19.5931 15.822C18.6391 15.12 17.3386 15.12 16.3891 15.822L5.08511 9.297C5.10761 9.0945 5.10761 8.8965 5.08511 8.694L16.3891 2.169ZM31.9861 11.1015C32.1481 11.223 32.3236 11.322 32.5081 11.403V24.453C31.4236 24.9255 30.7711 26.055 30.9061 27.2295L19.6021 33.7545C19.4401 33.6375 19.2646 33.534 19.0801 33.453L19.0666 20.475C20.1511 20.0025 20.8036 18.8775 20.6731 17.6985L31.9861 11.1015ZM4.01411 11.1735L15.3181 17.6985C15.1831 18.8775 15.8356 20.0025 16.9201 20.475V33.525C16.7356 33.606 16.5601 33.7095 16.3981 33.8265L5.09411 27.3015C5.22911 26.1225 4.57661 24.9975 3.49211 24.525V11.475C3.67661 11.394 3.85211 11.2905 4.01411 11.1735Z" fill="#333333"/>
<path d="M42.4664 9.11719V27.3152H40.1174V9.11719H42.4664Z" fill="#333333"/>
<path d="M46.5703 9.33318C47.7043 9.14418 49.1893 8.98218 51.0793 8.98218C53.4013 8.98218 55.1023 9.52218 56.1823 10.4942C57.1813 11.3582 57.7753 12.6812 57.7753 14.3012C57.7753 15.9482 57.2893 17.2442 56.3713 18.1892C55.1293 19.5122 53.1043 20.1872 50.8093 20.1872C50.1073 20.1872 49.4593 20.1602 48.9193 20.0252V27.3152H46.5703V9.33318ZM48.9193 18.1082C49.4323 18.2432 50.0803 18.2972 50.8633 18.2972C53.6983 18.2972 55.4263 16.9202 55.4263 14.4092C55.4263 12.0062 53.7253 10.8452 51.1333 10.8452C50.1073 10.8452 49.3243 10.9262 48.9193 11.0342V18.1082Z" fill="#333333"/>
<path d="M60.9343 9.11719H70.7353V11.0882H63.2833V17.1362H70.1683V19.0802H63.2833V27.3152H60.9343V9.11719Z" fill="#333333"/>
<path d="M73.7595 24.4531C74.8125 25.1011 76.3515 25.6411 77.9715 25.6411C80.3745 25.6411 81.7785 24.3721 81.7785 22.5361C81.7785 20.8351 80.8065 19.8631 78.3495 18.9181C75.3795 17.8651 73.5435 16.3261 73.5435 13.7611C73.5435 10.9261 75.8925 8.82007 79.4295 8.82007C81.2925 8.82007 82.6425 9.25207 83.4525 9.71107L82.8045 11.6281C82.2105 11.3041 80.9955 10.7641 79.3485 10.7641C76.8645 10.7641 75.9195 12.2491 75.9195 13.4911C75.9195 15.1921 77.0265 16.0291 79.5375 17.0011C82.6155 18.1891 84.1815 19.6741 84.1815 22.3471C84.1815 25.1551 82.1025 27.5851 77.8095 27.5851C76.0545 27.5851 74.1375 27.0721 73.1655 26.4241L73.7595 24.4531Z" fill="#333333"/>
</svg>
