<svg width="65" height="36" viewBox="0 0 65 36" fill="none" xmlns="http://www.w3.org/2000/svg">
<path fill-rule="evenodd" clip-rule="evenodd" d="M41.5295 25.8823C41.5295 26.1176 40.9413 26.4705 40.8236 26.4705C40.0001 27.0588 38.8236 27.4117 38.0001 26.5882C37.2942 25.8823 37.5295 24.4705 38.2354 23.9999C38.5884 23.7646 39.1766 23.647 39.6472 23.647C40.1178 23.647 40.9413 23.5294 41.4119 23.5294L41.5295 25.8823ZM36.0001 18.8235L36.3531 20.1176C36.9413 19.9999 37.1766 19.7646 38.0001 19.647C38.5884 19.5294 39.2942 19.4117 40.0001 19.5294C40.706 19.647 41.0589 19.8823 41.2942 20.3529C41.4119 20.5882 41.5295 20.9411 41.5295 21.1764V22.2352C41.5295 22.2352 39.5295 22.3529 39.1766 22.4705C37.1766 22.7058 35.1766 23.7646 35.5295 26.2352C35.7648 27.7646 36.5884 28.4705 38.1178 28.7058C38.9413 28.8235 39.5295 28.7058 40.2354 28.3529C40.5884 28.2352 40.8236 28.1176 41.0589 27.8823C41.4119 27.647 41.6472 27.4117 41.7648 27.2941L42.0001 28.3529H43.5295C43.5295 27.9999 43.5295 24.1176 43.5295 23.647C43.5295 22.8235 43.5295 22.1176 43.5295 21.2941C43.5295 20.4705 43.5295 19.8823 43.0589 19.4117C42.0001 17.647 39.6472 17.7646 37.6472 18.2352C37.2942 18.3529 36.2354 18.5882 36.0001 18.8235Z" fill="#333333"/>
<path fill-rule="evenodd" clip-rule="evenodd" d="M60.7058 25.9999C60.5882 26.1176 60.4705 26.2352 60.2352 26.3529C59.7646 26.7058 59.1764 26.9411 58.5882 27.0588C56.8235 27.2941 56.3529 25.4117 56.9411 24.4705C57.647 23.5294 59.647 23.5294 60.8235 23.5294L60.7058 25.9999ZM55.2941 18.8235C55.2941 19.0588 55.5293 19.8823 55.647 20.1176C55.9999 19.9999 56.5882 19.7646 57.2941 19.647C58.3529 19.4117 59.9999 19.2941 60.5882 20.3529C60.8235 20.8235 60.9411 22.1176 60.8235 22.2352C60.7058 22.3529 59.8823 22.3529 59.647 22.3529C58.4705 22.4705 57.5293 22.4705 56.5882 23.0588C55.5293 23.647 54.7058 24.5882 54.8235 26.2352C55.0588 27.7646 55.8823 28.4705 57.4117 28.7058C58.5882 28.8235 59.4117 28.5882 60.3529 27.9999C60.7058 27.7646 60.9411 27.5294 61.0588 27.4117L61.2941 28.4705H62.9411V21.4117C62.9411 20.5882 62.8235 19.9999 62.4705 19.4117C61.4117 17.647 58.9411 17.7646 57.0588 18.2352C56.5882 18.3529 55.5293 18.5882 55.2941 18.8235Z" fill="#333333"/>
<path fill-rule="evenodd" clip-rule="evenodd" d="M48 28.4706H50.5882C50.7059 28.4706 50.8235 28 50.9412 27.8824C51.0588 27.6471 51.0588 27.5294 51.1765 27.2941C51.2941 26.9412 51.5294 26.4706 51.647 26.1176C52.2353 24.4706 52.8235 22.5882 53.1765 20.9412C53.2941 20.4706 53.7647 18.4706 53.7647 18.1176H51.8823C51.4117 18.1176 51.647 18.1176 51.5294 18.9412C51.4117 19.8824 51.1765 20.7059 51.0588 21.5294C50.9412 22.1176 49.7647 26 49.647 26.2353L49.0588 24.1176C48.8235 23.4118 48.7059 22.7059 48.4706 22.1176L47.5294 19.0588C47.4118 18.7059 47.2941 18.3529 47.1765 18H44.9412C44.9412 18.2353 46.4706 22.8235 46.5882 23.1765C46.8235 24 47.1765 24.8235 47.4117 25.7647C47.5294 26.7059 47.7647 27.6471 48 28.4706Z" fill="#333333"/>
<path fill-rule="evenodd" clip-rule="evenodd" d="M31.7648 17.8822V26.8234C31.7648 28.4704 31.1766 30.3528 29.5295 30.941C29.6472 31.1763 30.3531 31.8822 30.5884 32.1175C31.1766 31.9998 32.0001 31.5293 32.2354 31.1763C32.706 30.7057 33.059 30.3528 33.4119 29.6469C34.1178 28.2351 34.0001 26.7057 34.0001 24.941C34.0001 21.4116 34.0001 17.8822 34.0001 14.3528C33.7648 14.3528 32.2354 14.3528 31.7648 14.3528V17.8822Z" fill="#333333"/>
<path fill-rule="evenodd" clip-rule="evenodd" d="M13.5295 19.4117L12.8236 18.3528C12.5883 17.9999 12.353 17.6469 12.1177 17.294C11.7648 16.5881 11.2942 15.7646 11.0589 14.9411C10.7059 13.4116 11.6471 12.3528 12.4707 11.4116C12.5883 11.294 12.7059 11.0587 12.9412 10.9411C13.8824 9.99989 15.0589 8.82341 16.0001 7.88224C16.9412 6.94106 17.5295 5.88224 17.6471 4.35283C17.7648 3.5293 17.6471 1.88224 17.0589 1.5293C17.1765 2.70577 17.2942 3.5293 16.8236 4.82341C16.2354 6.23518 15.2942 7.05871 14.2354 7.88224C13.4118 8.58812 11.8824 9.76459 11.1765 10.4705C10.7059 10.9411 9.88242 11.7646 9.52948 12.5881C9.05889 13.7646 9.52948 14.5881 10.1177 15.4117C10.353 15.7646 10.5883 16.1175 10.8236 16.4705C11.1765 16.9411 11.4118 17.1764 11.6471 17.5293C11.8824 17.8822 12.2354 18.2352 12.5883 18.4705C12.8236 18.7058 13.4118 19.294 13.5295 19.4117Z" fill="#333333"/>
<path fill-rule="evenodd" clip-rule="evenodd" d="M23.8824 29.7646C24.2353 30.3528 23.8824 30.5881 23.4118 30.8234C21.2942 31.7646 14.353 31.9999 12.1177 31.9999C9.8824 31.9999 7.6471 31.9999 5.41181 31.5293C5.05887 31.4117 3.52946 31.1764 3.41181 30.8234C3.41181 30.5881 3.6471 30.3529 3.76475 30.2352C4.23534 29.8823 5.17652 29.7646 5.76475 29.647C6.00005 29.647 6.35299 29.5293 6.47063 29.5293C5.6471 29.4117 2.35299 29.9999 1.6471 30.9411C1.17652 31.647 2.00005 31.8823 2.47063 32.1176C4.35299 32.7058 8.35299 32.8234 10.4706 32.9411C13.6471 32.9411 21.1765 32.9411 23.8824 31.0587C24 30.9411 24.353 30.7058 24.353 30.4705C24.4706 30.1176 24.1177 29.8823 23.8824 29.7646Z" fill="#333333"/>
<path fill-rule="evenodd" clip-rule="evenodd" d="M14.8236 20.7057C15.1766 20.588 16.1178 19.7645 16.3531 19.5292C16.706 19.1763 17.2942 18.4704 17.2942 17.7645C17.2942 17.0586 16.8236 16.1175 16.5884 15.6469C15.6472 14.2351 14.9413 13.4116 16.1178 11.8822C16.5884 11.4116 16.9413 10.941 17.5295 10.4704C18.1178 9.88217 19.1766 9.17628 20.0001 8.7057L21.0589 8.23511C20.5884 8.35275 19.4119 8.82334 18.9413 8.94099C18.3531 9.17628 17.5295 9.52922 17.0589 9.88217C15.1766 10.941 13.2942 12.7057 14.0001 15.0586C14.4707 16.7057 16.0001 17.6469 15.8825 18.8233C15.7648 19.6469 15.0589 20.3528 14.8236 20.7057Z" fill="#333333"/>
<path fill-rule="evenodd" clip-rule="evenodd" d="M18.8236 28.5882C18.2354 28.3529 17.7648 28.1176 17.2942 27.7647C16.9413 27.5294 17.0589 27.647 16.706 27.647C15.1766 28 12.5883 28 10.8236 28C10.353 28 9.17657 28 8.94128 27.5294C8.82363 27.2941 8.94128 27.0588 9.05893 26.9412C8.0001 27.1765 6.82363 28.1176 8.35304 28.8235C10.1178 29.647 13.6472 29.647 15.5295 29.2941C16.2354 29.4118 18.5883 28.8235 18.8236 28.5882Z" fill="#333333"/>
<path fill-rule="evenodd" clip-rule="evenodd" d="M19.4118 25.0587C18.9412 24.9411 18.5883 24.7058 18.2353 24.4705C18 24.2352 18.1177 24.3528 17.5295 24.3528C15.6471 24.7058 10.1177 25.1764 8.47064 24.5881C8.23534 24.4705 8.00005 24.3528 8.00005 24.1175C8.00005 23.8822 8.23534 23.6469 8.35299 23.5293C7.05887 23.6469 5.8824 24.9411 7.52946 25.5293C9.41181 26.2352 13.6471 26.2352 15.6471 25.9999C16.4706 25.8822 18.8236 25.4116 19.4118 25.0587Z" fill="#333333"/>
<path fill-rule="evenodd" clip-rule="evenodd" d="M20.7058 20.8235C20.4705 20.8235 20.1176 20.9412 19.8823 20.9412C19.647 20.9412 19.2941 21.0588 19.0588 21.0588C17.2941 21.2941 15.4117 21.5294 13.7646 21.647C12.4705 21.7647 7.4117 21.8823 6.58817 21.1765C6.58817 20.8235 6.94111 20.7059 7.05876 20.5882C7.88229 20.1176 8.82346 20 9.64699 19.647C8.47052 19.5294 5.52935 20.3529 4.47052 21.0588C3.29405 21.7647 5.29405 22.1176 5.99994 22.1176C10.2352 22.7059 14.2352 22.3529 18.3529 21.7647C19.0588 21.647 19.1764 21.7647 19.647 21.4118C19.9999 21.2941 20.3529 21.0588 20.7058 20.8235Z" fill="#333333"/>
<path fill-rule="evenodd" clip-rule="evenodd" d="M6 33.6469C7.17647 34.1175 9.76471 34.4705 11.0588 34.5881C12.9412 34.7058 14.9412 34.7058 16.8235 34.5881C19.2941 34.4705 22.1176 34.1175 24.2353 33.0587C24.7059 32.8234 25.6471 32.2352 25.7647 31.5293C25.6471 31.6469 25.5294 31.7646 25.2941 31.8822C21.5294 34.4705 12.9412 34.2352 8.47059 33.8822L6 33.6469Z" fill="#333333"/>
<path fill-rule="evenodd" clip-rule="evenodd" d="M21.5294 19.8823C22.4706 19.647 23.5294 19.7646 24.1176 20.3528C24.7059 20.9411 24.7059 21.9999 24.3529 22.8234C23.7647 23.8823 22.4706 24.9411 21.4118 25.5293C21.1765 25.647 21.0588 25.7646 20.9412 25.8823C21.647 25.7646 23.2941 25.0587 23.8823 24.7058C24.7059 24.2352 25.5294 23.5293 25.8823 22.5881C26.3529 21.294 25.647 20.2352 24.8235 19.7646C24.3529 19.5293 23.7647 19.294 23.1765 19.4117C22.5882 19.4117 21.7647 19.5293 21.5294 19.8823Z" fill="#333333"/>
</svg>
