<svg width="36" height="36" viewBox="0 0 36 36" fill="none" xmlns="http://www.w3.org/2000/svg">
<g clip-path="url(#clip0_7_79)">
<path d="M33.7167 0H2.28685C1.02456 0 0 1.02456 0 2.28685V33.7134C0 34.9757 1.02456 36.0002 2.28685 36.0002H33.7134C34.9757 36.0002 36.0002 34.9757 36.0002 33.7167V2.28685C36.0002 1.02456 34.9757 0 33.7167 0ZM19.7144 27.5861C19.7144 31.0114 17.7055 32.5716 14.7724 32.5716C12.1206 32.5716 10.2088 30.7937 9.42864 29.143L12.124 27.5125C12.6429 28.4332 13.4331 29.143 14.5715 29.143C15.6597 29.143 16.2858 28.7178 16.2858 27.0638V16.2858H19.7144L19.7144 27.5861ZM27.1508 32.5716C24.114 32.5716 22.3897 31.0415 21.4287 29.143L24.0002 27.4288C24.6999 28.5738 25.4633 29.6687 27.0772 29.6687C28.4332 29.6687 29.143 28.9924 29.143 28.0549C29.143 26.9366 28.4064 26.5381 26.9165 25.8852L26.0995 25.5336C23.739 24.5292 22.1687 23.2702 22.1687 20.605C22.1687 18.1541 24.0403 16.2858 26.96 16.2858C29.0392 16.2858 30.5326 17.009 31.6107 18.9041L29.066 20.5414C28.5035 19.5336 27.9009 19.1385 26.96 19.1385C26.0024 19.1385 25.3964 19.7479 25.3964 20.5414C25.3964 21.5225 26.0024 21.9176 27.4053 22.5269L28.2223 22.8785C31.0047 24.0671 32.5716 25.2825 32.5716 28.0147C32.5716 30.9578 30.258 32.5716 27.1508 32.5716Z" fill="#333333"/>
</g>
<defs>
<clipPath id="clip0_7_79">
<rect width="36" height="36" fill="white"/>
</clipPath>
</defs>
</svg>
