<svg width="166" height="36" viewBox="0 0 166 36" fill="none" xmlns="http://www.w3.org/2000/svg">
<g clip-path="url(#clip0_7_83)">
<path d="M156.774 9.95386C154.783 9.95386 153.124 10.4516 151.631 11.4469C150.47 12.2764 149.475 13.2718 148.811 14.4331V10.6175H143.668V35.5022H148.977V21.5668C148.977 20.2396 149.309 19.0783 149.806 17.917C150.304 16.9216 150.968 16.0921 151.963 15.4285C152.959 14.9308 153.954 14.599 155.281 14.599C156.442 14.599 157.438 14.7649 158.101 15.2626C158.931 15.7603 159.429 16.4239 159.926 17.2534C160.258 18.0829 160.59 19.2442 160.59 20.4055V35.3363H165.899V19.576C165.899 17.5852 165.567 15.9262 164.737 14.4331C164.074 12.94 162.912 11.7787 161.585 10.9492C160.258 10.2857 158.599 9.95386 156.774 9.95386Z" fill="#333333"/>
<path d="M132.221 0V5.47465H137.696V0H132.221ZM132.221 10.4516V35.3364H137.53V10.4516H132.221Z" fill="#333333"/>
<path d="M120.774 0V35.5023H126.083V0H120.774Z" fill="#333333"/>
<path d="M105.677 4.31348V8.62684C105.677 9.29043 105.511 9.78813 105.18 10.1199C104.848 10.4517 104.35 10.6176 103.687 10.6176H101.032V14.931H105.511V28.3688C105.511 29.696 105.843 31.0232 106.341 32.0185C106.839 33.0139 107.668 33.8434 108.829 34.507C109.825 35.0047 111.152 35.3365 112.479 35.3365H116.461V30.6914H113.475C112.645 30.6914 112.147 30.3596 111.484 29.8619C110.986 29.3642 110.82 28.5347 110.82 27.7052V15.0969H116.627V10.4517H110.82V4.31348H105.677Z" fill="#333333"/>
<path d="M87.0968 9.95386C84.6083 9.95386 82.4517 10.4516 80.4609 11.6128C78.4701 12.7741 76.977 14.2672 75.8157 16.258C74.6544 18.2488 74.1567 20.5714 74.1567 23.0598C74.1567 25.5483 74.6544 27.8709 75.8157 29.8617C76.8111 31.8525 78.4701 33.3456 80.295 34.5069C82.2858 35.6681 84.4425 36.1658 86.9309 36.1658C89.4194 36.1658 91.5761 35.6681 93.5669 34.5069C95.5577 33.3456 97.0507 31.8525 98.0461 29.8617C99.2074 27.8709 99.7051 25.5483 99.7051 23.0598C99.7051 20.5714 99.2074 18.2488 98.0461 16.258C96.8848 14.2672 95.3918 12.7741 93.5669 11.6128C91.742 10.4516 89.5853 9.95386 87.0968 9.95386ZM87.0968 14.7649C88.424 14.7649 89.7512 15.0967 90.7466 15.7603C91.9079 16.4239 92.7374 17.4193 93.2351 18.5806C93.8987 19.7419 94.0646 21.235 94.0646 22.8939C94.0646 24.5529 93.7328 25.8801 93.2351 27.2073C92.5715 28.3686 91.742 29.364 90.7466 30.0276C89.5853 30.6912 88.424 31.023 86.9309 31.023C85.4378 31.023 84.2765 30.6912 83.1153 30.0276C81.954 29.364 81.1245 28.3686 80.4609 27.2073C79.7973 26.046 79.4655 24.5529 79.4655 22.8939C79.4655 21.235 79.7973 19.9078 80.4609 18.5806C81.1245 17.4193 81.954 16.4239 83.1153 15.7603C84.2765 15.0967 85.6037 14.7649 87.0968 14.7649Z" fill="#333333"/>
<path d="M68.3502 1.32715L53.5852 17.0875V1.32715H48.1106V35.3364H53.5852V18.7465L68.3502 35.3364H75.318L59.7235 17.7511L75.1521 1.32715H68.3502Z" fill="#333333"/>
<path d="M34.1751 35.5023H0V1.32715H34.1751L16.7558 18.0829L34.1751 35.5023Z" fill="#333333"/>
</g>
<defs>
<clipPath id="clip0_7_83">
<rect width="165.899" height="36" fill="white"/>
</clipPath>
</defs>
</svg>
