<svg width="134" height="36" viewBox="0 0 134 36" fill="none" xmlns="http://www.w3.org/2000/svg">
<g clip-path="url(#clip0_7_91)">
<path d="M15.5568 14.3948C13.6979 6.1998 9.82238 4.01447 8.82615 2.47259C8.41308 1.79271 8.06076 1.08855 7.74488 0.360107C7.69629 1.08855 7.59909 1.5499 6.97949 2.09623C5.74028 3.20104 0.455421 7.511 0.018053 16.8229C-0.395017 25.5157 6.40848 30.8698 7.30752 31.4161C8.00001 31.756 8.8383 31.4282 9.25137 31.1126C12.5316 28.8665 17.0146 22.869 15.5568 14.3948Z" fill="#333333"/>
<path d="M8.03118 26.76C7.86525 28.919 7.74674 30.1754 7.32007 31.4074C7.32007 31.4074 7.59266 33.4688 7.79414 35.64H8.48155C8.64748 34.1031 8.89636 32.5784 9.24007 31.078C8.35118 30.6267 8.06674 28.6507 8.03118 26.76Z" fill="#333333"/>
<path d="M9.23955 31.08C8.31241 30.6546 8.04403 28.6373 7.99524 26.7658C8.22702 23.6791 8.28801 20.5802 8.20262 17.4813C8.15382 15.8529 8.22702 2.44869 7.80005 0.47998C8.09283 1.14837 8.42221 1.79245 8.80038 2.41223C9.78851 3.9556 13.6922 6.14305 15.5587 14.346C17.0104 22.8284 12.5333 28.8196 9.23955 31.08Z" fill="#333333"/>
<path d="M131.52 28.2001C130.389 28.2001 129.48 27.2907 129.48 26.1601C129.48 25.0295 130.389 24.1201 131.52 24.1201C132.638 24.1201 133.547 25.0172 133.559 26.1355C133.584 27.2416 132.712 28.1755 131.606 28.2001C131.569 28.2001 131.544 28.2001 131.52 28.2001ZM131.52 24.3045C130.5 24.2922 129.664 25.1278 129.652 26.1478C129.64 27.1678 130.475 28.0035 131.495 28.0158C132.515 28.0281 133.351 27.1924 133.363 26.1724C133.363 26.1724 133.363 26.1724 133.363 26.1601C133.387 25.1524 132.576 24.3167 131.569 24.3045C131.557 24.3045 131.532 24.3045 131.52 24.3045ZM132.011 27.4505L131.483 26.3199H131.065V27.4505H130.758V24.8698H131.52C132.085 24.8698 132.318 25.1155 132.318 25.5948C132.318 25.9758 132.146 26.2093 131.802 26.283L132.343 27.4505H132.011ZM131.077 26.0495H131.52C131.876 26.0495 132.024 25.9266 132.024 25.5948C132.024 25.263 131.888 25.1524 131.483 25.1524H131.077V26.0495Z" fill="#333333"/>
<path d="M101.548 26.3444C102.093 26.7839 103.185 26.967 104.143 26.967C105.38 26.967 106.605 26.735 107.794 25.6485C109.006 24.5376 109.843 22.8407 109.843 20.1305C109.843 17.5302 108.861 15.406 106.835 14.173C105.695 13.4527 104.216 13.172 102.53 13.172C102.045 13.172 101.548 13.1964 101.257 13.3307C101.135 13.4283 101.063 13.5504 101.026 13.6969C100.978 14.1608 100.978 17.6889 100.978 19.7765C100.978 21.9129 100.978 24.9038 101.026 25.2701C101.05 25.5753 101.208 26.1124 101.548 26.3444ZM96.3812 12C96.8178 12 98.4914 12.0732 99.2676 12.0732C100.723 12.0732 101.73 12 104.446 12C106.726 12 108.643 12.6226 110.013 13.8068C111.675 15.2473 112.56 17.2616 112.56 19.7154C112.56 23.1947 110.983 25.209 109.394 26.3444C107.818 27.5286 105.768 28.2 102.845 28.2C101.293 28.2 98.6249 28.1512 96.3933 28.1268H96.3569C96.2478 27.9192 96.551 27.1135 96.7329 27.1013C97.3393 27.028 97.497 27.0036 97.7759 26.8937C98.2489 26.6984 98.358 26.4543 98.4066 25.6119C98.4793 24.0127 98.4551 22.1082 98.4551 19.9352C98.4551 18.3848 98.4793 15.3694 98.4308 14.4172C98.3459 13.6237 98.0185 13.4161 97.3393 13.2574C96.8542 13.1598 96.3691 13.0743 95.8839 13.0255C95.8354 12.8546 96.2357 12.1587 96.3812 12Z" fill="#333333"/>
<path d="M119.007 13.3794C118.91 13.4036 118.777 13.6579 118.777 13.7911C118.752 14.7113 118.728 17.1209 118.728 18.7798C118.74 18.8403 118.789 18.9008 118.861 18.9129C119.201 18.9372 120.025 18.9614 120.727 18.9614C121.708 18.9614 122.278 18.8282 122.593 18.6829C123.417 18.2712 123.804 17.3752 123.804 16.4065C123.804 14.1786 122.254 13.3431 119.952 13.3431C119.625 13.3189 119.31 13.331 119.007 13.3794ZM124.883 23.5989C124.883 21.3467 123.223 20.0754 120.194 20.0754C120.061 20.0754 119.104 20.0511 118.874 20.0996C118.801 20.1238 118.716 20.1722 118.716 20.2328C118.716 21.8432 118.692 24.4223 118.765 25.4515C118.813 25.8874 119.128 26.5049 119.516 26.6745C119.928 26.9045 120.86 26.9529 121.515 26.9529C123.295 26.9529 124.883 25.9601 124.883 23.5989ZM114.331 12.1201C114.561 12.1201 115.251 12.1928 117.008 12.1928C118.668 12.1928 120.012 12.1443 121.612 12.1443C123.598 12.1443 126.348 12.8587 126.348 15.8253C126.348 17.2783 125.319 18.4649 123.962 19.0219C123.889 19.0461 123.889 19.0946 123.962 19.1188C125.876 19.6031 127.56 20.7776 127.56 23.0298C127.56 25.2335 126.191 26.6139 124.192 27.4857C122.981 28.0185 121.478 28.2001 119.952 28.2001C118.789 28.2001 115.663 28.079 113.931 28.1032C113.749 28.0306 114.1 27.2072 114.258 27.0861C114.658 27.074 115.045 27.0135 115.433 26.9045C116.051 26.7471 116.124 26.5534 116.208 25.6331C116.257 24.834 116.257 22.0006 116.257 19.9785C116.257 17.2178 116.281 15.3531 116.257 14.4328C116.233 13.7184 115.978 13.4884 115.481 13.3552C115.094 13.2825 114.452 13.1978 113.931 13.1251C113.81 12.9919 114.197 12.217 114.331 12.1201Z" fill="#333333"/>
<path d="M21.2437 28.1999C21.1708 28.0285 21.1465 27.857 21.1708 27.6734C21.1708 27.5509 21.1951 27.4285 21.2437 27.3183C21.5836 27.2693 21.9114 27.1958 22.2392 27.1101C22.7006 26.9999 22.8706 26.7428 22.8949 26.155C22.9677 24.7591 22.9799 22.1387 22.9434 20.3019V20.253C22.9434 20.057 22.9434 19.7877 22.7006 19.5917C22.2757 19.3224 21.8143 19.1142 21.3286 18.9795C21.1101 18.9183 20.9887 18.7958 21.0008 18.6611C21.013 18.5264 21.1465 18.3672 21.4258 18.306C22.1785 18.2326 24.1454 17.755 24.9225 17.3999C25.0075 17.5101 25.0439 17.6326 25.0318 17.7672C25.0318 17.853 25.0196 17.9387 25.0075 18.0244C24.9832 18.2815 24.9589 18.5754 24.9589 18.8693C24.9711 18.9795 25.0682 19.053 25.1775 19.0407C25.2139 19.0407 25.2624 19.0162 25.2867 18.9917C26.7558 17.8285 28.0792 17.4121 28.7592 17.4121C29.8762 17.4121 30.7382 17.9509 31.406 19.053C31.4424 19.1019 31.491 19.1387 31.5517 19.1387C31.6124 19.1387 31.6609 19.1142 31.6974 19.0652C33.0451 18.0244 34.3927 17.4121 35.2912 17.4121C37.4159 17.4121 38.6786 19.0162 38.6786 21.6979C38.6786 22.4693 38.6665 23.4489 38.6665 24.355C38.6665 25.1509 38.6544 25.9101 38.6544 26.4244C38.6544 26.5468 38.8243 26.9019 39.0793 26.9632C39.395 27.1101 39.8321 27.1958 40.4027 27.2938H40.427C40.4756 27.453 40.3784 28.0407 40.2935 28.1632C40.1478 28.1632 39.9535 28.1509 39.7107 28.1387C39.2736 28.1142 38.6665 28.0897 37.9623 28.0897C36.5539 28.0897 35.8133 28.1142 35.1091 28.1632C35.0605 27.9917 35.0362 27.4162 35.0969 27.2938C35.3883 27.2448 35.6797 27.1836 35.959 27.0979C36.4082 26.9509 36.5418 26.7428 36.5661 26.1428C36.5782 25.7142 36.6632 21.955 36.5175 21.0611C36.3839 20.1305 35.6919 19.053 34.1742 19.053C33.6157 19.053 32.7051 19.2856 31.8431 19.9468C31.7945 20.0081 31.7581 20.0815 31.7581 20.1672V20.1795C31.8552 20.657 31.8552 21.2203 31.8552 22.0775C31.8552 22.5672 31.8552 23.0815 31.8552 23.5836C31.8552 24.6244 31.8431 25.604 31.8552 26.3387C31.8552 26.8407 32.1587 26.9632 32.4016 27.0611C32.5351 27.0856 32.6444 27.1101 32.7415 27.1346C32.9479 27.1836 33.1543 27.2326 33.47 27.2815C33.5186 27.5019 33.5064 27.7224 33.4579 27.9305C33.4457 28.0162 33.4093 28.0897 33.3607 28.1509C32.5715 28.1264 31.7702 28.1019 30.6046 28.1019C30.2525 28.1019 29.6819 28.1142 29.172 28.1264C28.7592 28.1387 28.3706 28.1509 28.1521 28.1509C28.0914 28.004 28.0671 27.857 28.0792 27.6979C28.0671 27.5509 28.0914 27.404 28.1642 27.2815L28.4799 27.2203C28.747 27.1713 28.9898 27.1346 29.2084 27.0734C29.5969 26.9509 29.7426 26.7428 29.7669 26.2407C29.8397 25.0897 29.9004 21.7713 29.7426 20.9387C29.4634 19.604 28.7227 18.9305 27.5086 18.9305C26.8044 18.9305 25.9059 19.2734 25.1775 19.8244C25.0318 19.9591 24.9589 20.155 24.9589 20.3632C24.9589 20.755 24.9589 21.2326 24.9589 21.7346C24.9589 23.3999 24.9468 25.4693 24.9832 26.3754C25.0075 26.657 25.1046 26.9754 25.6145 27.0979C25.7238 27.1346 25.9181 27.1591 26.1488 27.1958C26.2823 27.2203 26.4159 27.2448 26.5616 27.2693C26.6101 27.5632 26.5859 27.857 26.4887 28.1387C26.258 28.1387 25.9909 28.1264 25.6631 28.1142C25.1775 28.0897 24.5704 28.0652 23.8905 28.0652C23.077 28.0652 22.5185 28.0897 22.0571 28.1142C21.7657 28.1877 21.4986 28.1999 21.2437 28.1999Z" fill="#333333"/>
<path d="M47.3351 18.4931C46.8993 18.481 46.4634 18.6024 46.1002 18.8454C45.2042 19.392 44.7441 20.4852 44.7441 22.1007C44.7441 25.1131 46.2455 27.2145 48.4006 27.2145C48.9818 27.2388 49.5387 27.0323 49.9746 26.6558C50.6405 26.1213 50.9916 25.0038 50.9916 23.4612C50.9916 20.4852 49.5145 18.4931 47.3351 18.4931ZM47.7468 28.3199C43.8602 28.3199 42.48 25.4533 42.48 22.7809C42.48 20.9103 43.2428 19.4527 44.7441 18.4324C45.7975 17.7765 47.0082 17.4242 48.2432 17.3999C51.2096 17.3999 53.28 19.5377 53.28 22.5987C53.28 24.6759 52.4567 26.3278 50.8827 27.3482C50.132 27.8219 48.8244 28.3199 47.7468 28.3199Z" fill="#333333"/>
<path d="M86.9892 18.4931C86.5485 18.481 86.1077 18.6024 85.7405 18.8454C84.8346 19.392 84.3694 20.4852 84.3694 22.1007C84.3694 25.1131 85.8874 27.2145 88.0665 27.2145C88.6541 27.2388 89.2173 27.0323 89.6702 26.6558C90.3435 26.1213 90.6863 25.0038 90.6863 23.4612C90.6863 20.4852 89.1928 18.4931 86.9892 18.4931ZM87.4054 28.3199C83.4757 28.3199 82.0801 25.4533 82.0801 22.7809C82.0801 20.9103 82.8513 19.4527 84.3694 18.4324C85.4344 17.7765 86.6586 17.4242 87.9073 17.3999C90.9067 17.3999 93.0001 19.5377 93.0001 22.5987C93.0001 24.688 92.1676 26.3278 90.5761 27.3482C89.8171 27.8219 88.495 28.3199 87.4054 28.3199Z" fill="#333333"/>
<path d="M73.8679 18.4C72.6552 18.4 71.8712 19.3513 71.8712 20.827C71.8712 22.3028 72.5449 24.059 74.4436 24.059C74.7743 24.059 75.3623 23.9127 75.6563 23.5956C76.0972 23.1931 76.3912 22.3637 76.3912 21.4734C76.3912 19.5586 75.448 18.4 73.8679 18.4ZM73.7209 28.5838C73.3779 28.5838 73.0472 28.6692 72.7409 28.8277C71.7855 29.4375 71.3323 30.0473 71.3323 30.7547C71.3323 31.4133 71.5895 31.9499 72.153 32.4134C72.8267 32.9866 73.7331 33.2549 74.9335 33.2549C77.2854 33.2549 78.3389 31.9987 78.3389 30.7547C78.3389 29.8888 77.8979 29.3034 77.0037 28.9741C76.3055 28.7179 75.1418 28.5838 73.7209 28.5838ZM73.8801 34.5599C72.4714 34.5599 71.4547 34.2672 70.585 33.5964C69.7398 32.95 69.3601 31.9865 69.3601 31.3157C69.3724 30.8889 69.5316 30.4742 69.8256 30.1571C70.0706 29.8766 70.6463 29.3521 71.957 28.4618C71.9937 28.4496 72.0305 28.4008 72.0305 28.3521C72.0305 28.3033 71.9937 28.2545 71.9447 28.2423C70.8668 27.8276 70.536 27.1446 70.4381 26.7788C70.4381 26.7666 70.438 26.7422 70.4258 26.7178C70.4013 26.5714 70.3646 26.4373 70.5605 26.3031C70.7075 26.1933 70.9525 26.047 71.2098 25.9006C71.5772 25.6933 71.9325 25.4738 72.2632 25.2176C72.3244 25.1445 72.3244 25.0347 72.2509 24.9737C72.2387 24.9615 72.2265 24.9493 72.2142 24.9493C70.6095 24.4127 69.8011 23.2297 69.8011 21.4124C69.7888 20.266 70.3401 19.1805 71.2833 18.522C71.9325 18.0097 73.5494 17.3999 74.6028 17.3999H74.6641C75.742 17.4243 76.3545 17.656 77.1997 17.9609C77.6774 18.1317 78.1919 18.217 78.6941 18.1927C79.5883 18.1927 79.9803 17.9121 80.311 17.5828C80.36 17.7292 80.3967 17.8877 80.3967 18.0463C80.4212 18.4244 80.311 18.7903 80.1028 19.1074C79.919 19.3635 79.4903 19.5464 79.0983 19.5464C79.0616 19.5464 79.0126 19.5464 78.9758 19.5342C78.7676 19.522 78.5593 19.4854 78.3633 19.4367L78.2654 19.4732C78.2286 19.522 78.2531 19.5708 78.2776 19.6318C78.2899 19.644 78.2899 19.6562 78.2899 19.6684C78.3634 19.9977 78.4124 20.327 78.4368 20.6563C78.4368 22.5589 77.6896 23.376 76.8689 23.9858C76.085 24.5712 75.154 24.9371 74.1741 25.0225C74.1496 25.0225 74.0516 25.0347 73.8556 25.0469C73.7331 25.0591 73.5739 25.0713 73.5494 25.0713H73.5249C73.3534 25.1201 72.8879 25.3396 72.8879 25.7421C72.8879 26.0836 73.0962 26.4982 74.0883 26.5714L74.7376 26.6202C76.0482 26.7178 77.6896 26.8275 78.4613 27.0837C79.5148 27.4495 80.2007 28.4496 80.1885 29.5595C80.1885 31.2547 78.9758 32.8646 76.9424 33.8403C75.987 34.2916 74.9335 34.5355 73.8679 34.5233" fill="#333333"/>
<path d="M67.8651 27.2939C67.2985 27.2206 66.8887 27.1351 66.3945 26.903C66.2981 26.8053 66.2378 26.6709 66.2137 26.5365C66.1655 25.7304 66.1655 23.4096 66.1655 21.8949C66.1655 20.6612 65.9605 19.5741 65.4422 18.7924C64.8275 17.9129 63.9475 17.3999 62.8145 17.3999C61.814 17.3999 60.476 18.0961 59.367 19.0489C59.3429 19.0733 59.1742 19.2443 59.1742 18.9878C59.1742 18.7313 59.2224 18.2183 59.2344 17.8885C59.2585 17.7053 59.1983 17.5343 59.0657 17.4121C58.3424 17.7786 56.3174 18.2672 55.558 18.3404C55.0155 18.4504 54.8709 18.9756 55.4615 19.171H55.4736C55.9437 19.3054 56.3897 19.5008 56.7995 19.7574C57.0285 19.9406 57.0044 20.1971 57.0044 20.4047C57.0285 22.127 57.0285 24.7898 56.9562 26.2312C56.9321 26.7931 56.7754 27.0007 56.3656 27.1106L56.4017 27.0984C56.0883 27.1839 55.7749 27.2328 55.4495 27.2816C55.3169 27.416 55.3169 28.1611 55.4495 28.3077C55.7026 28.3077 57.0165 28.2344 58.1013 28.2344C59.596 28.2344 60.3675 28.3077 60.7532 28.3077C60.9099 28.1245 60.9581 27.4282 60.8617 27.2816C60.5001 27.2694 60.1505 27.2084 59.801 27.1229C59.3911 27.0251 59.2826 26.8175 59.2585 26.3533C59.2103 25.1441 59.2103 22.5545 59.2103 20.8078C59.2103 20.3192 59.3429 20.0872 59.4876 19.9528C60.0059 19.4886 60.8497 19.1833 61.597 19.1833C62.3202 19.1833 62.8024 19.4153 63.164 19.7207C63.5859 20.0872 63.8511 20.6124 63.8993 21.1743C63.9957 22.1514 63.9716 24.118 63.9716 25.8159C63.9716 26.7442 63.8993 26.9763 63.5618 27.0862C63.4051 27.1595 62.9953 27.245 62.5011 27.2939C62.3444 27.4527 62.3926 28.1733 62.5011 28.3199C63.164 28.3199 63.9475 28.2466 65.0806 28.2466C66.503 28.2466 67.395 28.3199 67.7566 28.3199C67.9133 28.1367 67.9736 27.4649 67.8651 27.2939Z" fill="#333333"/>
</g>
<defs>
<clipPath id="clip0_7_91">
<rect width="133.512" height="36" fill="white"/>
</clipPath>
</defs>
</svg>
