<svg width="123" height="36" viewBox="0 0 123 36" fill="none" xmlns="http://www.w3.org/2000/svg">
<path d="M49.7792 7.77101C47.8675 18.1614 45.3599 25.7089 42.2316 30.4014C39.7985 34.0386 37.1296 35.851 34.2123 35.851C33.4427 35.851 32.4868 35.6151 31.3571 35.1558V32.6482C31.9158 32.7351 32.5613 32.7724 33.3061 32.7724C34.6592 32.7724 35.7516 32.4 36.5958 31.6427C37.5889 30.7241 38.0854 29.7062 38.0854 28.5641C38.0854 27.782 37.7006 26.1931 36.9185 23.7724L31.804 7.7586H36.4096L40.1089 19.7503C40.9406 22.4689 41.2882 24.3807 41.1392 25.4483C43.1627 20.0358 44.5778 14.1517 45.3599 7.7586H49.804M29.4578 28.4772H24.7654C24.604 20.5572 24.1447 13.0717 23.3999 6.09515H23.3627L16.2247 28.4772H12.662L5.53645 6.09515H5.49921C4.97783 12.7986 4.64266 20.2717 4.50611 28.4772H0.210938C0.484041 18.4965 1.17921 9.13653 2.28404 0.397217H8.10611L14.8716 21.0289H14.9089L21.6992 0.397217H27.273C28.4896 10.6386 29.2096 19.9986 29.433 28.4772" fill="#333333"/>
<path d="M112.394 28.5022H99.0869V0.422181H103.568V25.0636H112.394V28.5022ZM78.902 22.8911C77.7724 21.0539 77.2013 18.1367 77.2013 14.0649C77.2013 6.98908 79.3489 3.45115 83.6193 3.45115C85.8662 3.45115 87.5048 4.29528 88.56 5.98356C89.6896 7.8208 90.2606 10.738 90.2606 14.7229C90.2606 21.8608 88.1131 25.4236 83.8427 25.4236C81.6082 25.4236 79.9572 24.5794 78.902 22.8911ZM95.5862 29.1849L90.4469 26.6401C90.9062 26.2677 91.3406 25.858 91.7379 25.3863C93.9227 22.8042 95.0275 19.0056 95.0275 13.9656C95.0275 4.6677 91.3903 0.0373535 84.1034 0.0373535C80.5406 0.0373535 77.7475 1.21666 75.7738 3.57528C73.5889 6.15735 72.4841 9.95597 72.4841 14.9711C72.4841 19.9118 73.4524 23.5118 75.3889 25.8332C77.1517 27.9063 79.8331 28.9491 83.4082 28.9491C84.7365 28.9491 85.9655 28.7877 87.0703 28.4525L93.7738 32.3629L95.5986 29.1974M70.5475 20.7436C70.5475 23.127 69.6786 25.1008 67.9282 26.6029C66.1903 28.1298 63.8565 28.887 60.9144 28.887C58.171 28.887 55.5269 28.0056 52.9324 26.2677L54.1365 23.8594C56.3462 24.9642 58.3572 25.5229 60.1448 25.5229C61.8331 25.5229 63.1489 25.1505 64.1172 24.4056C65.0731 23.6608 65.6441 22.618 65.6441 21.2898C65.6441 19.6263 64.4772 18.1987 62.3544 17.007C60.3931 15.927 56.4703 13.6553 56.4703 13.6553C54.3475 12.1036 53.28 10.4277 53.28 7.67184C53.28 5.40011 54.0744 3.57528 55.6634 2.16011C57.2648 0.74494 59.3007 0.0373535 61.8455 0.0373535C64.4524 0.0373535 66.8234 0.732526 68.9462 2.12287L67.8662 4.53115C66.0413 3.76149 64.2289 3.36425 62.4786 3.36425C61.0386 3.36425 59.9338 3.71184 59.1641 4.40701C58.382 5.08977 57.9103 5.98356 57.9103 7.06356C57.9103 8.72701 59.102 10.167 61.2869 11.3836C63.2731 12.4636 67.2951 14.7601 67.2951 14.7601C69.48 16.3118 70.5848 17.9877 70.5848 20.7063" fill="#333333"/>
<path d="M114.902 28.5021H115.647V25.6469H116.615V25.0635H113.896V25.6469H114.902V28.5021ZM120.563 28.5021H121.258V25.0635H120.203L119.346 27.4097L118.415 25.0635H117.397V28.5021H118.055V25.8828H118.092L119.073 28.5021H119.582L120.563 25.8828V28.5021Z" fill="#333333"/>
</svg>
