<svg width="178" height="36" viewBox="0 0 178 36" fill="none" xmlns="http://www.w3.org/2000/svg">
<g clip-path="url(#clip0_7_107)">
<path d="M117.864 0.0148926H148.746V5.71501H136.495V35.7026H130.369V5.71501H117.864V0.0148926Z" fill="#333333"/>
<path d="M67.0734 0.0148926V5.71501H42.3189V14.8847H62.2264V20.5849H42.3189V30.0025H67.0734V35.7026H36.1935V5.71501H36.1909V0.0148926H67.0734Z" fill="#333333"/>
<path d="M82.4941 0.0297852H74.4778L103.19 35.7175H111.23L96.872 17.8859L111.207 0.0570126L103.19 0.0694011L92.8585 12.9014L82.4941 0.0297852Z" fill="#333333"/>
<path d="M90.7201 25.5216L86.7056 20.5303L74.4548 35.7446H82.4941L90.7201 25.5216Z" fill="#333333"/>
<path fill-rule="evenodd" clip-rule="evenodd" d="M36.4082 35.7026L7.6568 0H0V35.6877H6.12545V7.62822L28.713 35.7026H36.4082Z" fill="#333333"/>
<path d="M150.123 35.4846C149.675 35.4846 149.293 35.3292 148.973 35.0184C148.654 34.7076 148.496 34.3313 148.5 33.8855C148.496 33.452 148.654 33.0798 148.973 32.769C149.293 32.4582 149.675 32.3027 150.123 32.3027C150.555 32.3027 150.932 32.4582 151.252 32.769C151.576 33.0798 151.737 33.452 151.742 33.8855C151.737 34.18 151.663 34.4499 151.513 34.6912C151.36 34.9366 151.165 35.1288 150.92 35.2679C150.679 35.411 150.413 35.4846 150.123 35.4846Z" fill="#333333"/>
<path d="M160.578 20.4504H163.292V30.9081C163.288 31.8692 163.08 32.6913 162.674 33.3825C162.263 34.0736 161.694 34.6012 160.964 34.9734C160.238 35.3414 159.387 35.5296 158.42 35.5296C157.535 35.5296 156.743 35.3701 156.037 35.0593C155.332 34.7485 154.772 34.2822 154.361 33.6687C153.945 33.0553 153.742 32.2905 153.742 31.3744H156.461C156.465 31.7752 156.556 32.1228 156.73 32.4131C156.905 32.7035 157.145 32.9243 157.453 33.0798C157.764 33.2352 158.121 33.3129 158.523 33.3129C158.959 33.3129 159.333 33.2229 159.636 33.0389C159.938 32.8589 160.171 32.589 160.333 32.2291C160.491 31.8733 160.574 31.4316 160.578 30.9081V20.4504Z" fill="#333333"/>
<path d="M174.461 24.5402C174.395 23.9063 174.104 23.4114 173.598 23.0597C173.087 22.7039 172.427 22.528 171.618 22.528C171.049 22.528 170.56 22.6139 170.153 22.7816C169.746 22.9534 169.431 23.1824 169.215 23.4728C168.999 23.7632 168.891 24.0944 168.883 24.4666C168.883 24.7775 168.957 25.0474 169.103 25.2723C169.248 25.5013 169.443 25.6936 169.696 25.849C169.945 26.0085 170.223 26.1393 170.527 26.2457C170.833 26.352 171.141 26.442 171.448 26.5156L172.863 26.8632C173.432 26.9941 173.984 27.17 174.511 27.3949C175.038 27.6158 175.515 27.898 175.934 28.2374C176.354 28.5769 176.686 28.9859 176.931 29.4644C177.175 29.9429 177.3 30.5032 177.3 31.1494C177.3 32.0205 177.076 32.7853 176.623 33.4478C176.171 34.1063 175.519 34.6216 174.664 34.9938C173.813 35.3619 172.784 35.55 171.572 35.55C170.402 35.55 169.381 35.3701 168.522 35.0102C167.659 34.6544 166.986 34.1308 166.5 33.4437C166.015 32.7567 165.753 31.9182 165.716 30.9326H168.406C168.443 31.4479 168.609 31.8774 168.891 32.225C169.177 32.5685 169.551 32.8221 170.008 32.9939C170.469 33.1615 170.983 33.2474 171.552 33.2474C172.145 33.2474 172.668 33.1574 173.12 32.9816C173.569 32.8057 173.921 32.5604 174.175 32.2414C174.432 31.9264 174.561 31.5543 174.565 31.1289C174.561 30.7404 174.444 30.4173 174.22 30.1637C173.992 29.9102 173.677 29.6975 173.274 29.5257C172.867 29.354 172.394 29.1985 171.855 29.0636L170.136 28.63C168.895 28.3151 167.912 27.8366 167.193 27.1945C166.472 26.5524 166.114 25.7018 166.114 24.6343C166.114 23.7591 166.355 22.9902 166.841 22.3317C167.322 21.6733 167.982 21.1621 168.817 20.7981C169.655 20.43 170.601 20.25 171.655 20.25C172.726 20.25 173.664 20.43 174.474 20.7981C175.283 21.1621 175.918 21.6692 176.378 22.3154C176.839 22.9616 177.08 23.7018 177.093 24.5402H174.461Z" fill="#333333"/>
</g>
<defs>
<clipPath id="clip0_7_107">
<rect width="177.3" height="36" fill="white"/>
</clipPath>
</defs>
</svg>
