<svg width="59" height="36" viewBox="0 0 59 36" fill="none" xmlns="http://www.w3.org/2000/svg">
<path d="M29.1589 36C28.9653 36 28.7717 35.9449 28.5966 35.8531L26.8266 34.8061C26.5592 34.6591 26.6883 34.604 26.7805 34.5765C27.1308 34.4571 27.2045 34.4295 27.5825 34.2091C27.6194 34.1907 27.6747 34.1999 27.7116 34.2183L29.0759 35.0265C29.122 35.054 29.1958 35.054 29.2419 35.0265L34.5703 31.959C34.6164 31.9315 34.6533 31.8764 34.6533 31.8121V25.6864C34.6533 25.6221 34.6256 25.567 34.5703 25.5394L29.2419 22.4811C29.1958 22.4536 29.1312 22.4536 29.0759 22.4811L23.7475 25.5394C23.6922 25.567 23.6645 25.6312 23.6645 25.6864V31.8121C23.6645 31.8672 23.7014 31.9223 23.7475 31.9499L25.2041 32.7856C25.9969 33.1805 26.4855 32.7121 26.4855 32.2529V26.2007C26.4855 26.118 26.55 26.0445 26.6422 26.0445H27.3152C27.3981 26.0445 27.4719 26.1088 27.4719 26.2007V32.2529C27.4719 33.3091 26.9003 33.906 25.8955 33.906C25.5912 33.906 25.3423 33.906 24.6694 33.5754L23.2681 32.7764C22.927 32.5744 22.7058 32.207 22.7058 31.8121V25.6864C22.7058 25.2914 22.9178 24.9149 23.2681 24.722L28.5966 21.6546C28.9377 21.4617 29.3802 21.4617 29.712 21.6546L35.0405 24.722C35.3816 24.9241 35.6028 25.2914 35.6028 25.6864V31.8121C35.6028 32.207 35.3908 32.5835 35.0405 32.7764L29.712 35.8439C29.5553 35.9449 29.3617 36 29.1589 36ZM33.4641 29.9569C33.4641 28.8089 32.6897 28.5058 31.0487 28.2854C29.3894 28.065 29.2234 27.9548 29.2234 27.5691C29.2234 27.2476 29.3617 26.8252 30.5878 26.8252C31.6848 26.8252 32.0905 27.064 32.2564 27.7987C32.2748 27.8721 32.3302 27.9181 32.4039 27.9181H33.0953C33.1414 27.9181 33.1783 27.8997 33.2059 27.8721C33.2336 27.8354 33.252 27.7987 33.2428 27.7528C33.1322 26.4854 32.2933 25.8976 30.5878 25.8976C29.0667 25.8976 28.1633 26.5405 28.1633 27.6058C28.1633 28.7722 29.0667 29.0844 30.5233 29.2314C32.2656 29.4059 32.4039 29.6538 32.4039 29.9937C32.4039 30.5906 31.9245 30.8386 30.7998 30.8386C29.3894 30.8386 29.0759 30.4896 28.9745 29.7916C28.9653 29.7181 28.9008 29.663 28.8178 29.663H28.1264C28.0434 29.663 27.9697 29.7273 27.9697 29.8192C27.9697 30.71 28.4583 31.7754 30.7906 31.7754C32.4961 31.7754 33.4641 31.1141 33.4641 29.9569ZM38.4883 25.3557C38.4883 25.916 38.0273 26.3752 37.465 26.3752C36.9027 26.3752 36.4417 25.916 36.4417 25.3557C36.4417 24.7771 36.9211 24.3363 37.465 24.3363C38.0181 24.3271 38.4883 24.7771 38.4883 25.3557ZM38.3223 25.3557C38.3223 24.8782 37.9352 24.5016 37.4558 24.5016C36.9856 24.5016 36.5984 24.8782 36.5984 25.3557C36.5984 25.8333 36.9856 26.219 37.4558 26.219C37.9352 26.2098 38.3223 25.8241 38.3223 25.3557ZM37.9075 25.9251H37.6678C37.6586 25.87 37.6217 25.5761 37.6217 25.567C37.6033 25.5027 37.5848 25.4659 37.5019 25.4659H37.2991V25.9251H37.0778V24.7771H37.4742C37.6125 24.7771 37.8798 24.7771 37.8798 25.0802C37.8798 25.2914 37.7416 25.3374 37.6586 25.3649C37.8153 25.3741 37.8245 25.4751 37.8522 25.6221C37.8614 25.7139 37.8798 25.87 37.9075 25.9251ZM37.6494 25.1169C37.6494 24.9608 37.5388 24.9608 37.4834 24.9608H37.2991V25.2823H37.4742C37.6217 25.2823 37.6494 25.1812 37.6494 25.1169ZM12.6573 12.0297C12.6573 11.7818 12.5283 11.5613 12.3163 11.4419L6.66516 8.19999C6.57297 8.14489 6.46234 8.11733 6.35172 8.10815H6.29641C6.18578 8.10815 6.08438 8.14489 5.98297 8.19999L0.341094 11.4419C0.129063 11.5613 0 11.7909 0 12.0297L0.00921875 20.7545C0.00921875 20.8739 0.07375 20.9841 0.175156 21.0484C0.276563 21.1127 0.405625 21.1127 0.51625 21.0484L3.87188 19.129C4.08391 19.0004 4.21297 18.78 4.21297 18.5412V14.4635C4.21297 14.2247 4.34203 13.9951 4.55406 13.8757L5.98297 13.0583C6.09359 12.994 6.20422 12.9665 6.32406 12.9665C6.44391 12.9665 6.56375 12.994 6.66516 13.0583L8.09406 13.8757C8.30609 13.9951 8.43516 14.2247 8.43516 14.4635V18.5412C8.43516 18.78 8.56422 19.0096 8.77625 19.129L12.1319 21.0484C12.2333 21.1127 12.3716 21.1127 12.473 21.0484C12.5744 20.9933 12.6389 20.8739 12.6389 20.7545L12.6573 12.0297ZM43.5586 2.5059V18.7065C43.5586 18.9453 43.4295 19.1749 43.2175 19.2943L37.5664 22.5454C37.3544 22.6648 37.0963 22.6648 36.8842 22.5454L31.2331 19.2943C31.0211 19.1749 30.892 18.9453 30.892 18.7065V12.2042C30.892 11.9654 31.0211 11.7358 31.2331 11.6164L36.8842 8.3653C37.0963 8.24591 37.3544 8.24591 37.5664 8.3653L38.9769 9.1735C39.1336 9.26534 39.3364 9.14594 39.3364 8.97145V0.338475C39.3364 0.0813224 39.613 -0.0839899 39.8434 0.0445863L43.2083 1.91813C43.4203 2.02833 43.5586 2.25793 43.5586 2.5059ZM39.318 14.3441C39.318 14.2798 39.2811 14.2247 39.235 14.1972L37.2991 13.0767C37.2438 13.0491 37.1792 13.0491 37.1239 13.0767L35.188 14.1972C35.1327 14.2247 35.105 14.2798 35.105 14.3441V16.5758C35.105 16.6401 35.1419 16.6952 35.188 16.7228L37.1239 17.834C37.1792 17.8616 37.2438 17.8616 37.2898 17.834L39.2258 16.7228C39.2811 16.6952 39.3088 16.6401 39.3088 16.5758V14.3441H39.318ZM58.6589 14.2798C58.8709 14.1604 59 13.9308 59 13.692V12.1216C59 11.8828 58.8709 11.6532 58.6589 11.5338L53.0447 8.28265C52.8327 8.16325 52.5745 8.16325 52.3625 8.28265L46.7114 11.5338C46.4994 11.6532 46.3703 11.8828 46.3703 12.1216V18.6238C46.3703 18.8718 46.4994 19.0922 46.7114 19.2116L52.3256 22.3985C52.5284 22.5179 52.7866 22.5179 52.9986 22.3985L56.3911 20.5158C56.6216 20.3872 56.6216 20.0566 56.3911 19.928L50.7031 16.6768C50.5925 16.6125 50.528 16.5023 50.528 16.3829V14.3441C50.528 14.2247 50.5925 14.1145 50.7031 14.0502L52.4731 13.0308C52.5745 12.9665 52.7128 12.9665 52.8142 13.0308L54.5842 14.0502C54.6856 14.1145 54.7594 14.2247 54.7594 14.3441V15.9421C54.7594 16.1993 55.0452 16.3646 55.2756 16.236L58.6589 14.2798ZM51.5328 14.6012C51.4959 14.6288 51.4683 14.6655 51.4683 14.7115V15.9605C51.4683 16.0064 51.4959 16.0523 51.5328 16.0707L52.6206 16.6952C52.6575 16.7228 52.7128 16.7228 52.7497 16.6952L53.8375 16.0707C53.8744 16.0431 53.902 16.0064 53.902 15.9605V14.7115C53.902 14.6655 53.8744 14.6196 53.8375 14.6012L52.7497 13.9767C52.7128 13.9492 52.6575 13.9492 52.6206 13.9767L51.5328 14.6012ZM28.0987 18.5963V12.1307C28.0987 11.892 27.9512 11.6624 27.7392 11.543L22.1066 8.3102C21.913 8.19999 21.6456 8.18162 21.4244 8.3102L15.7917 11.543C15.5797 11.6624 15.4322 11.8828 15.4322 12.1307V18.5963C15.4322 18.8534 15.6073 19.0739 15.8009 19.1841L21.4428 22.4168C21.6641 22.5454 21.9222 22.5362 22.125 22.4168L27.7484 19.1841C27.9144 19.0922 28.0342 18.9361 28.0803 18.7524C28.0895 18.7065 28.0987 18.6514 28.0987 18.5963ZM21.2492 7.12546L21.1755 7.17138H21.2769L21.2492 7.12546ZM28.2739 19.083L28.237 19.0188V19.1014L28.2739 19.083Z" fill="#333333"/>
</svg>
