<svg width="147" height="36" viewBox="0 0 147 36" fill="none" xmlns="http://www.w3.org/2000/svg">
<path d="M28.8643 34.1358H47.9571C48.5357 34.1358 49.1786 34.0072 49.6929 33.6858C50.2071 33.3643 50.6571 32.9786 50.9786 32.4643C51.3 31.95 51.4286 31.3715 51.4286 30.7929C51.4286 30.2143 51.3 29.6358 50.9786 29.1215L38.1214 7.52147C37.8 7.00718 37.35 6.55719 36.8357 6.30004C36.3214 5.97861 35.7429 5.85004 35.1 5.85004C34.5214 5.85004 33.8786 5.97861 33.3643 6.30004C32.85 6.62147 32.4 7.00718 32.0786 7.52147L28.8 13.05L22.3714 2.25004C22.05 1.73576 21.6 1.28576 21.0857 1.02861C20.5714 0.707185 19.9929 0.578613 19.35 0.578613C18.7714 0.578613 18.1286 0.707185 17.6143 1.02861C17.1 1.35004 16.65 1.73576 16.3286 2.25004L0.45 29.1215C0.128571 29.6358 0 30.2143 0 30.7929C0 31.3715 0.128571 31.95 0.45 32.4643C0.771429 32.9786 1.22143 33.4286 1.73571 33.6858C2.25 34.0072 2.82857 34.1358 3.47143 34.1358H15.4929C20.25 34.1358 23.7857 32.0786 26.1643 28.1572L32.0143 18.3215L35.1643 13.05L44.6143 28.8643H32.0143L28.8643 34.1358ZM15.2357 28.8643H6.87857L19.4143 7.77861L25.7143 18.3215L21.5357 25.3929C19.9286 27.9643 18.0643 28.8643 15.2357 28.8643Z" fill="#333333"/>
<path d="M59.3357 33.4286V5.46436H65.7L73.9285 18.9644C75.15 20.9572 76.2428 23.0786 77.3357 25.4572C77.0786 22.8858 76.95 20.4429 76.95 18.1286V5.46436H82.9928V33.4286H76.5643L68.4 19.9286C67.1785 17.9358 66.0214 15.8144 64.9928 13.5001C65.25 16.0715 65.3785 18.4501 65.3785 20.7644V33.4286H59.3357Z" fill="#333333"/>
<path d="M106.714 13.3071V33.4286H101.121V30.6643C100.543 31.6286 99.7071 32.4 98.6786 32.9143C97.5857 33.4928 96.4286 33.75 95.0143 33.75C93.5357 33.75 92.25 33.4286 91.0928 32.7214C90 32.0143 89.1 31.1143 88.4571 29.8928C87.8143 28.6714 87.5571 27.3214 87.5571 25.8428V13.3071H93.0857V24.6214C93.0857 25.8428 93.4714 26.8714 94.1786 27.6428C94.8857 28.4143 95.85 28.8 96.9428 28.8C98.1643 28.8 99.1286 28.35 99.9 27.5143C100.671 26.6786 101.121 25.5857 101.121 24.3V13.3071H106.714Z" fill="#333333"/>
<path d="M122.207 22.95L129.407 33.4286H123.493L119.186 27.2571L114.814 33.4286H108.836L116.1 22.95L109.35 13.3071H115.393L119.057 18.6428L122.721 13.3071H128.829L122.207 22.95Z" fill="#333333"/>
<path d="M134.357 7.39282H139.886V13.3714H145.286V18H139.886V25.9714C139.886 27.9 140.85 28.8643 142.714 28.8643H145.286V33.4285H141.943C139.629 33.4285 137.764 32.7857 136.35 31.5C135 30.2143 134.293 28.4142 134.293 26.1V17.9357H130.436V13.3071H134.293V7.39282H134.357Z" fill="#333333"/>
</svg>
