<svg width="111" height="36" viewBox="0 0 111 36" fill="none" xmlns="http://www.w3.org/2000/svg">
<g clip-path="url(#clip0_7_125)">
<mask id="mask0_7_125" style="mask-type:luminance" maskUnits="userSpaceOnUse" x="0" y="0" width="30" height="36">
<path d="M29.3023 0H0V36H29.3023V0Z" fill="white"/>
</mask>
<g mask="url(#mask0_7_125)">
<path d="M28.3709 12.2756C28.1616 12.4326 24.4779 14.5151 24.4779 19.1302C24.4779 24.4674 29.1663 26.3616 29.3128 26.414C29.2919 26.5291 28.5698 28.9988 26.843 31.5209C25.3047 33.7395 23.693 35.9477 21.2442 35.9477C18.7953 35.9477 18.1674 34.5244 15.3419 34.5244C12.5895 34.5244 11.6058 35.9895 9.36628 35.9895C7.12674 35.9895 5.56744 33.9384 3.76744 31.4163C1.68488 28.4651 0 23.8709 0 19.507C0 12.5058 4.55233 8.7907 9.0314 8.7907C11.407 8.7907 13.3953 10.3605 14.8814 10.3605C16.3047 10.3605 18.5233 8.70698 21.2233 8.70698C22.2593 8.69651 25.943 8.7907 28.3709 12.2756ZM19.9465 5.73488C21.0663 4.40581 21.8616 2.56395 21.8616 0.722093C21.8616 0.47093 21.8407 0.209302 21.7884 0C19.9674 0.0732558 17.8012 1.21395 16.493 2.7314C15.4674 3.89302 14.5047 5.74535 14.5047 7.60814C14.5047 7.8907 14.5465 8.17326 14.5779 8.25698C14.693 8.27791 14.8814 8.29884 15.0698 8.29884C16.7023 8.3093 18.7535 7.21046 19.9465 5.73488Z" fill="#333333"/>
</g>
<path d="M43.3779 21.0663C43.3779 22.1023 43.1895 23.0023 42.8023 23.7453C42.4255 24.4884 41.9023 25.0639 41.2325 25.4721C40.5732 25.8697 39.8197 26.0686 38.9825 26.0686C38.1348 26.0686 37.3813 25.8697 36.722 25.4721C36.0627 25.0744 35.5395 24.4988 35.1627 23.7453C34.786 22.9918 34.5872 22.1023 34.5872 21.0663C34.5872 20.0302 34.7755 19.1302 35.1627 18.3872C35.5395 17.6337 36.0627 17.0686 36.722 16.6604C37.3813 16.2628 38.1348 16.0535 38.9825 16.0535C39.8197 16.0535 40.5732 16.2523 41.2325 16.6604C41.8918 17.0581 42.4151 17.6337 42.8023 18.3872C43.179 19.1302 43.3779 20.0197 43.3779 21.0663ZM41.9232 21.0663C41.9232 20.2709 41.7976 19.6011 41.536 19.0674C41.2848 18.5232 40.929 18.1046 40.4895 17.8325C40.0499 17.55 39.5476 17.4139 38.993 17.4139C38.4279 17.4139 37.9255 17.55 37.486 17.8325C37.0465 18.1151 36.7011 18.5232 36.4395 19.0674C36.1883 19.6116 36.0627 20.2814 36.0627 21.0663C36.0627 21.8616 36.1883 22.5314 36.4395 23.0756C36.7011 23.6197 37.0465 24.0279 37.486 24.3104C37.9255 24.593 38.4279 24.729 38.993 24.729C39.5476 24.729 40.0499 24.593 40.4895 24.3104C40.929 24.0279 41.2848 23.6197 41.536 23.0756C41.7872 22.5209 41.9232 21.8511 41.9232 21.0663Z" fill="#333333"/>
<path d="M45.2092 25.9325V16.1895H46.6325V19.8104H46.7162C46.7999 19.6534 46.915 19.486 47.072 19.2871C47.229 19.0883 47.4383 18.9104 47.7209 18.7639C47.9929 18.6069 48.3592 18.5336 48.8197 18.5336C49.4057 18.5336 49.9395 18.6802 50.3999 18.9836C50.8604 19.2767 51.2267 19.7162 51.4883 20.2708C51.7499 20.836 51.886 21.5057 51.886 22.3011C51.886 23.086 51.7499 23.7662 51.4883 24.3313C51.2267 24.8964 50.8604 25.3255 50.3999 25.629C49.9395 25.9325 49.4162 26.079 48.8302 26.079C48.3906 26.079 48.0243 26.0057 47.7418 25.8592C47.4592 25.7127 47.2395 25.5348 47.0825 25.336C46.9255 25.1371 46.7999 24.9592 46.7162 24.8022H46.6011V25.9429H45.2092V25.9325ZM46.6011 22.2802C46.6011 22.7929 46.6743 23.2429 46.8209 23.6302C46.9674 24.0174 47.1871 24.3208 47.4697 24.5406C47.7523 24.7604 48.0976 24.865 48.5057 24.865C48.9348 24.865 49.2906 24.7499 49.5732 24.5302C49.8557 24.2999 50.0755 23.9964 50.222 23.5988C50.3685 23.2115 50.4418 22.772 50.4418 22.2802C50.4418 21.7988 50.3685 21.3697 50.222 20.9825C50.0755 20.5953 49.8662 20.2918 49.5732 20.072C49.2906 19.8522 48.9348 19.7371 48.5057 19.7371C48.0976 19.7371 47.7418 19.8418 47.4592 20.0511C47.1767 20.2604 46.9674 20.5639 46.8209 20.9406C46.6743 21.3278 46.6011 21.7778 46.6011 22.2802Z" fill="#333333"/>
<path d="M53.4767 18.6278H54.9V26.4139C54.9 26.9057 54.8163 27.3139 54.6384 27.6488C54.4605 27.9836 54.1988 28.2453 53.8535 28.4127C53.5081 28.5906 53.0895 28.6743 52.5872 28.6743C52.5349 28.6743 52.493 28.6743 52.4407 28.6743C52.3884 28.6743 52.3465 28.6743 52.2942 28.6743V27.4499C52.336 27.4499 52.3779 27.4499 52.4093 27.4499C52.4407 27.4499 52.4826 27.4499 52.514 27.4499C52.8488 27.4499 53.0895 27.3557 53.2465 27.1778C53.4035 26.9999 53.4767 26.7383 53.4767 26.4034V18.6278ZM54.1779 17.4976C53.9267 17.4976 53.7174 17.4139 53.5395 17.2464C53.3616 17.079 53.2779 16.8802 53.2779 16.6499C53.2779 16.4197 53.3616 16.2104 53.5395 16.0534C53.7174 15.886 53.9267 15.8022 54.1779 15.8022C54.4291 15.8022 54.6384 15.886 54.8058 16.0534C54.9837 16.2209 55.0674 16.4197 55.0674 16.6499C55.0674 16.8802 54.9837 17.079 54.8058 17.2464C54.6384 17.4139 54.4291 17.4976 54.1779 17.4976Z" fill="#333333"/>
<path d="M59.9651 26.079C59.243 26.079 58.6256 25.922 58.1023 25.6185C57.5895 25.3046 57.1814 24.8755 56.8988 24.3104C56.6163 23.7453 56.4802 23.086 56.4802 22.322C56.4802 21.5685 56.6163 20.9092 56.8988 20.3441C57.1814 19.7685 57.5791 19.329 58.0814 19.0046C58.5837 18.6802 59.1802 18.5232 59.8605 18.5232C60.2686 18.5232 60.6767 18.5964 61.0639 18.7325C61.4512 18.8685 61.7965 19.0778 62.1105 19.3709C62.4139 19.6639 62.6651 20.0406 62.843 20.5116C63.0209 20.972 63.1046 21.5371 63.1046 22.1964V22.6988H57.2965V21.6313H61.7128C61.7128 21.2546 61.6395 20.9302 61.4825 20.6371C61.3256 20.3441 61.1163 20.1139 60.8442 19.9464C60.5721 19.779 60.2477 19.6953 59.8814 19.6953C59.4837 19.6953 59.1279 19.7895 58.8349 19.9883C58.5419 20.1767 58.3116 20.4383 58.1546 20.7523C57.9977 21.0662 57.9139 21.4011 57.9139 21.7674V22.6046C57.9139 23.0964 57.9977 23.5046 58.1756 23.8499C58.3535 24.1953 58.5942 24.4569 58.9081 24.6348C59.2221 24.8127 59.5779 24.8964 59.9965 24.8964C60.2686 24.8964 60.5093 24.8546 60.7291 24.7813C60.9488 24.6976 61.1477 24.5825 61.3046 24.4255C61.4616 24.2685 61.5872 24.0802 61.6709 23.8499L63.0209 24.0906C62.9163 24.4883 62.7174 24.8337 62.4453 25.1371C62.1732 25.4302 61.8174 25.6604 61.3988 25.8278C60.9698 26.0058 60.4988 26.079 59.9651 26.079Z" fill="#333333"/>
<path d="M67.7512 26.079C67.0396 26.079 66.4326 25.922 65.9198 25.5976C65.4175 25.2732 65.0198 24.8337 64.7477 24.2581C64.4756 23.693 64.3396 23.0441 64.3396 22.3116C64.3396 21.5685 64.4756 20.9197 64.7582 20.3441C65.0408 19.7685 65.428 19.329 65.9408 19.0046C66.4431 18.6802 67.0501 18.5232 67.7303 18.5232C68.285 18.5232 68.7768 18.6278 69.2163 18.8371C69.6559 19.036 70.0012 19.329 70.2629 19.6953C70.535 20.0616 70.6919 20.4906 70.7443 20.9825H69.3629C69.2896 20.6371 69.1117 20.3441 68.8396 20.093C68.5675 19.8418 68.2117 19.7267 67.7512 19.7267C67.3536 19.7267 67.0082 19.8313 66.7047 20.0406C66.4117 20.2499 66.1815 20.543 66.014 20.9302C65.8466 21.3069 65.7629 21.7569 65.7629 22.2802C65.7629 22.8139 65.8466 23.2744 66.0036 23.6616C66.1605 24.0488 66.3908 24.3523 66.6838 24.5616C66.9768 24.7709 67.3326 24.8755 67.7303 24.8755C68.0024 24.8755 68.2431 24.8232 68.4629 24.729C68.6826 24.6244 68.871 24.4883 69.0175 24.2999C69.1745 24.1116 69.2791 23.8918 69.3315 23.6197H70.7129C70.6605 24.0906 70.5036 24.5092 70.2524 24.886C69.9908 25.2523 69.6559 25.5453 69.2163 25.7651C68.8291 25.9744 68.3268 26.079 67.7512 26.079Z" fill="#333333"/>
<path d="M75.6837 18.6278V19.7685H71.6965V18.6278H75.6837ZM72.764 16.8801H74.1872V23.7871C74.1872 24.0592 74.2291 24.2685 74.3128 24.415C74.3965 24.5511 74.5012 24.6452 74.6268 24.6976C74.7628 24.7499 74.9093 24.7708 75.0558 24.7708C75.171 24.7708 75.2651 24.7604 75.3593 24.7499C75.443 24.729 75.5163 24.7185 75.5582 24.708L75.8198 25.8801C75.7361 25.9115 75.621 25.9429 75.464 25.9743C75.307 26.0057 75.1186 26.0266 74.8884 26.0266C74.5116 26.0371 74.1663 25.9638 73.8419 25.8278C73.5175 25.6918 73.2558 25.472 73.057 25.179C72.8582 24.8859 72.7535 24.5197 72.7535 24.0801V16.8801H72.764Z" fill="#333333"/>
<path d="M77.2641 25.9325V18.6278H78.6873V25.9325H77.2641ZM77.9757 17.4976C77.7245 17.4976 77.5152 17.4139 77.3373 17.2464C77.1594 17.079 77.0757 16.8802 77.0757 16.6499C77.0757 16.4197 77.1594 16.2104 77.3373 16.0534C77.5152 15.886 77.7245 15.8022 77.9757 15.8022C78.2268 15.8022 78.4361 15.886 78.6036 16.0534C78.7815 16.2209 78.8652 16.4197 78.8652 16.6499C78.8652 16.8802 78.7815 17.079 78.6036 17.2464C78.4361 17.4139 78.2268 17.4976 77.9757 17.4976Z" fill="#333333"/>
<path d="M86.8501 18.6279L84.2024 25.9326H82.6745L80.0164 18.6279H81.5443L83.3966 24.2477H83.4698L85.3117 18.6279H86.8501Z" fill="#333333"/>
<path d="M91.0884 26.079C90.3663 26.079 89.7489 25.922 89.2256 25.6185C88.7128 25.3046 88.3047 24.8755 88.0221 24.3104C87.7396 23.7453 87.6035 23.086 87.6035 22.322C87.6035 21.5685 87.7396 20.9092 88.0221 20.3441C88.3047 19.7685 88.7024 19.329 89.2047 19.0046C89.707 18.6802 90.3035 18.5232 90.9838 18.5232C91.3919 18.5232 91.8 18.5964 92.1872 18.7325C92.5745 18.8685 92.9198 19.0778 93.2338 19.3709C93.5372 19.6639 93.7884 20.0406 93.9663 20.5116C94.1442 20.972 94.2279 21.5371 94.2279 22.1964V22.6988H88.4198V21.6313H92.8256C92.8256 21.2546 92.7524 20.9302 92.5954 20.6371C92.4384 20.3441 92.2291 20.1139 91.957 19.9464C91.6849 19.779 91.3605 19.6953 90.9942 19.6953C90.5965 19.6953 90.2407 19.7895 89.9477 19.9883C89.6547 20.1767 89.4244 20.4383 89.2675 20.7523C89.1105 21.0662 89.0268 21.4011 89.0268 21.7674V22.6046C89.0268 23.0964 89.1105 23.5046 89.2884 23.8499C89.4663 24.1953 89.707 24.4569 90.021 24.6348C90.3349 24.8127 90.6907 24.8964 91.1093 24.8964C91.3814 24.8964 91.6221 24.8546 91.8419 24.7813C92.0617 24.6976 92.2605 24.5825 92.4175 24.4255C92.5744 24.2685 92.7 24.0802 92.7837 23.8499L94.1338 24.0906C94.0291 24.4883 93.8303 24.8337 93.5582 25.1371C93.2861 25.4302 92.9303 25.6604 92.5117 25.8278C92.0931 26.0058 91.6117 26.079 91.0884 26.079Z" fill="#333333"/>
<path d="M100.099 21.2024V22.4373H95.7769V21.2024H100.099Z" fill="#333333"/>
<path d="M110.208 19.3604H108.722C108.67 19.0465 108.555 18.7639 108.408 18.5232C108.251 18.2825 108.063 18.0732 107.833 17.9058C107.602 17.7383 107.351 17.6127 107.079 17.529C106.807 17.4453 106.514 17.4034 106.2 17.4034C105.635 17.4034 105.133 17.5395 104.693 17.822C104.254 18.1046 103.908 18.5232 103.647 19.0674C103.395 19.6116 103.27 20.2813 103.27 21.0662C103.27 21.8616 103.395 22.5313 103.647 23.0755C103.908 23.6197 104.254 24.0383 104.693 24.3104C105.133 24.593 105.635 24.729 106.19 24.729C106.493 24.729 106.786 24.6872 107.069 24.6034C107.351 24.5197 107.602 24.3941 107.822 24.2267C108.042 24.0592 108.241 23.8604 108.398 23.6197C108.555 23.379 108.67 23.1069 108.722 22.793H110.208C110.124 23.2744 109.978 23.7139 109.748 24.1116C109.518 24.5092 109.235 24.8546 108.879 25.1476C108.523 25.4406 108.126 25.6604 107.676 25.8174C107.226 25.9744 106.723 26.0581 106.19 26.0581C105.342 26.0581 104.599 25.8592 103.94 25.4616C103.28 25.0639 102.757 24.4883 102.38 23.7348C102.004 22.9813 101.815 22.0918 101.815 21.0558C101.815 20.0197 102.004 19.1197 102.391 18.3767C102.768 17.6232 103.291 17.0581 103.95 16.6499C104.609 16.2523 105.363 16.043 106.2 16.043C106.713 16.043 107.194 16.1162 107.644 16.2627C108.094 16.4092 108.502 16.629 108.858 16.9116C109.214 17.1941 109.518 17.5395 109.748 17.9476C109.957 18.3767 110.124 18.8372 110.208 19.3604Z" fill="#333333"/>
</g>
<defs>
<clipPath id="clip0_7_125">
<rect width="110.302" height="36" fill="white"/>
</clipPath>
</defs>
</svg>
