<svg width="37" height="36" viewBox="0 0 37 36" fill="none" xmlns="http://www.w3.org/2000/svg">
<g clip-path="url(#clip0_7_144)">
<path d="M15.1539 12.4922C14.5847 12.2614 13.9693 12.1691 13.3385 12.1845C12.9385 12.1845 12.5847 12.1845 12.2924 12.1999C11.9847 12.1845 11.7693 12.1999 11.6616 12.2153V17.3845C11.877 17.3999 12.077 17.4153 12.2616 17.4153H13.077C13.677 17.4153 14.277 17.323 14.8462 17.1383C15.3385 16.9999 15.7693 16.7076 16.1078 16.323C16.4309 15.9383 16.5847 15.4153 16.5847 14.7383C16.6001 14.2614 16.477 13.7845 16.2309 13.3691C15.9693 12.9691 15.6001 12.6614 15.1539 12.4922Z" fill="#333333"/>
<path d="M30.3846 0H6.53846C2.92308 0 0 2.92308 0 6.53846V29.4615C0 33.0769 2.92308 36 6.53846 36H30.3846C34 36 36.9231 33.0769 36.9231 29.4615V6.53846C36.9231 2.92308 34 0 30.3846 0ZM19.0154 17.9231C18.4 18.7846 17.5385 19.4308 16.5385 19.8C15.4923 20.1846 14.3385 20.3231 13.0769 20.3231C12.7077 20.3231 12.4615 20.3231 12.3077 20.3077C12.1538 20.2923 11.9385 20.2923 11.6462 20.2923V25.2308C11.6615 25.3385 11.5846 25.4308 11.4769 25.4462C11.4615 25.4462 11.4462 25.4462 11.4154 25.4462H8.49231C8.36923 25.4462 8.30769 25.3846 8.30769 25.2462V9.41539C8.30769 9.30769 8.35385 9.24615 8.46154 9.24615C8.72308 9.24615 8.96923 9.24615 9.32308 9.23077C9.69231 9.21538 10.0769 9.21538 10.4923 9.2C10.9077 9.18462 11.3538 9.18462 11.8308 9.16923C12.3077 9.15385 12.7692 9.15385 13.2308 9.15385C14.4923 9.15385 15.5385 9.30769 16.4 9.63077C17.1692 9.89231 17.8769 10.3231 18.4615 10.8923C18.9538 11.3846 19.3385 11.9846 19.5846 12.6462C19.8154 13.2923 19.9385 13.9538 19.9385 14.6462C19.9385 15.9692 19.6308 17.0615 19.0154 17.9231ZM29.9231 23.9077C29.4923 24.5231 28.8923 25 28.2 25.2769C27.4462 25.6 26.5231 25.7692 25.4154 25.7692C24.7077 25.7692 24.0154 25.7077 23.3231 25.5692C22.7846 25.4769 22.2462 25.3077 21.7538 25.0769C21.6462 25.0154 21.5692 24.9077 21.5846 24.7846V22.1077C21.5846 22.0615 21.6 22 21.6462 21.9692C21.6923 21.9385 21.7385 21.9538 21.7846 21.9846C22.3846 22.3385 23.0154 22.5846 23.6923 22.7385C24.2769 22.8923 24.8923 22.9692 25.5077 22.9692C26.0923 22.9692 26.5077 22.8923 26.7846 22.7538C27.0308 22.6462 27.2 22.3846 27.2 22.1077C27.2 21.8923 27.0769 21.6923 26.8308 21.4923C26.5846 21.2923 26.0769 21.0615 25.3231 20.7692C24.5385 20.4923 23.8154 20.1231 23.1385 19.6615C22.6615 19.3231 22.2615 18.8769 21.9692 18.3538C21.7231 17.8615 21.6 17.3231 21.6154 16.7846C21.6154 16.1231 21.8 15.4923 22.1385 14.9231C22.5231 14.3077 23.0923 13.8154 23.7538 13.5077C24.4769 13.1385 25.3846 12.9692 26.4769 12.9692C27.1077 12.9692 27.7538 13.0154 28.3846 13.1077C28.8462 13.1692 29.2923 13.2923 29.7077 13.4615C29.7692 13.4769 29.8308 13.5385 29.8615 13.6C29.8769 13.6615 29.8923 13.7231 29.8923 13.7846V16.2923C29.8923 16.3538 29.8615 16.4154 29.8154 16.4462C29.6769 16.4769 29.6 16.4769 29.5385 16.4462C29.0769 16.2 28.5846 16.0308 28.0615 15.9231C27.4923 15.8 26.9231 15.7231 26.3385 15.7231C26.0308 15.7077 25.7077 15.7538 25.4154 15.8308C25.2154 15.8769 25.0462 15.9846 24.9385 16.1385C24.8615 16.2615 24.8154 16.4154 24.8154 16.5538C24.8154 16.6923 24.8769 16.8308 24.9692 16.9538C25.1077 17.1231 25.2923 17.2615 25.4923 17.3692C25.8462 17.5538 26.2154 17.7231 26.5846 17.8769C27.4154 18.1538 28.2154 18.5385 28.9538 19C29.4615 19.3231 29.8769 19.7538 30.1692 20.2769C30.4154 20.7692 30.5385 21.3077 30.5231 21.8615C30.5385 22.5846 30.3231 23.3077 29.9231 23.9077Z" fill="#333333"/>
</g>
<defs>
<clipPath id="clip0_7_144">
<rect width="36.9231" height="36" fill="white"/>
</clipPath>
</defs>
</svg>
