<svg width="148" height="36" viewBox="0 0 148 36" fill="none" xmlns="http://www.w3.org/2000/svg">
<g clip-path="url(#clip0_7_148)">
<path d="M56.4017 19.4026C56.4017 14.8945 55.1145 12.5846 52.546 12.4553C51.5234 12.4083 50.5242 12.567 49.5544 12.949C48.7785 13.2253 48.2554 13.5015 47.9851 13.7778V24.5337C49.6308 25.5681 51.0884 26.0442 52.3638 25.9678C55.0558 25.7915 56.4017 23.605 56.4017 19.4026ZM59.5756 19.5907C59.5756 21.8829 59.0407 23.7814 57.9593 25.2919C56.7544 27.0023 55.0852 27.8839 52.9575 27.9309C51.347 27.9838 49.6954 27.4783 47.9909 26.4204V36.1947L45.2344 35.2132V13.5133C45.6869 12.9608 46.2688 12.4847 46.9741 12.0792C48.614 11.1211 50.6065 10.6333 52.9575 10.6098L52.9986 10.6509C55.1439 10.6215 56.7955 11.5032 57.9593 13.2899C59.029 14.9239 59.5756 17.0222 59.5756 19.5907ZM76.4207 26.0089C76.4207 29.077 76.115 31.2047 75.4979 32.3861C74.8807 33.5675 73.7052 34.5138 71.9655 35.2132C70.5549 35.7657 69.0326 36.0713 67.3986 36.1183L66.9461 34.3845C68.6094 34.1611 69.779 33.9319 70.4549 33.7085C71.7891 33.256 72.706 32.5624 73.2115 31.6338C73.6171 30.8756 73.8169 29.4297 73.8169 27.2961V26.5791C71.9302 27.4372 69.9554 27.8604 67.8923 27.8604C66.5346 27.8604 65.3356 27.4372 64.307 26.5791C63.1492 25.6445 62.5673 24.4632 62.5673 23.029V11.5502L65.3238 10.6039V22.1592C65.3238 23.3934 65.7235 24.3456 66.517 25.0098C67.3105 25.6739 68.3449 25.9972 69.6086 25.9737C70.8723 25.9443 72.2241 25.4565 73.6641 24.5043V11.0212H76.4207V26.0089ZM87.1883 27.7781C86.8886 27.8016 86.5829 27.8192 86.2832 27.8192C84.7256 27.8192 83.509 27.4489 82.6391 26.7025C81.7751 25.956 81.3402 24.9275 81.3402 23.6168V12.7551H79.4535V11.0212H81.3402V6.41907L84.0967 5.43752V11.0271H87.1942V12.7551H84.0967V23.5404C84.0967 24.5748 84.373 25.3095 84.9314 25.7386C85.4074 26.0912 86.1656 26.2911 87.1942 26.344L87.1883 27.7781ZM103.881 27.5547H101.124V16.9105C101.124 15.829 100.871 14.8945 100.366 14.1187C99.7839 13.237 98.9728 12.7962 97.9384 12.7962C96.6747 12.7962 95.0936 13.4604 93.1952 14.7946V27.5489H90.4386V2.1167L93.1952 1.24683V12.8315C94.9585 11.5502 96.8804 10.9095 98.9728 10.9095C100.43 10.9095 101.618 11.4032 102.523 12.3789C103.428 13.3605 103.881 14.583 103.881 16.0406V27.5547ZM118.533 18.9676C118.533 17.2338 118.204 15.8055 117.552 14.677C116.776 13.2958 115.565 12.5729 113.931 12.4965C110.91 12.6728 109.4 14.8357 109.4 18.9853C109.4 20.8896 109.711 22.4765 110.346 23.752C111.157 25.3801 112.368 26.1794 113.984 26.1559C117.017 26.1324 118.533 23.7402 118.533 18.9676ZM121.554 18.9853C121.554 21.448 120.925 23.4992 119.668 25.1391C118.281 26.9729 116.37 27.8956 113.931 27.8956C111.51 27.8956 109.629 26.9729 108.265 25.1391C107.031 23.4992 106.414 21.448 106.414 18.9853C106.414 16.6695 107.078 14.7182 108.412 13.1312C109.823 11.4503 111.674 10.6039 113.961 10.6039C116.247 10.6039 118.116 11.4503 119.55 13.1312C120.884 14.7241 121.554 16.6695 121.554 18.9853ZM137.359 27.5547H134.603V16.311C134.603 15.0767 134.232 14.1128 133.492 13.4192C132.751 12.7257 131.758 12.3965 130.524 12.4201C129.213 12.4436 127.967 12.8726 126.785 13.7014V27.5547H124.029V13.3605C125.616 12.2026 127.073 11.4503 128.408 11.0976C129.665 10.7685 130.776 10.6039 131.734 10.6039C132.387 10.6039 133.004 10.6685 133.586 10.792C134.667 11.0447 135.549 11.509 136.231 12.1908C136.989 12.9432 137.365 13.8483 137.365 14.9063L137.359 27.5547Z" fill="#333333"/>
<path d="M18.0257 0.0002341C16.5238 0.00617555 15.0842 0.130946 13.819 0.344838C10.0985 0.96869 9.41915 2.28175 9.41915 4.70586V7.90236H18.2189V8.96588H6.11612C3.56094 8.96588 1.31737 10.4334 0.619373 13.22C-0.190804 16.4164 -0.221965 18.4068 0.619373 21.7459C1.24259 24.2295 2.7383 26 5.29347 26H8.31606V22.1678C8.31606 19.3991 10.8276 16.9571 13.8128 16.9571H22.6001C25.0493 16.9571 27 15.038 27 12.6971V4.70586C27 2.43029 24.987 0.72509 22.6001 0.344838C21.0982 0.101239 19.5277 -0.00570735 18.0257 0.0002341ZM13.2644 2.57288C14.1743 2.57288 14.9159 3.2918 14.9159 4.17707C14.9159 5.0564 14.1743 5.76938 13.2644 5.76938C12.3545 5.76938 11.6129 5.0564 11.6129 4.17707C11.6129 3.2918 12.3545 2.57288 13.2644 2.57288Z" fill="#333333"/>
<path d="M27.952 9V12.8401C27.952 15.8167 25.485 18.3217 22.6706 18.3217H14.2275C11.9162 18.3217 10 20.3489 10 22.713V30.9506C10 33.2964 11.994 34.6744 14.2275 35.342C16.9042 36.1443 19.467 36.2913 22.6706 35.342C24.7964 34.7111 26.8982 33.4434 26.8982 30.9506V27.6556H18.4551V26.5593H31.1257C33.5808 26.5593 34.4969 24.8076 35.3532 22.1741C36.2335 19.467 36.1975 16.8579 35.3532 13.3852C34.7484 10.8864 33.5868 9 31.1257 9H27.952ZM23.2036 29.8482C24.0778 29.8482 24.7904 30.5832 24.7904 31.4896C24.7904 32.4022 24.0778 33.1432 23.2036 33.1432C22.3293 33.1432 21.6167 32.4022 21.6167 31.4896C21.6167 30.5832 22.3293 29.8482 23.2036 29.8482Z" fill="#333333"/>
<path d="M142.725 7.56444H143.207V4.53163H144.354V4.1731H141.579V4.53163H142.725V7.56444ZM144.783 7.56444H145.194V4.79612L146.087 7.56444H146.546L147.48 4.80787V7.57032H147.933V4.1731H147.339L146.317 7.08248L145.453 4.1731H144.788L144.783 7.56444Z" fill="#333333"/>
</g>
<defs>
<clipPath id="clip0_7_148">
<rect width="148" height="36" fill="white"/>
</clipPath>
</defs>
</svg>
