<svg width="38" height="36" viewBox="0 0 38 36" fill="none" xmlns="http://www.w3.org/2000/svg">
<g clip-path="url(#clip0_7_153)">
<path d="M22.0874 17.9999C22.0874 19.7065 20.7065 21.0874 18.9999 21.0874C17.2932 21.0874 15.9124 19.7065 15.9124 17.9999C15.9124 16.2932 17.2932 14.9124 18.9999 14.9124C20.7065 14.9124 22.0874 16.2932 22.0874 17.9999Z" fill="#333333"/>
<path d="M19 21.3248C17.167 21.3248 15.675 19.8333 15.675 17.9998C15.675 16.1663 17.167 14.6748 19 14.6748C20.8331 14.6748 22.325 16.1663 22.325 17.9998C22.325 19.8333 20.8331 21.3248 19 21.3248ZM19 15.1498C17.4283 15.1498 16.15 16.428 16.15 17.9998C16.15 19.5716 17.4283 20.8498 19 20.8498C20.5718 20.8498 21.85 19.5716 21.85 17.9998C21.85 16.428 20.5718 15.1498 19 15.1498Z" fill="#333333"/>
<path d="M11.6252 34.8641C10.8125 34.8641 10.0724 34.6779 9.425 34.3112C8.342 33.697 7.5934 32.6387 7.19915 31.1667C6.74077 29.4534 6.7954 27.1776 7.35685 24.5746C2.82915 23.0171 0.237549 20.6274 0.237549 18.0002C0.237549 15.3725 2.82867 12.9832 7.35637 11.4262C6.79492 8.82268 6.73982 6.54696 7.1982 4.83363C7.59245 3.36113 8.34105 2.30283 9.42357 1.68913C10.0705 1.32243 10.811 1.13623 11.6238 1.13623C13.7081 1.13623 16.322 2.43298 19.001 4.79278C21.68 2.43536 24.293 1.13956 26.3749 1.13956C27.1876 1.13956 27.9277 1.32576 28.5751 1.69246C29.6567 2.30568 30.4057 3.36208 30.8 4.83268C31.2588 6.54553 31.2037 8.82173 30.6418 11.4257C35.1705 12.9827 37.7625 15.3725 37.7625 18.0002C37.7625 20.6279 35.1705 23.0176 30.6418 24.5751C31.2033 27.1786 31.2584 29.4543 30.7995 31.1672C30.4053 32.6382 29.6571 33.6946 28.5765 34.3079C27.9286 34.6746 27.1881 34.8608 26.3758 34.8608C24.2925 34.8608 21.6786 33.565 19.0005 31.2085C16.3215 33.5678 13.7081 34.8641 11.6252 34.8641ZM9.18512 25.128C8.7144 27.3686 8.66167 29.2828 9.03502 30.6755C9.29247 31.6379 9.7385 32.3053 10.3622 32.6587C10.7198 32.8615 11.145 32.9646 11.6252 32.9646C13.2373 32.9646 15.3596 31.8806 17.6202 29.907C16.4873 28.766 15.3815 27.4745 14.3294 26.0638C12.5096 25.8662 10.7806 25.5517 9.18512 25.128ZM20.3804 29.906C22.6404 31.8778 24.7632 32.9608 26.3754 32.9612C26.8556 32.9612 27.2807 32.8582 27.6393 32.6553C28.2611 32.3029 28.7062 31.6369 28.9632 30.676C29.3365 29.2824 29.2843 27.3686 28.8135 25.1285C27.2166 25.5522 25.4871 25.8666 23.6679 26.0642C22.6162 27.475 21.5118 28.766 20.3804 29.906ZM16.8939 26.2618C17.5836 27.1054 18.2894 27.8925 19 28.6083C19.7087 27.893 20.4151 27.1059 21.1043 26.2618C20.3961 26.2956 19.6907 26.3127 19 26.3127C18.3089 26.3127 17.6031 26.2956 16.8939 26.2618ZM15.3658 24.2602C16.5509 24.3614 17.7731 24.4127 19 24.4127C20.2279 24.4127 21.4487 24.3614 22.6319 24.2607C23.3377 23.2708 24.0108 22.2334 24.6335 21.1755C25.2358 20.1519 25.8025 19.0836 26.3184 17.9997C25.8039 16.9186 25.2377 15.8508 24.634 14.8248C24.0127 13.7693 23.3396 12.7319 22.6319 11.7397C21.4496 11.639 20.2289 11.5877 19 11.5877C17.7707 11.5877 16.5495 11.639 15.3677 11.7401C14.66 12.731 13.9859 13.7684 13.3637 14.8253C12.7604 15.8508 12.1942 16.9186 11.6793 18.0011C12.1933 19.0813 12.7595 20.1491 13.3632 21.176C13.9826 22.2281 14.6557 23.2651 15.3658 24.2602ZM27.3083 20.2702C26.9729 20.9095 26.6252 21.5365 26.2704 22.1388C25.9127 22.7478 25.5322 23.3586 25.137 23.9609C26.2647 23.7871 27.3434 23.5643 28.3533 23.2959C28.073 22.3227 27.722 21.3076 27.3083 20.2702ZM9.64445 23.2955C10.6548 23.5634 11.733 23.7866 12.8592 23.9605C12.4617 23.3544 12.0812 22.743 11.7259 22.1388C11.372 21.537 11.0238 20.911 10.689 20.2716C10.2771 21.3043 9.9266 22.3184 9.64445 23.2955ZM28.4126 18.0002C29.1384 19.6109 29.7298 21.2031 30.1739 22.7392C33.6899 21.5023 35.8625 19.6978 35.8625 18.0002C35.8625 16.3025 33.6899 14.498 30.1739 13.2611C29.7308 14.7972 29.1389 16.3894 28.4126 18.0002ZM7.82425 13.262C4.30972 14.4985 2.13755 16.303 2.13755 18.0002C2.13755 19.6978 4.30972 21.5023 7.8252 22.7388C8.26885 21.2021 8.86022 19.6099 9.58507 18.0011C8.85975 16.3918 8.26837 14.7996 7.82425 13.262ZM9.64397 12.7049C9.92612 13.6805 10.2767 14.6951 10.689 15.7297C11.0234 15.0922 11.3711 14.4657 11.7264 13.862C12.0836 13.2544 12.464 12.6436 12.8607 12.0399C11.733 12.2132 10.6548 12.4365 9.64397 12.7049ZM25.138 12.0394C25.5356 12.646 25.916 13.2568 26.2713 13.862C26.6257 14.4638 26.9739 15.0903 27.3092 15.7297C27.722 14.6956 28.0725 13.681 28.3547 12.7044C27.3429 12.436 26.2647 12.2128 25.138 12.0394ZM11.6238 3.03623C11.1435 3.03623 10.7189 3.13883 10.3617 3.34213C9.7385 3.69553 9.292 4.36291 9.03407 5.32526C8.6612 6.71938 8.71345 8.63316 9.18465 10.8728C10.7806 10.4491 12.5106 10.1342 14.3308 9.93656C15.3839 8.52533 16.4897 7.23476 17.6211 6.09476C15.3601 4.12018 13.2364 3.03623 11.6238 3.03623ZM23.6683 9.93608C25.4876 10.1337 27.2171 10.4481 28.814 10.8718C29.2852 8.63173 29.3379 6.71748 28.9641 5.32383C28.7067 4.36338 28.2611 3.69743 27.6389 3.34498C27.2807 3.14216 26.8556 3.03908 26.3749 3.03908C24.7632 3.03908 22.6414 4.12256 20.3809 6.09476C21.5114 7.23428 22.6162 8.52533 23.6683 9.93608ZM19 9.68766C19.6907 9.68766 20.3961 9.70476 21.1048 9.73848C20.416 8.89583 19.7102 8.10923 19.001 7.39293C18.2899 8.11018 17.5845 8.89678 16.8958 9.73848C17.604 9.70476 18.3094 9.68766 19 9.68766Z" fill="#333333"/>
<path d="M11.6237 1.37352C13.7584 1.37352 16.3718 2.75577 19.0014 5.11034C21.6305 2.75767 24.2426 1.37684 26.3753 1.37684C27.1462 1.37684 27.8473 1.55259 28.4587 1.89887C29.4828 2.47932 30.1934 3.48679 30.5705 4.89422C31.0821 6.75479 30.9747 9.04572 30.3644 11.5822C34.7448 13.0457 37.525 15.3547 37.525 17.9999C37.525 20.6452 34.7448 22.9542 30.3639 24.4181C31.0009 27.1603 31.1078 29.513 30.5701 31.1057C30.1929 32.5126 29.4828 33.5206 28.4596 34.101C27.8474 34.4478 27.2911 34.6249 26.5207 34.6249C26.5202 34.6249 26.3231 34.6249 26.3226 34.6249C24.1889 34.6249 21.6286 33.2427 19 30.891C16.3709 33.2451 13.7584 34.6264 11.6247 34.6264C10.8537 34.6264 10.1526 34.4506 9.54132 34.1043C8.51627 33.5225 7.8052 32.5136 7.42852 31.1052C6.86327 29.3396 6.97727 27.0188 7.63467 24.4177C3.2547 22.9537 0.475 20.6452 0.475 17.9999C0.475 15.3551 3.2547 13.0462 7.6342 11.5822C7.30788 10.1292 7.09935 8.78019 7.09222 7.54994C7.08652 6.57809 7.21905 5.67417 7.42805 4.89469C7.8052 3.48584 8.5158 2.47694 9.54085 1.89554C10.1517 1.54879 10.8528 1.37352 11.6237 1.37352ZM9.00505 11.1666C10.6566 10.713 12.4906 10.37 14.4595 10.161C15.5909 8.63627 16.7751 7.26542 17.9678 6.08362C15.6536 4.01927 13.4002 2.79804 11.6237 2.79804C11.1017 2.79804 10.6381 2.91109 10.2443 3.13482C9.56365 3.52099 9.07962 4.23682 8.8046 5.26329C8.39705 6.78424 8.48967 8.84004 9.00505 11.1666ZM28.9935 11.1661C29.5089 8.83957 29.6015 6.78329 29.194 5.26234C28.9194 4.23777 28.4354 3.52337 27.7561 3.13814C27.3619 2.91442 26.8969 2.80137 26.3753 2.80137C24.6002 2.80137 22.3483 4.02117 20.0346 6.08362C21.2268 7.26542 22.4095 8.63627 23.54 10.1605C25.508 10.3695 27.342 10.7125 28.9935 11.1661ZM16.3766 10.0038C17.2325 9.95297 18.0908 9.90879 18.9834 9.90879C19.8759 9.90879 20.767 9.95344 21.6229 10.0038C20.7641 8.92127 19.8825 7.93232 19.0005 7.05689C18.1184 7.93232 17.2363 8.92127 16.3766 10.0038ZM19 24.6499C20.3115 24.6499 21.5669 24.5925 22.761 24.4875C23.4826 23.4819 24.1804 22.4141 24.8378 21.296C25.4804 20.2039 26.0618 19.0986 26.581 17.9999C26.0618 16.9013 25.4804 15.7964 24.8382 14.7049C24.1803 13.5862 23.483 12.5189 22.761 11.5133C21.5674 11.4074 20.3119 11.3499 19 11.3499C17.688 11.3499 16.4322 11.4074 15.238 11.5129C14.5155 12.5184 13.8173 13.5862 13.1594 14.7044C12.5172 15.7964 11.9358 16.9017 11.4166 18.0004C11.9358 19.0991 12.5167 20.2039 13.1589 21.2955C13.8168 22.4136 14.5146 23.4814 15.2366 24.487C16.4312 24.5925 17.6876 24.6499 19 24.6499ZM27.3344 16.2961C27.8687 15.0093 28.3109 13.7458 28.6482 12.5374C27.4355 12.204 26.096 11.9285 24.6449 11.7266C25.1332 12.4519 25.6087 13.2039 26.0661 13.9819C26.5192 14.7509 26.9406 15.5242 27.3344 16.2961ZM10.6633 16.2966C11.0566 15.5247 11.4784 14.7514 11.9306 13.9819C12.3885 13.2039 12.8644 12.4524 13.3532 11.7271C11.9021 11.9285 10.5626 12.2045 9.3499 12.5379C9.68715 13.7463 10.1294 15.0093 10.6633 16.2966ZM30.0143 23.0454C33.8504 21.7458 36.1 19.8363 36.1 17.9999C36.1 16.1636 33.8504 14.2541 30.0143 12.9545C29.5616 14.5719 28.9365 16.2714 28.1523 17.9995C28.9365 19.728 29.5616 21.4275 30.0143 23.0454ZM7.98475 23.0449C8.43695 21.428 9.06158 19.7285 9.8458 18.0009C9.06158 16.2728 8.43647 14.5728 7.98427 12.9554C4.14865 14.255 1.9 16.1641 1.9 17.9999C1.9 19.8363 4.14912 21.7453 7.98475 23.0449ZM24.6449 24.2733C26.096 24.0719 27.4355 23.7964 28.6482 23.4624C28.3105 22.254 27.8683 20.9905 27.3344 19.7033C26.9406 20.4752 26.5188 21.2485 26.0661 22.018C25.6087 22.796 25.1332 23.5479 24.6449 24.2733ZM13.3518 24.2728C12.8635 23.5475 12.388 22.796 11.9301 22.0184C11.4779 21.2494 11.0566 20.4766 10.6633 19.7052C10.1294 20.9915 9.68762 22.2545 9.35037 23.4624C10.5626 23.7954 11.9016 24.0709 13.3518 24.2728ZM11.6252 33.2014C13.4012 33.2014 15.6536 31.9806 17.9673 29.9172C16.7737 28.7349 15.59 27.3636 14.458 25.8384C12.4901 25.6299 10.6571 25.2869 9.006 24.8333C8.4911 27.1598 8.39847 29.2156 8.80555 30.7366C9.0801 31.7626 9.5646 32.4784 10.2448 32.8646C10.6381 33.0883 11.1031 33.2014 11.6252 33.2014ZM26.3753 33.1985C26.8973 33.1985 27.3614 33.0855 27.7561 32.8617C28.4354 32.4765 28.9185 31.7621 29.1925 30.7371C29.6001 29.2156 29.5075 27.1598 28.9926 24.8338C27.341 25.2874 25.5075 25.6303 23.5391 25.8389C22.4086 27.3636 21.2254 28.7345 20.0331 29.9167C22.3468 31.9782 24.5993 33.198 26.3753 33.1985ZM19 28.9439C19.8821 28.068 20.7637 27.0786 21.6229 25.9961C20.7675 26.0469 19.9324 26.1543 19.0394 26.1543C18.1459 26.1543 17.2311 26.0469 16.3751 25.9961C17.2349 27.0791 18.1174 28.0685 19 28.9439ZM11.4551 0.934142C10.6006 0.934142 9.98973 1.09469 9.30668 1.48182C8.16715 2.12829 7.38055 3.23504 6.9692 4.77167C6.5132 6.47549 6.55262 8.71512 7.0813 11.2701C2.57402 12.8647 0 15.3043 0 17.9999C0 20.696 2.5745 23.1352 7.08178 24.7297C6.5531 27.2848 6.51367 29.5244 6.97015 31.2282C7.38102 32.7639 8.16715 33.8706 9.30762 34.5181C9.99162 34.9057 10.8134 35.0705 11.6674 35.0705C13.7987 35.0705 16.3001 33.8664 19.0005 31.5241C21.7004 33.864 24.244 35.098 26.3749 35.0985C27.2294 35.0985 28.0093 34.9023 28.6933 34.5147C29.8319 33.8692 30.6175 32.7639 31.0284 31.2292C31.4849 29.5249 31.4455 27.2852 30.9168 24.7307C35.425 23.1356 38 20.696 38 17.9999C38 15.3038 35.4255 12.8642 30.9173 11.2697C31.4464 8.71417 31.4854 6.47454 31.0289 4.77072C30.6175 3.23599 29.8314 2.13067 28.6924 1.48514C28.0088 1.09802 27.2289 0.901367 26.3749 0.901367C24.2445 0.901367 21.7013 2.13589 19.0009 4.47669C16.3001 2.13399 13.7446 0.932717 11.6128 0.932717L11.4551 0.934142ZM9.367 10.579C9.14755 9.47512 9.0003 8.44057 8.99222 7.53332C8.9851 6.71632 9.0972 6.00524 9.26297 5.38584C9.5038 4.48714 9.91277 3.86869 10.4785 3.54759C10.7996 3.36519 11.191 3.24169 11.6294 3.24169C13.1404 3.24169 15.1288 4.27624 17.2739 6.10784C16.2189 7.18752 15.1876 8.39687 14.2025 9.71072C12.4996 9.90072 10.8761 10.1919 9.367 10.579ZM20.728 6.10879C22.8727 4.27862 24.8658 3.27637 26.3749 3.27637C26.8138 3.27637 27.1999 3.36899 27.5215 3.55139C28.0863 3.87154 28.4948 4.48857 28.7351 5.38537C29.1503 6.72392 29.0966 8.50327 28.6316 10.5785C27.1225 10.1919 25.4994 9.90024 23.797 9.71119C22.8123 8.39782 21.7821 7.18847 20.728 6.10879ZM17.4197 9.47844C17.9403 8.86094 18.4689 8.27669 19.0005 7.73139C19.532 8.27669 20.0602 8.86094 20.5803 9.47844C20.0488 9.45944 19.5201 9.44994 19 9.44994C18.4799 9.44994 17.9517 9.45944 17.4197 9.47844ZM15.4969 11.9674C16.6392 11.8729 17.8163 11.8055 19 11.8055C20.1832 11.8055 21.3603 11.8729 22.5022 11.9674C23.1824 12.9265 23.8303 13.9273 24.4288 14.9452C25.0092 15.9323 25.556 16.9587 26.0547 17.9995C25.5555 19.0407 25.0088 20.0676 24.4283 21.0547C23.8293 22.0731 23.1819 23.0734 22.5017 24.0324C21.3603 24.127 20.1832 24.2538 19 24.2538C17.8158 24.2538 16.6383 24.1265 15.4955 24.032C14.8148 23.0734 14.1669 22.0726 13.5679 21.0542C12.9874 20.0676 12.4412 19.0411 11.9424 17.9999C12.4412 16.9587 12.9879 15.9318 13.5684 14.9447C14.1678 13.9268 14.8162 12.926 15.4969 11.9674ZM27.2755 15.1613C27.0147 14.6778 26.7472 14.2028 26.476 13.7411C26.2053 13.2808 25.9217 12.8186 25.6281 12.3593C26.4708 12.5028 27.2835 12.6742 28.0573 12.8723C27.8355 13.6162 27.5738 14.3819 27.2755 15.1613ZM9.9408 12.8723C10.7146 12.6742 11.5273 12.5028 12.3699 12.3593C12.0759 12.8186 11.7924 13.2808 11.5216 13.7406C11.2504 14.2023 10.9829 14.6773 10.7222 15.1609C10.4239 14.3823 10.1626 13.6166 9.9408 12.8723ZM28.6734 17.9995C29.3455 16.4975 29.9022 15.0108 30.3311 13.5696C33.61 14.7661 35.625 16.4424 35.625 17.9999C35.625 19.5575 33.61 21.2337 30.3311 22.4303C29.9017 20.9886 29.3455 19.5014 28.6734 17.9995ZM7.66745 22.4298C4.38948 21.2333 2.375 19.557 2.375 17.9999C2.375 16.4429 4.38948 14.7666 7.66698 13.5701C8.0959 15.0117 8.65212 16.4985 9.32425 18.0004C8.6526 19.5019 8.09637 20.9886 7.66745 22.4298ZM25.6277 23.641C25.9212 23.1812 26.2053 22.7191 26.4755 22.2593C26.7472 21.7976 27.0147 21.3221 27.2755 20.8385C27.5738 21.618 27.835 22.3842 28.0573 23.1285C27.2831 23.3256 26.4703 23.4976 25.6277 23.641ZM9.94128 23.1276C10.1631 22.3837 10.4243 21.6185 10.7222 20.84C10.9825 21.323 11.2499 21.798 11.5211 22.2593C11.7914 22.7191 12.075 23.1808 12.369 23.6406C11.5268 23.4966 10.7146 23.3252 9.94128 23.1276ZM11.6252 32.7264C11.1863 32.7264 10.8006 32.6337 10.479 32.4513C9.91373 32.1302 9.50475 31.5123 9.2644 30.6136C8.86967 29.2622 8.91432 27.4824 9.36795 25.4204C10.8765 25.807 12.4991 26.0987 14.2011 26.2877C15.1867 27.6016 16.2179 28.8114 17.2734 29.892C15.1288 31.7241 13.1352 32.7268 11.6252 32.7264ZM23.7965 26.2887C25.4989 26.0992 27.122 25.808 28.6311 25.4213C29.156 27.6728 29.1973 29.4674 28.7342 30.614C28.4943 31.5113 28.0863 32.1283 27.522 32.448C27.1999 32.6304 26.8142 32.723 26.3758 32.723C24.8653 32.723 22.8713 31.7208 20.7271 29.8916C21.7816 28.8119 22.8119 27.6025 23.7965 26.2887ZM19 28.2694C18.468 27.7241 17.9388 27.1394 17.4182 26.5214C17.9502 26.5404 18.4794 26.5499 19 26.5499C19.5201 26.5499 20.0488 26.5404 20.5803 26.5214C20.0602 27.1394 19.5315 27.7241 19 28.2694Z" fill="#333333"/>
</g>
<defs>
<clipPath id="clip0_7_153">
<rect width="38" height="36" fill="white"/>
</clipPath>
</defs>
</svg>
