<svg width="105" height="36" viewBox="0 0 105 36" fill="none" xmlns="http://www.w3.org/2000/svg">
<g clip-path="url(#clip0_7_161)">
<path d="M37.8395 15.3354C37.8365 16.5055 37.8336 17.6756 37.8306 18.8427C37.8306 19.3344 37.5048 19.8291 36.859 20.2053L36.8679 16.698C37.5136 16.3218 37.8395 15.8301 37.8395 15.3354ZM0.0266113 18.8249L0.035498 15.3176C0.035498 15.8182 0.364306 16.3159 1.02488 16.698L1.016 20.2053C0.355419 19.8232 0.0266113 19.3255 0.0266113 18.8249Z" fill="#333333"/>
<path d="M36.868 16.6951L36.8591 20.2023L21.3548 29.2105L21.3637 25.7032L36.868 16.6951ZM16.63 25.7032L16.6211 29.2105L1.01611 20.2053L1.025 16.698C6.22668 19.7017 11.4432 22.6788 16.63 25.7062V25.7032ZM21.3637 25.7032L21.3548 29.2105C20.0514 29.9688 17.9334 29.9688 16.6211 29.2105L16.63 25.7032C17.9423 26.4615 20.0603 26.4615 21.3637 25.7032Z" fill="#333333"/>
<path d="M37.8395 21.5502C37.8365 22.7203 37.8336 23.8904 37.8306 25.0575C37.8306 25.5493 37.5048 26.0439 36.859 26.4202L36.8679 22.9129C37.5136 22.5367 37.8395 22.0449 37.8395 21.5502ZM0.0266113 25.0398L0.035498 21.5325C0.035498 22.0331 0.364306 22.5307 1.02488 22.9129L1.016 26.4202C0.355419 26.038 0.0266113 25.5404 0.0266113 25.0398Z" fill="#333333"/>
<path d="M36.868 22.9128L36.8591 26.4201L21.3548 35.4283L21.3637 31.921L36.868 22.9128ZM16.63 31.921L16.6211 35.4283L1.01611 26.4201L1.025 22.9128L16.63 31.921ZM21.3637 31.921L21.3548 35.4283C20.0514 36.1866 17.9334 36.1866 16.6211 35.4283L16.63 31.921C17.9423 32.6793 20.0603 32.6793 21.3637 31.921Z" fill="#333333"/>
<path d="M37.8099 10.9573L37.804 13.1049C37.804 13.1049 37.804 13.1227 37.804 13.1316L37.8099 10.9839C37.8099 10.9839 37.8099 10.9662 37.8099 10.9573Z" fill="#333333"/>
<path d="M37.807 10.9839L37.8011 13.1315C37.8011 13.1907 37.7922 13.25 37.7803 13.3092L37.7863 11.1616C37.7981 11.1024 37.804 11.0431 37.807 10.9839ZM37.7863 11.1587L37.7803 13.3063C37.7685 13.3655 37.7507 13.4218 37.73 13.4781L37.7359 11.3305C37.7566 11.2742 37.7744 11.2149 37.7863 11.1587Z" fill="#333333"/>
<path d="M37.7388 11.3335L37.7328 13.4811C37.7091 13.5404 37.6825 13.5996 37.6499 13.6559L37.6558 11.5083C37.6884 11.452 37.7151 11.3927 37.7388 11.3335Z" fill="#333333"/>
<path d="M37.6559 11.5083C37.6559 12.2252 37.6529 12.9391 37.6499 13.6559C37.6144 13.7211 37.5729 13.7803 37.5255 13.8396L37.5314 11.692C37.5759 11.6327 37.6174 11.5735 37.6559 11.5083ZM37.5314 11.692L37.5255 13.8396C37.4663 13.9136 37.4041 13.9818 37.3359 14.044L37.3419 11.8964C37.41 11.8341 37.4752 11.766 37.5314 11.692Z" fill="#333333"/>
<path d="M37.342 11.8962L37.336 14.0439C37.2264 14.1446 37.0961 14.2423 36.948 14.3312L36.9539 12.1836C37.102 12.0947 37.2324 11.997 37.342 11.8962Z" fill="#333333"/>
<path d="M36.9539 12.1836C36.9539 12.9005 36.9509 13.6144 36.9479 14.3312C36.9361 14.3401 36.9242 14.346 36.9094 14.3519L36.9153 12.2043C36.9153 12.2043 36.942 12.1895 36.9539 12.1836Z" fill="#333333"/>
<path d="M0.912367 12.2073L0.906443 14.3549C0.302148 14.0024 0 13.5433 0 13.0871L0.00592446 10.9395C0.00592446 11.3986 0.308072 11.8577 0.912367 12.2073Z" fill="#333333"/>
<path d="M36.9153 12.2073L36.9094 14.3549L21.1326 23.523L21.1385 21.3754C26.3965 18.3184 31.6574 15.2643 36.9153 12.2073Z" fill="#333333"/>
<path d="M16.7929 21.3754L16.787 23.523L0.906494 14.3549L0.912419 12.2073L16.7929 21.3754Z" fill="#333333"/>
<path d="M21.1386 21.3755L21.1327 23.5231C20.9283 23.6416 20.7002 23.7423 20.4602 23.8193L20.4662 21.6717C20.7061 21.5947 20.9342 21.494 21.1386 21.3755ZM20.4662 21.6717L20.4602 23.8193C20.2736 23.8786 20.0781 23.9289 19.8796 23.9645L19.8856 21.8169C20.0811 21.7813 20.2766 21.7339 20.4662 21.6717Z" fill="#333333"/>
<path d="M19.8826 21.8169L19.8767 23.9645C19.7493 23.9882 19.616 24.006 19.4857 24.0178L19.4916 21.8702C19.6249 21.8584 19.7552 21.8376 19.8826 21.8169ZM19.4916 21.8702L19.4857 24.0178C19.3731 24.0297 19.2605 24.0356 19.145 24.0415L19.1509 21.8939C19.2635 21.891 19.379 21.8821 19.4916 21.8702Z" fill="#333333"/>
<path d="M19.1509 21.894L19.145 24.0416C19.0413 24.0445 18.9346 24.0445 18.831 24.0416L18.8369 21.894C18.9406 21.894 19.0472 21.894 19.1509 21.894ZM18.8369 21.894L18.831 24.0416C18.7302 24.0416 18.6295 24.0327 18.5288 24.0268L18.5347 21.8792C18.6354 21.888 18.7362 21.894 18.8369 21.894Z" fill="#333333"/>
<path d="M18.5346 21.879L18.5287 24.0266C18.428 24.0178 18.3302 24.0059 18.2295 23.9941L18.2354 21.8464C18.3332 21.8612 18.4339 21.8701 18.5346 21.879Z" fill="#333333"/>
<path d="M18.2356 21.8465L18.2297 23.9942C18.129 23.9793 18.0253 23.9616 17.9246 23.9408L17.9305 21.7932C18.0312 21.8139 18.1319 21.8317 18.2356 21.8465Z" fill="#333333"/>
<path d="M17.9303 21.7931L17.9244 23.9407C17.8177 23.917 17.7111 23.8933 17.6044 23.8607L17.6104 21.7131C17.714 21.7427 17.8207 21.7694 17.9303 21.7901M17.6104 21.7101L17.6044 23.8578C17.4771 23.8222 17.3527 23.7807 17.2312 23.7304L17.2371 21.5828C17.3586 21.6302 17.483 21.6716 17.6104 21.7101Z" fill="#333333"/>
<path d="M17.2371 21.5888C17.2371 22.3056 17.2342 23.0195 17.2312 23.7364C17.0742 23.6742 16.9261 23.6031 16.7869 23.5231L16.7928 21.3755C16.932 21.4555 17.0801 21.5266 17.2371 21.5888Z" fill="#333333"/>
<path d="M36.9006 9.68947L21.0201 0.521361C19.8174 -0.174764 17.8712 -0.174764 16.6745 0.521361L0.89765 9.68947C-0.299091 10.3856 -0.293167 11.5112 0.912461 12.2074L16.793 21.3755C17.9956 22.0716 19.9418 22.0716 21.1386 21.3755C26.3965 18.3185 31.6575 15.2644 36.9154 12.2074C38.1122 11.5112 38.1062 10.3856 36.9006 9.68947ZM15.7473 3.5458L18.4311 4.39892L21.0971 2.82301L20.241 5.04765L22.7767 6.0637L19.5627 6.58505L18.4637 8.78895L17.3351 6.8872L14.121 7.23378L16.636 5.53642L15.7473 3.54876V3.5458ZM7.89444 11.3305C7.31977 10.9988 6.93468 10.5544 6.84877 10.0538C6.65327 8.90448 8.1018 7.88547 10.0835 7.77587C11.2003 7.71366 12.246 7.9536 12.9836 8.38016C13.5582 8.71193 13.9433 9.15627 14.0292 9.65688C14.2247 10.8062 12.7792 11.8252 10.7945 11.9348C9.6777 11.997 8.63204 11.7571 7.89444 11.3305ZM19.4205 18.7124L12.4089 14.6631L21.9473 13.1819L19.4205 18.7124ZM26.4321 13.9936L20.6439 10.6522L26.3965 7.3108L32.1847 10.6522L26.4321 13.9936Z" fill="#333333"/>
<path d="M37.8395 15.3354C37.8365 16.5055 37.8336 17.6756 37.8306 18.8427C37.8306 19.3344 37.5048 19.8291 36.859 20.2053L36.8679 16.698C37.5136 16.3218 37.8395 15.8301 37.8395 15.3354ZM0.0266113 18.8249L0.035498 15.3176C0.035498 15.8182 0.364306 16.3159 1.02488 16.698L1.016 20.2053C0.355419 19.8232 0.0266113 19.3255 0.0266113 18.8249Z" fill="#333333"/>
<path d="M36.868 16.6951L36.8591 20.2023L21.3548 29.2105L21.3637 25.7032L36.868 16.6951ZM16.63 25.7032L16.6211 29.2105L1.01611 20.2053L1.025 16.698C6.22668 19.7017 11.4432 22.6788 16.63 25.7062V25.7032ZM21.3637 25.7032L21.3548 29.2105C20.0514 29.9688 17.9334 29.9688 16.6211 29.2105L16.63 25.7032C17.9423 26.4615 20.0603 26.4615 21.3637 25.7032Z" fill="#333333"/>
<path d="M37.8395 21.5502C37.8365 22.7203 37.8336 23.8904 37.8306 25.0575C37.8306 25.5493 37.5048 26.0439 36.859 26.4202L36.8679 22.9129C37.5136 22.5367 37.8395 22.0449 37.8395 21.5502ZM0.0266113 25.0398L0.035498 21.5325C0.035498 22.0331 0.364306 22.5307 1.02488 22.9129L1.016 26.4202C0.355419 26.038 0.0266113 25.5404 0.0266113 25.0398Z" fill="#333333"/>
<path d="M36.868 22.9128L36.8591 26.4201L21.3548 35.4283L21.3637 31.921L36.868 22.9128ZM16.63 31.921L16.6211 35.4283L1.01611 26.4201L1.025 22.9128L16.63 31.921ZM21.3637 31.921L21.3548 35.4283C20.0514 36.1866 17.9334 36.1866 16.6211 35.4283L16.63 31.921C17.9423 32.6793 20.0603 32.6793 21.3637 31.921Z" fill="#333333"/>
<path d="M37.8099 10.9573L37.804 13.1049C37.804 13.1049 37.804 13.1227 37.804 13.1316L37.8099 10.9839C37.8099 10.9839 37.8099 10.9662 37.8099 10.9573Z" fill="#333333"/>
<path d="M37.807 10.9839L37.8011 13.1315C37.8011 13.1907 37.7922 13.25 37.7803 13.3092L37.7863 11.1616C37.7981 11.1024 37.804 11.0431 37.807 10.9839ZM37.7863 11.1587L37.7803 13.3063C37.7685 13.3655 37.7507 13.4218 37.73 13.4781L37.7359 11.3305C37.7566 11.2742 37.7744 11.2149 37.7863 11.1587Z" fill="#333333"/>
<path d="M37.7388 11.3335L37.7328 13.4811C37.7091 13.5404 37.6825 13.5996 37.6499 13.6559L37.6558 11.5083C37.6884 11.452 37.7151 11.3927 37.7388 11.3335Z" fill="#333333"/>
<path d="M37.6559 11.5083C37.6559 12.2252 37.6529 12.9391 37.6499 13.6559C37.6144 13.7211 37.5729 13.7803 37.5255 13.8396L37.5314 11.692C37.5759 11.6327 37.6174 11.5735 37.6559 11.5083ZM37.5314 11.692L37.5255 13.8396C37.4663 13.9136 37.4041 13.9818 37.3359 14.044L37.3419 11.8964C37.41 11.8341 37.4752 11.766 37.5314 11.692Z" fill="#333333"/>
<path d="M37.342 11.8962L37.336 14.0439C37.2264 14.1446 37.0961 14.2423 36.948 14.3312L36.9539 12.1836C37.102 12.0947 37.2324 11.997 37.342 11.8962Z" fill="#333333"/>
<path d="M36.9539 12.1836C36.9539 12.9005 36.9509 13.6144 36.9479 14.3312C36.9361 14.3401 36.9242 14.346 36.9094 14.3519L36.9153 12.2043C36.9153 12.2043 36.942 12.1895 36.9539 12.1836Z" fill="#333333"/>
<path d="M0.912367 12.2073L0.906443 14.3549C0.302148 14.0024 0 13.5433 0 13.0871L0.00592446 10.9395C0.00592446 11.3986 0.308072 11.8577 0.912367 12.2073Z" fill="#333333"/>
<path d="M36.9153 12.2073L36.9094 14.3549L21.1326 23.523L21.1385 21.3754C26.3965 18.3184 31.6574 15.2643 36.9153 12.2073Z" fill="#333333"/>
<path d="M16.7929 21.3754L16.787 23.523L0.906494 14.3549L0.912419 12.2073L16.7929 21.3754Z" fill="#333333"/>
<path d="M21.1386 21.3755L21.1327 23.5231C20.9283 23.6416 20.7002 23.7423 20.4602 23.8193L20.4662 21.6717C20.7061 21.5947 20.9342 21.494 21.1386 21.3755ZM20.4662 21.6717L20.4602 23.8193C20.2736 23.8786 20.0781 23.9289 19.8796 23.9645L19.8856 21.8169C20.0811 21.7813 20.2766 21.7339 20.4662 21.6717Z" fill="#333333"/>
<path d="M19.8826 21.8169L19.8767 23.9645C19.7493 23.9882 19.616 24.006 19.4857 24.0178L19.4916 21.8702C19.6249 21.8584 19.7552 21.8376 19.8826 21.8169ZM19.4916 21.8702L19.4857 24.0178C19.3731 24.0297 19.2605 24.0356 19.145 24.0415L19.1509 21.8939C19.2635 21.891 19.379 21.8821 19.4916 21.8702Z" fill="#333333"/>
<path d="M19.1509 21.894L19.145 24.0416C19.0413 24.0445 18.9346 24.0445 18.831 24.0416L18.8369 21.894C18.9406 21.894 19.0472 21.894 19.1509 21.894ZM18.8369 21.894L18.831 24.0416C18.7302 24.0416 18.6295 24.0327 18.5288 24.0268L18.5347 21.8792C18.6354 21.888 18.7362 21.894 18.8369 21.894Z" fill="#333333"/>
<path d="M18.5346 21.879L18.5287 24.0266C18.428 24.0178 18.3302 24.0059 18.2295 23.9941L18.2354 21.8464C18.3332 21.8612 18.4339 21.8701 18.5346 21.879Z" fill="#333333"/>
<path d="M18.2356 21.8465L18.2297 23.9942C18.129 23.9793 18.0253 23.9616 17.9246 23.9408L17.9305 21.7932C18.0312 21.8139 18.1319 21.8317 18.2356 21.8465Z" fill="#333333"/>
<path d="M17.9303 21.7931L17.9244 23.9407C17.8177 23.917 17.7111 23.8933 17.6044 23.8607L17.6104 21.7131C17.714 21.7427 17.8207 21.7694 17.9303 21.7901M17.6104 21.7101L17.6044 23.8578C17.4771 23.8222 17.3527 23.7807 17.2312 23.7304L17.2371 21.5828C17.3586 21.6302 17.483 21.6716 17.6104 21.7101Z" fill="#333333"/>
<path d="M17.2371 21.5888C17.2371 22.3056 17.2342 23.0195 17.2312 23.7364C17.0742 23.6742 16.9261 23.6031 16.7869 23.5231L16.7928 21.3755C16.932 21.4555 17.0801 21.5266 17.2371 21.5888Z" fill="#333333"/>
<path d="M36.9006 9.68947L21.0201 0.521361C19.8174 -0.174764 17.8712 -0.174764 16.6745 0.521361L0.89765 9.68947C-0.299091 10.3856 -0.293167 11.5112 0.912461 12.2074L16.793 21.3755C17.9956 22.0716 19.9418 22.0716 21.1386 21.3755C26.3965 18.3185 31.6575 15.2644 36.9154 12.2074C38.1122 11.5112 38.1062 10.3856 36.9006 9.68947ZM15.7473 3.5458L18.4311 4.39892L21.0971 2.82301L20.241 5.04765L22.7767 6.0637L19.5627 6.58505L18.4637 8.78895L17.3351 6.8872L14.121 7.23378L16.636 5.53642L15.7473 3.54876V3.5458ZM7.89444 11.3305C7.31977 10.9988 6.93468 10.5544 6.84877 10.0538C6.65327 8.90448 8.1018 7.88547 10.0835 7.77587C11.2003 7.71366 12.246 7.9536 12.9836 8.38016C13.5582 8.71193 13.9433 9.15627 14.0292 9.65688C14.2247 10.8062 12.7792 11.8252 10.7945 11.9348C9.6777 11.997 8.63204 11.7571 7.89444 11.3305ZM19.4205 18.7124L12.4089 14.6631L21.9473 13.1819L19.4205 18.7124ZM26.4321 13.9936L20.6439 10.6522L26.3965 7.3108L32.1847 10.6522L26.4321 13.9936Z" fill="#333333"/>
<path d="M37.8395 15.3354C37.8365 16.5055 37.8336 17.6756 37.8306 18.8427C37.8306 19.3344 37.5048 19.8291 36.859 20.2053L36.8679 16.698C37.5136 16.3218 37.8395 15.8301 37.8395 15.3354ZM0.0266113 18.8249L0.035498 15.3176C0.035498 15.8182 0.364306 16.3159 1.02488 16.698L1.016 20.2053C0.355419 19.8232 0.0266113 19.3255 0.0266113 18.8249Z" fill="#333333"/>
<path d="M36.868 16.6951L36.8591 20.2023L21.3548 29.2105L21.3637 25.7032L36.868 16.6951ZM16.63 25.7032L16.6211 29.2105L1.01611 20.2053L1.025 16.698C6.22668 19.7017 11.4432 22.6788 16.63 25.7062V25.7032ZM21.3637 25.7032L21.3548 29.2105C20.0514 29.9688 17.9334 29.9688 16.6211 29.2105L16.63 25.7032C17.9423 26.4615 20.0603 26.4615 21.3637 25.7032Z" fill="#333333"/>
<path d="M37.8395 21.5502C37.8365 22.7203 37.8336 23.8904 37.8306 25.0575C37.8306 25.5493 37.5048 26.0439 36.859 26.4202L36.8679 22.9129C37.5136 22.5367 37.8395 22.0449 37.8395 21.5502ZM0.0266113 25.0398L0.035498 21.5325C0.035498 22.0331 0.364306 22.5307 1.02488 22.9129L1.016 26.4202C0.355419 26.038 0.0266113 25.5404 0.0266113 25.0398Z" fill="#333333"/>
<path d="M36.868 22.9128L36.8591 26.4201L21.3548 35.4283L21.3637 31.921L36.868 22.9128ZM16.63 31.921L16.6211 35.4283L1.01611 26.4201L1.025 22.9128L16.63 31.921ZM21.3637 31.921L21.3548 35.4283C20.0514 36.1866 17.9334 36.1866 16.6211 35.4283L16.63 31.921C17.9423 32.6793 20.0603 32.6793 21.3637 31.921Z" fill="#333333"/>
<path d="M37.8099 10.9573L37.804 13.1049C37.804 13.1049 37.804 13.1227 37.804 13.1316L37.8099 10.9839C37.8099 10.9839 37.8099 10.9662 37.8099 10.9573Z" fill="#333333"/>
<path d="M37.807 10.9839L37.8011 13.1315C37.8011 13.1907 37.7922 13.25 37.7803 13.3092L37.7863 11.1616C37.7981 11.1024 37.804 11.0431 37.807 10.9839ZM37.7863 11.1587L37.7803 13.3063C37.7685 13.3655 37.7507 13.4218 37.73 13.4781L37.7359 11.3305C37.7566 11.2742 37.7744 11.2149 37.7863 11.1587Z" fill="#333333"/>
<path d="M37.7388 11.3335L37.7328 13.4811C37.7091 13.5404 37.6825 13.5996 37.6499 13.6559L37.6558 11.5083C37.6884 11.452 37.7151 11.3927 37.7388 11.3335Z" fill="#333333"/>
<path d="M37.6559 11.5083C37.6559 12.2252 37.6529 12.9391 37.6499 13.6559C37.6144 13.7211 37.5729 13.7803 37.5255 13.8396L37.5314 11.692C37.5759 11.6327 37.6174 11.5735 37.6559 11.5083ZM37.5314 11.692L37.5255 13.8396C37.4663 13.9136 37.4041 13.9818 37.3359 14.044L37.3419 11.8964C37.41 11.8341 37.4752 11.766 37.5314 11.692Z" fill="#333333"/>
<path d="M37.342 11.8962L37.336 14.0439C37.2264 14.1446 37.0961 14.2423 36.948 14.3312L36.9539 12.1836C37.102 12.0947 37.2324 11.997 37.342 11.8962Z" fill="#333333"/>
<path d="M36.9539 12.1836C36.9539 12.9005 36.9509 13.6144 36.9479 14.3312C36.9361 14.3401 36.9242 14.346 36.9094 14.3519L36.9153 12.2043C36.9153 12.2043 36.942 12.1895 36.9539 12.1836Z" fill="#333333"/>
<path d="M0.912367 12.2073L0.906443 14.3549C0.302148 14.0024 0 13.5433 0 13.0871L0.00592446 10.9395C0.00592446 11.3986 0.308072 11.8577 0.912367 12.2073Z" fill="#333333"/>
<path d="M36.9153 12.2073L36.9094 14.3549L21.1326 23.523L21.1385 21.3754C26.3965 18.3184 31.6574 15.2643 36.9153 12.2073Z" fill="#333333"/>
<path d="M16.7929 21.3754L16.787 23.523L0.906494 14.3549L0.912419 12.2073L16.7929 21.3754Z" fill="#333333"/>
<path d="M21.1386 21.3755L21.1327 23.5231C20.9283 23.6416 20.7002 23.7423 20.4602 23.8193L20.4662 21.6717C20.7061 21.5947 20.9342 21.494 21.1386 21.3755ZM20.4662 21.6717L20.4602 23.8193C20.2736 23.8786 20.0781 23.9289 19.8796 23.9645L19.8856 21.8169C20.0811 21.7813 20.2766 21.7339 20.4662 21.6717Z" fill="#333333"/>
<path d="M19.8826 21.8169L19.8767 23.9645C19.7493 23.9882 19.616 24.006 19.4857 24.0178L19.4916 21.8702C19.6249 21.8584 19.7552 21.8376 19.8826 21.8169ZM19.4916 21.8702L19.4857 24.0178C19.3731 24.0297 19.2605 24.0356 19.145 24.0415L19.1509 21.8939C19.2635 21.891 19.379 21.8821 19.4916 21.8702Z" fill="#333333"/>
<path d="M19.1509 21.894L19.145 24.0416C19.0413 24.0445 18.9346 24.0445 18.831 24.0416L18.8369 21.894C18.9406 21.894 19.0472 21.894 19.1509 21.894ZM18.8369 21.894L18.831 24.0416C18.7302 24.0416 18.6295 24.0327 18.5288 24.0268L18.5347 21.8792C18.6354 21.888 18.7362 21.894 18.8369 21.894Z" fill="#333333"/>
<path d="M18.5346 21.879L18.5287 24.0266C18.428 24.0178 18.3302 24.0059 18.2295 23.9941L18.2354 21.8464C18.3332 21.8612 18.4339 21.8701 18.5346 21.879Z" fill="#333333"/>
<path d="M18.2356 21.8465L18.2297 23.9942C18.129 23.9793 18.0253 23.9616 17.9246 23.9408L17.9305 21.7932C18.0312 21.8139 18.1319 21.8317 18.2356 21.8465Z" fill="#333333"/>
<path d="M17.9303 21.7931L17.9244 23.9407C17.8177 23.917 17.7111 23.8933 17.6044 23.8607L17.6104 21.7131C17.714 21.7427 17.8207 21.7694 17.9303 21.7901M17.6104 21.7101L17.6044 23.8578C17.4771 23.8222 17.3527 23.7807 17.2312 23.7304L17.2371 21.5828C17.3586 21.6302 17.483 21.6716 17.6104 21.7101Z" fill="#333333"/>
<path d="M17.2371 21.5888C17.2371 22.3056 17.2342 23.0195 17.2312 23.7364C17.0742 23.6742 16.9261 23.6031 16.7869 23.5231L16.7928 21.3755C16.932 21.4555 17.0801 21.5266 17.2371 21.5888Z" fill="#333333"/>
<path d="M36.9006 9.68947L21.0201 0.521361C19.8174 -0.174764 17.8712 -0.174764 16.6745 0.521361L0.89765 9.68947C-0.299091 10.3856 -0.293167 11.5112 0.912461 12.2074L16.793 21.3755C17.9956 22.0716 19.9418 22.0716 21.1386 21.3755C26.3965 18.3185 31.6575 15.2644 36.9154 12.2074C38.1122 11.5112 38.1062 10.3856 36.9006 9.68947ZM15.7473 3.5458L18.4311 4.39892L21.0971 2.82301L20.241 5.04765L22.7767 6.0637L19.5627 6.58505L18.4637 8.78895L17.3351 6.8872L14.121 7.23378L16.636 5.53642L15.7473 3.54876V3.5458ZM7.89444 11.3305C7.31977 10.9988 6.93468 10.5544 6.84877 10.0538C6.65327 8.90448 8.1018 7.88547 10.0835 7.77587C11.2003 7.71366 12.246 7.9536 12.9836 8.38016C13.5582 8.71193 13.9433 9.15627 14.0292 9.65688C14.2247 10.8062 12.7792 11.8252 10.7945 11.9348C9.6777 11.997 8.63204 11.7571 7.89444 11.3305ZM19.4205 18.7124L12.4089 14.6631L21.9473 13.1819L19.4205 18.7124ZM26.4321 13.9936L20.6439 10.6522L26.3965 7.3108L32.1847 10.6522L26.4321 13.9936Z" fill="#333333"/>
<path d="M52.6271 11.3777C53.1396 10.8179 53.7705 10.3795 54.4726 10.0921C55.1568 9.79886 55.8915 9.63594 56.635 9.61521C57.1741 9.56485 57.7073 9.73962 58.1161 10.0921C58.4183 10.3854 58.5841 10.7942 58.5664 11.2148C58.5693 11.6325 58.4064 12.0353 58.1161 12.3375C57.8317 12.6545 57.42 12.8322 56.9934 12.8203C55.145 12.9833 52.5797 14.8258 52.5797 17.3289V23.0104C52.556 23.8872 51.851 24.5893 50.9742 24.613C50.5358 24.6278 50.1151 24.4471 49.8278 24.1183C49.5256 23.8221 49.3509 23.4192 49.3479 22.9956V11.1467C49.3509 10.7231 49.5256 10.3202 49.8278 10.024C50.1803 9.76924 50.6009 9.63002 51.0334 9.62113C51.9102 9.6389 52.6182 10.3439 52.636 11.2207L52.6271 11.3777Z" fill="#333333"/>
<path d="M72.092 16.5915C72.092 16.9795 71.9498 17.3528 71.6921 17.6401C71.3841 17.9245 70.9871 18.0963 70.5694 18.12H61.0903C61.1792 18.8724 61.5465 19.5656 62.1182 20.0632C62.8499 20.8512 63.8541 21.334 64.9264 21.4169C66.0224 21.6036 67.151 21.3429 68.0545 20.6942C68.3715 20.3742 68.8099 20.1995 69.2601 20.2113C69.6482 20.1935 70.0244 20.3387 70.2999 20.6142C70.8301 21.1029 70.8657 21.9294 70.3799 22.4597C70.3562 22.4863 70.3295 22.51 70.3028 22.5367C68.8899 23.843 67.0148 24.5362 65.0923 24.4621C63.1135 24.5066 61.2147 23.686 59.8876 22.2167C58.528 20.783 57.7578 18.8902 57.7252 16.9144C57.6837 14.9267 58.4658 13.0101 59.8876 11.6179C61.1851 10.2049 63.0246 9.41695 64.9412 9.45249C66.8044 9.3814 68.6114 10.1131 69.9 11.4609C71.2596 12.7643 72.0654 14.5386 72.1542 16.4197V16.5767L72.095 16.5885L72.092 16.5915ZM64.953 12.3407C63.9548 12.3584 62.998 12.7287 62.2485 13.3863C61.6117 13.9225 61.1614 14.6482 60.9659 15.4599H69.3875C69.1505 14.6453 68.641 13.9373 67.9419 13.4574C67.0977 12.7791 66.0609 12.3821 64.9797 12.3288" fill="#333333"/>
<path d="M87.1846 22.8477C87.1609 23.7245 86.4588 24.4295 85.582 24.4532C84.8237 24.4236 84.172 23.9023 83.9765 23.1676C82.7827 24.0207 81.346 24.474 79.8797 24.4532C77.9424 24.474 76.0821 23.6919 74.7462 22.2878C73.348 20.8867 72.5897 18.9701 72.6578 16.9914C72.6459 15.0245 73.3924 13.1257 74.7462 11.6979C76.0732 10.2701 77.9306 9.45546 79.8797 9.44361C81.3194 9.42583 82.7264 9.87609 83.8876 10.7292V5.12171C83.8758 4.69515 84.0535 4.2834 84.3705 3.99903C84.6696 3.69095 85.0784 3.51618 85.508 3.51618C85.9345 3.50433 86.3463 3.68207 86.6306 3.99903C86.9357 4.29525 87.1076 4.69811 87.1135 5.12171V22.8477H87.1846ZM79.9715 21.2422C81.0528 21.2659 82.0836 20.7949 82.7768 19.9625C84.3705 18.3096 84.3705 15.691 82.7768 14.038C82.0629 13.2323 81.0468 12.7613 79.9715 12.7406C78.8844 12.7021 77.8447 13.179 77.1633 14.0262C75.5697 15.6791 75.5697 18.2977 77.1633 19.9506C77.8684 20.7653 78.8933 21.2333 79.9715 21.2303" fill="#333333"/>
<path d="M91.9271 5.12161V5.76737C91.9419 6.22652 91.7612 6.66789 91.4324 6.98781C91.1392 7.28404 90.7245 7.43215 90.3097 7.38771C89.8832 7.40253 89.4744 7.22775 89.19 6.9108C88.8671 6.59384 88.6924 6.15839 88.7072 5.70813V5.11568C88.7072 4.69208 88.8849 4.28626 89.19 3.993C89.4833 3.68789 89.8861 3.51608 90.3097 3.51015C90.7363 3.50423 91.1451 3.68196 91.4324 3.99892C91.7553 4.2833 91.933 4.69208 91.9242 5.12161M89.2196 10.0182C89.5129 9.71307 89.9187 9.53829 90.3423 9.53533C90.7689 9.52052 91.1806 9.69825 91.465 10.0182C91.7731 10.3351 91.939 10.7617 91.9242 11.2031V22.9365C91.9508 23.369 91.7672 23.7866 91.4324 24.0592C91.1392 24.3643 90.7363 24.5361 90.3127 24.542C89.8861 24.5538 89.4744 24.3761 89.19 24.0592C88.8849 23.7659 88.7101 23.3601 88.7072 22.9365V11.2149C88.6953 10.7706 88.8701 10.3411 89.19 10.03" fill="#333333"/>
<path d="M103.305 11.1408C103.634 11.3659 103.865 11.7095 103.948 12.1005C104.013 12.5093 103.957 12.927 103.788 13.3032C103.557 13.6291 103.213 13.8572 102.825 13.9431C102.407 14.0201 101.975 13.9342 101.62 13.7031C100.497 12.9833 99.62 12.5834 98.8943 12.5834C98.2544 12.5419 97.6205 12.7404 97.1169 13.1403C96.797 13.3832 96.637 13.5432 96.637 13.7031C96.6133 13.8423 96.643 13.9845 96.717 14.106C96.8088 14.2037 96.9155 14.2867 97.0369 14.3459C97.6916 14.7577 98.4351 15.0035 99.2053 15.0657C100.204 15.2316 101.172 15.5278 102.091 15.9544C102.899 16.2921 103.575 16.8846 104.016 17.6429C105.213 19.4913 104.685 21.9589 102.837 23.1586C102.828 23.1645 102.819 23.1704 102.813 23.1734C101.691 23.9761 100.343 24.3968 98.9624 24.376C97.1169 24.376 95.3544 23.6562 93.6689 22.3025C93.3638 22.0329 93.1623 21.6626 93.1061 21.2568C93.029 20.4096 93.6511 19.6602 94.4983 19.5802C94.8923 19.5446 95.2833 19.6602 95.5943 19.906C96.48 20.7473 97.662 21.2094 98.8824 21.1887C99.5933 21.2124 100.292 21.0169 100.888 20.6259C101.208 20.3059 101.451 20.066 101.451 19.8231C101.451 19.5802 101.451 19.5032 101.371 19.4232C101.371 19.3402 101.208 19.1832 100.968 19.1033C100.236 18.65 99.4126 18.3627 98.5595 18.2561C97.6057 18.1198 96.6844 17.8177 95.8343 17.3674C95.0552 16.9882 94.3917 16.4076 93.9088 15.6878C93.5919 15.125 93.4289 14.4881 93.4319 13.8423C93.4319 12.5182 94.0925 11.283 95.1944 10.5513C96.2816 9.81074 97.5672 9.41973 98.8824 9.42861C100.233 9.51156 101.691 10.0685 103.293 11.1141" fill="#333333"/>
</g>
<defs>
<clipPath id="clip0_7_161">
<rect width="104.659" height="36" fill="white"/>
</clipPath>
</defs>
</svg>
