<svg width="124" height="36" viewBox="0 0 124 36" fill="none" xmlns="http://www.w3.org/2000/svg">
<g clip-path="url(#clip0_7_232)">
<path d="M66.0878 27.7008H59.5096C58.0385 25.4248 56.7339 23.4264 55.5404 21.761C54.3747 20.0956 53.0979 18.3747 51.71 16.5983H49.212V24.3701C49.212 24.7864 49.2675 25.1195 49.4063 25.4526C49.545 25.7579 49.7948 25.9799 50.2112 26.1465C50.4055 26.2297 50.7941 26.313 51.2937 26.3685C51.8211 26.424 52.2374 26.4796 52.5982 26.4796V27.7008H42.2451V26.4796C42.5227 26.4518 42.9113 26.424 43.4386 26.3685C43.966 26.313 44.3268 26.2297 44.5489 26.1465C44.882 26.0077 45.1318 25.7856 45.2983 25.4803C45.4649 25.2028 45.5481 24.8142 45.5481 24.3701V6.66152C45.5481 6.24517 45.4926 5.91209 45.3816 5.57902C45.2706 5.2737 44.993 5.02389 44.5767 4.88511C44.2991 4.77408 43.9105 4.69081 43.4664 4.60754C42.9945 4.52428 42.6059 4.46876 42.3006 4.44101V3.21973H53.5975C54.6245 3.21973 55.5959 3.33075 56.5119 3.5528C57.4279 3.7471 58.2328 4.10793 58.9822 4.57979C59.7039 5.05165 60.259 5.63453 60.7031 6.38395C61.1194 7.13337 61.3415 8.02158 61.3415 9.04856C61.3415 9.99228 61.2027 10.825 60.8974 11.5466C60.6198 12.2683 60.1757 12.9067 59.6206 13.4341C59.0932 13.9337 58.4826 14.35 57.7609 14.7386C57.0393 15.0994 56.2343 15.4048 55.3739 15.6546C56.5952 17.2644 57.5944 18.5968 58.3716 19.6792C59.1765 20.7617 60.148 22.0941 61.3137 23.6762C61.8134 24.3701 62.2852 24.8697 62.6738 25.2028C63.0901 25.5358 63.5065 25.7856 63.8951 26.0077C64.2004 26.1465 64.5612 26.2853 65.0053 26.3408C65.4494 26.424 65.838 26.4796 66.1156 26.4796V27.7008H66.0878ZM57.0115 9.43715C57.0115 7.96606 56.5952 6.77254 55.7347 5.91209C54.8743 5.05165 53.6807 4.60754 52.1264 4.60754H49.1842V15.1272H51.4325C53.0146 15.1272 54.3469 14.6276 55.4016 13.6006C56.4841 12.5736 57.0115 11.1858 57.0115 9.43715Z" fill="#333333"/>
<path d="M84.7957 27.3955L79.2444 27.7841L78.9946 27.5343V25.3693H78.8836C78.606 25.6468 78.3007 25.9799 77.9399 26.313C77.6068 26.6461 77.1905 26.9236 76.7464 27.2012C76.219 27.5065 75.7194 27.7563 75.2475 27.8951C74.7757 28.0616 74.0818 28.1449 73.1936 28.1449C71.6947 28.1449 70.5289 27.6453 69.7518 26.6738C68.9746 25.6746 68.586 24.259 68.586 22.3716V14.2112C68.586 13.7949 68.5027 13.4618 68.3362 13.1842C68.1974 12.9067 67.9754 12.6569 67.67 12.4348C67.4757 12.296 67.1982 12.2128 66.8929 12.1295C66.5875 12.074 66.2545 12.0185 65.9214 11.9907V10.8805L71.5837 10.4641L71.8335 10.7139V22.5381C71.8335 23.7594 72.1111 24.7031 72.6662 25.3138C73.2213 25.9244 73.8875 26.2575 74.6369 26.2575C75.2753 26.2575 75.8304 26.1465 76.33 25.9522C76.8296 25.7579 77.246 25.5358 77.5791 25.2583C77.8844 25.0084 78.1619 24.7586 78.384 24.5088C78.6338 24.2313 78.8003 23.9815 78.9391 23.7594V14.1002C78.9391 13.7116 78.8559 13.3785 78.6893 13.101C78.5228 12.7956 78.3007 12.5458 78.0232 12.3515C77.8289 12.2128 77.4958 12.1295 77.0794 12.1017C76.6631 12.074 76.219 12.0462 75.7194 12.0185V10.9082L81.9091 10.4919L82.1589 10.7417V24.259C82.1589 24.6476 82.2421 24.9807 82.4087 25.2583C82.5752 25.5358 82.7973 25.7579 83.0748 25.9522C83.2691 26.0909 83.5189 26.1742 83.8242 26.202C84.1018 26.2297 84.4349 26.2575 84.768 26.2575V27.3955" fill="#333333"/>
<path d="M104.197 19.1797C104.197 21.7333 103.392 23.8705 101.783 25.6192C100.173 27.3678 98.313 28.2283 96.1757 28.2283C95.232 28.2283 94.316 28.0895 93.4278 27.7842C92.5396 27.5066 91.6792 27.118 90.902 26.6184L89.6252 28.5891L88.5427 28.3393C88.5982 27.4788 88.6537 26.4519 88.6537 25.2583C88.6815 24.0648 88.6815 22.899 88.6815 21.7888V4.99618C88.6815 4.60759 88.5982 4.21901 88.4039 3.83042C88.2374 3.44183 88.0153 3.16426 87.7378 2.99773C87.5157 2.85894 87.1549 2.74792 86.6275 2.66465C86.1279 2.58138 85.7116 2.52587 85.4062 2.49811V1.38786L91.6514 0.999268L91.9012 1.24907V12.4626L92.0123 12.4904C92.7339 11.741 93.5111 11.1581 94.3438 10.7695C95.2042 10.3809 96.0369 10.1866 96.8419 10.1866C98.9236 10.1866 100.672 11.0193 102.088 12.6847C103.503 14.3501 104.197 16.5151 104.197 19.1797ZM100.589 19.2907C100.589 18.4303 100.506 17.5698 100.311 16.6816C100.117 15.7934 99.8396 15.0162 99.451 14.3778C99.0624 13.7117 98.535 13.1566 97.9244 12.768C97.286 12.3516 96.5365 12.1573 95.6483 12.1573C94.8434 12.1573 94.1495 12.3239 93.5389 12.6292C92.9282 12.9345 92.4009 13.3786 91.929 13.906V23.815C91.9845 24.0926 92.1233 24.4256 92.3176 24.7865C92.5119 25.1473 92.7894 25.5081 93.1503 25.8412C93.4833 26.1743 93.8997 26.4241 94.316 26.6461C94.7601 26.8404 95.2875 26.9515 95.9259 26.9515C97.3415 26.9515 98.4517 26.2853 99.3122 24.9253C100.173 23.5097 100.589 21.65 100.589 19.2907Z" fill="#333333"/>
<path d="M105.447 33.252C105.447 32.6692 105.613 32.1973 105.918 31.8365C106.251 31.4756 106.64 31.3091 107.112 31.3091C107.473 31.3091 107.806 31.3646 108.056 31.5034C108.333 31.6422 108.555 31.8087 108.75 32.0308C108.916 32.1973 109.11 32.4471 109.305 32.7247C109.499 33.03 109.665 33.2798 109.777 33.4741C110.359 33.1688 111.026 32.3638 111.83 31.0315C112.635 29.727 113.218 28.5612 113.579 27.5898C112.497 24.8696 111.497 22.4271 110.609 20.2621C109.721 18.1248 108.805 15.8766 107.834 13.5728C107.612 13.0454 107.251 12.6291 106.723 12.3515C106.196 12.0462 105.696 11.8519 105.169 11.7686V10.6306H112.941V11.8519C112.608 11.8519 112.191 11.9352 111.692 12.0739C111.22 12.2127 110.97 12.3793 110.97 12.6013C110.97 12.6013 110.998 12.6846 111.053 12.8511C111.109 13.0177 111.192 13.1842 111.22 13.3507C111.664 14.4887 112.33 16.1264 113.218 18.2914C114.106 20.4286 114.8 22.1495 115.3 23.4263C115.827 22.205 116.355 20.9282 116.91 19.6237C117.465 18.2914 118.103 16.737 118.797 14.9606C118.881 14.7386 118.992 14.4332 119.13 14.0724C119.269 13.6838 119.352 13.3507 119.352 13.0732C119.352 12.7679 119.075 12.4903 118.548 12.2405C118.02 11.9629 117.548 11.8241 117.076 11.7686V10.6584H123.377V11.7409C123.044 11.7964 122.572 11.9907 122.017 12.3515C121.462 12.6846 121.046 13.1564 120.768 13.7948C119.408 16.9591 118.187 19.8735 117.104 22.4826C116.049 25.0917 115.245 27.0069 114.689 28.2559C113.968 29.8658 113.302 31.1148 112.746 32.003C112.191 32.919 111.636 33.6129 111.081 34.1403C110.554 34.6121 110.082 34.9452 109.638 35.1117C109.221 35.2783 108.777 35.3615 108.305 35.3615C107.417 35.3615 106.696 35.1395 106.196 34.7231C105.696 34.279 105.447 33.8072 105.447 33.252Z" fill="#333333"/>
<path d="M19.7536 0.284225C19.6115 0.284225 19.4694 0.426338 19.3273 0.426338L12.2216 2.98436C12.0795 2.98436 12.0795 3.12648 11.9374 3.12648L5.11601 9.80577L4.97389 9.94788L0.426292 17.7641C0.426292 17.7641 0.426292 17.9062 0.28418 17.9062V18.0483V27.5698C0.28418 27.5698 0.28418 27.5698 0.28418 27.712C0.28418 27.8541 0.28418 27.8541 0.28418 27.9962C0.426292 31.4069 1.84742 33.2543 3.41066 34.2491C4.97389 35.1018 6.67925 35.2439 7.67403 35.2439C7.81615 35.2439 7.81615 35.2439 7.95826 35.2439H8.10037H8.24248L32.9701 33.5386H33.1122C33.2543 33.5386 33.2543 33.5386 33.3964 33.3965C33.3964 33.3965 33.5385 33.3965 33.5385 33.2543C33.8227 33.1122 33.8227 32.828 33.8227 32.5438L35.6702 8.38464L35.8123 7.53197C35.8123 7.38985 35.8123 7.38985 35.8123 7.24774C35.8123 6.39507 35.6702 5.6845 35.5281 4.97394C34.9596 2.70014 33.1122 0.710563 29.8436 0.142113H29.7015L20.3221 0C20.0378 0.284225 19.8957 0.284225 19.7536 0.284225C19.8957 0.284225 19.8957 0.284225 19.7536 0.284225ZM22.5959 1.84746H26.575L24.3012 3.12648L22.5959 1.84746ZM19.8957 1.98958L23.4485 4.40549L20.8905 12.3638L11.369 21.1748L3.69488 22.8801L1.84742 18.3325L6.25291 10.8006L13.0743 4.5476L19.8957 1.98958ZM29.5594 1.98958C32.2595 2.55803 33.3964 3.83704 33.8227 5.6845C34.2491 7.24774 33.9649 8.95309 33.5385 10.6584L25.5802 4.12126L29.5594 1.98958ZM24.7275 5.40028L31.9753 11.369L22.738 12.0796L24.7275 5.40028ZM32.9701 12.9322C31.4068 17.3377 28.5646 21.0327 25.296 24.4434L22.5959 13.5007L32.9701 12.9322ZM21.1747 14.2113L23.8749 24.8697L13.3585 21.459L21.1747 14.2113ZM33.5385 15.6324L32.4016 31.549L26.1487 26.0066C28.9909 22.8801 31.6911 19.4694 33.5385 15.6324ZM1.70531 22.1696L2.41587 23.7328L1.70531 25.0118V22.1696ZM12.3637 22.8801L23.3064 26.4329C19.1852 30.1279 14.7797 32.9701 9.09516 33.8228L12.3637 22.8801ZM10.8005 22.8801L7.81615 32.6859L4.26333 24.4434L10.8005 22.8801ZM3.12643 25.5803L6.82136 34.107C5.96868 33.9649 5.11601 33.8228 4.26333 33.3965C2.98432 32.6859 1.98953 31.4069 1.84742 28.2804L3.12643 25.5803ZM25.0118 27.0014L31.2647 32.5438L15.6323 33.5386C19.043 31.9753 22.1695 29.7015 25.0118 27.0014Z" fill="#333333"/>
</g>
<defs>
<clipPath id="clip0_7_232">
<rect width="124" height="36" fill="white"/>
</clipPath>
</defs>
</svg>
