<svg width="97" height="36" viewBox="0 0 97 36" fill="none" xmlns="http://www.w3.org/2000/svg">
<g clip-path="url(#clip0_7_240)">
<path d="M16.6598 1.7898C16.519 1.80388 16.3782 1.81796 16.2374 1.83204L15.0124 0.522606C14.8153 0.311407 14.4915 0.297327 14.2803 0.494446C14.2239 0.550766 14.1817 0.621166 14.1535 0.691566L13.5199 2.36708C13.3932 2.40932 13.2524 2.45156 13.1257 2.4938L11.6755 1.4378C11.4502 1.26884 11.1263 1.32516 10.9574 1.55044C10.9151 1.62084 10.8729 1.69124 10.8729 1.77572L10.5772 3.54979C10.4505 3.60611 10.3379 3.67651 10.2111 3.74691L8.57787 3.00068C8.50747 2.97252 8.43707 2.95844 8.36667 2.95844C8.08508 2.95844 7.84572 3.1978 7.84572 3.47939V3.49347L7.91612 5.28163C7.80348 5.36611 7.70492 5.45059 7.60636 5.53507L5.84636 5.12675C5.56477 5.05635 5.29725 5.23939 5.22685 5.52099C5.21277 5.59139 5.21277 5.67587 5.22685 5.74627L5.63517 7.50626C5.55069 7.60482 5.46621 7.71746 5.38173 7.81602L3.57949 7.7597H3.55133C3.26973 7.7597 3.04446 7.98498 3.03038 8.26658C3.03038 8.33698 3.04445 8.40738 3.07261 8.47778L3.83293 10.1251C3.76253 10.2518 3.70621 10.3645 3.63581 10.4912L1.86174 10.7728C1.58014 10.815 1.3971 11.0826 1.43934 11.3642C1.45342 11.4486 1.48158 11.519 1.52382 11.5754L2.56574 13.0397C2.5235 13.1805 2.48126 13.3072 2.43902 13.4339L0.763504 14.0675C0.495985 14.1661 0.369265 14.4618 0.467825 14.7293C0.495985 14.7997 0.538224 14.8701 0.594544 14.9264L1.90398 16.1513C1.8899 16.2921 1.87582 16.4329 1.86174 16.5737L0.341105 17.5171C0.101746 17.672 0.0313462 17.9817 0.172146 18.2211C0.214386 18.2915 0.270705 18.3478 0.341105 18.3901L1.86174 19.3334C1.87582 19.4742 1.8899 19.615 1.90398 19.7558L0.594544 20.9808C0.383345 21.1779 0.369265 21.5017 0.566384 21.7129C0.622704 21.7692 0.693104 21.8115 0.763504 21.8396L2.43902 22.4732C2.48126 22.614 2.5235 22.7408 2.56574 22.8675L1.52382 24.3318C1.35486 24.5571 1.41118 24.8809 1.63646 25.0499C1.70686 25.0921 1.77726 25.1344 1.86174 25.1344L3.63581 25.43C3.69213 25.5567 3.76253 25.6694 3.83293 25.7961L3.0867 27.4294C2.97406 27.6828 3.08669 27.9926 3.34013 28.1052C3.41053 28.1334 3.48093 28.1475 3.55133 28.1475H3.56541L5.36765 28.0771C5.45213 28.1897 5.53661 28.2883 5.62109 28.3868L5.22685 30.1609C5.15645 30.4425 5.33949 30.71 5.62109 30.7804C5.69149 30.7945 5.77597 30.7945 5.86044 30.7804L7.62044 30.3721C7.719 30.4566 7.83164 30.5411 7.9302 30.6255L7.87388 32.4278V32.4418C7.87388 32.7234 8.09916 32.9487 8.38076 32.9487C8.45116 32.9487 8.53564 32.9346 8.59195 32.9065L10.2252 32.1602C10.3519 32.2306 10.4646 32.287 10.5913 32.3574L10.887 34.1314C10.9292 34.413 11.1967 34.6102 11.4783 34.5538C11.5628 34.5398 11.6332 34.5116 11.6895 34.4694L13.1539 33.4274C13.2806 33.4697 13.4214 33.5119 13.5481 33.5542L14.1817 35.2297C14.2803 35.4972 14.5759 35.638 14.8435 35.5254C14.9139 35.4972 14.9843 35.455 15.0406 35.3986L16.2655 34.0892C16.4063 34.1033 16.5471 34.1174 16.6879 34.1314L17.6313 35.6521C17.7862 35.8914 18.0959 35.9618 18.3353 35.821C18.4057 35.7788 18.462 35.7225 18.5042 35.6521L19.4476 34.1314C19.5884 34.1174 19.7292 34.1033 19.87 34.0892L21.0949 35.3986C21.2217 35.5254 21.3906 35.5817 21.5737 35.5535C21.7426 35.5254 21.8975 35.3986 21.9538 35.2297L22.5593 33.5401C22.686 33.4978 22.8268 33.4556 22.9535 33.4134L24.4178 34.4553C24.6431 34.6242 24.9669 34.5679 25.1359 34.3286C25.1781 34.2582 25.2063 34.1878 25.2204 34.1174L25.5161 32.3433C25.6428 32.2729 25.7554 32.2166 25.8821 32.1462L27.5154 32.8924C27.5858 32.9206 27.6562 32.9346 27.7266 32.9346C28.0082 32.9346 28.2335 32.7094 28.2335 32.4278V32.4137L28.1631 30.6115C28.2757 30.527 28.3743 30.4425 28.4728 30.358L30.2328 30.7663C30.5144 30.8367 30.782 30.6537 30.8524 30.3721C30.8664 30.3017 30.8664 30.2172 30.8524 30.1468L30.444 28.3868C30.5285 28.2883 30.613 28.1756 30.6975 28.0771L32.4997 28.1475H32.5138C32.7954 28.1475 33.0347 27.9222 33.0347 27.6265C33.0347 27.5561 33.0207 27.4857 32.9925 27.4153L32.2463 25.782C32.3167 25.6553 32.373 25.5427 32.4434 25.416L34.2175 25.1203C34.4991 25.078 34.6962 24.8105 34.6399 24.5289C34.6258 24.4585 34.5976 24.374 34.5554 24.3177L33.5135 22.8534C33.5557 22.7267 33.5979 22.5859 33.6402 22.4592L35.3157 21.8256C35.5832 21.727 35.724 21.4313 35.6114 21.1638C35.5832 21.0934 35.541 21.023 35.4847 20.9667L34.1752 19.7417C34.1893 19.6009 34.2034 19.4601 34.2175 19.3193L35.7381 18.376C35.9775 18.2211 36.0479 17.9113 35.9071 17.672C35.8648 17.6016 35.8085 17.5453 35.7381 17.503L34.2175 16.5597C34.2034 16.4189 34.1893 16.2781 34.1752 16.1373L35.4847 14.9123C35.6959 14.7152 35.6959 14.3914 35.5128 14.1802C35.4565 14.1238 35.3861 14.0816 35.3157 14.0534L33.6402 13.4198C33.5979 13.279 33.5557 13.1523 33.5135 13.0256L34.5554 11.5613C34.7243 11.336 34.668 11.0122 34.4427 10.8432C34.3723 10.801 34.3019 10.7587 34.2315 10.7587L32.4575 10.463C32.3871 10.3363 32.3307 10.2237 32.2603 10.097L33.0066 8.4637C33.0347 8.3933 33.0488 8.3229 33.0488 8.2525C33.0488 7.9709 32.8235 7.74562 32.5419 7.74562H32.5279L30.7256 7.80194C30.6412 7.6893 30.5567 7.59074 30.4722 7.49218L30.8805 5.73219C30.9509 5.45059 30.7679 5.18307 30.4863 5.11267C30.4159 5.09859 30.3314 5.09859 30.261 5.11267L28.501 5.53507C28.4024 5.45059 28.2898 5.36611 28.1912 5.28163L28.2616 3.47939V3.46531C28.2616 3.18372 28.0364 2.94436 27.7407 2.94436C27.6703 2.94436 27.5999 2.95844 27.5295 2.9866L25.8962 3.73283C25.7695 3.66243 25.6569 3.60611 25.5301 3.53571L25.2345 1.76164C25.1922 1.48004 24.9247 1.28292 24.6431 1.33924C24.5586 1.35332 24.4882 1.38148 24.4319 1.42372L22.9676 2.46564C22.8409 2.4234 22.7001 2.38116 22.5733 2.33892L21.9397 0.663406C21.8412 0.395887 21.5455 0.255087 21.278 0.367727C21.2076 0.395887 21.1372 0.438127 21.0809 0.494446L19.8559 1.80388C19.7151 1.7898 19.5743 1.77572 19.4335 1.76164L18.4902 0.241007C18.3353 0.0016483 18.0255 -0.0687514 17.7862 0.0720481C17.7158 0.114288 17.6594 0.170608 17.6172 0.241007C17.6031 0.255087 16.6598 1.7898 16.6598 1.7898ZM15.0687 19.1645H18.462C18.7718 19.1645 20.1234 19.2489 20.5458 20.9808C20.6725 21.5158 20.9823 23.2336 21.1794 23.7827C21.3765 24.4022 22.2073 25.6412 23.0802 25.6412H28.6277C28.2616 26.134 27.8533 26.6127 27.4168 27.0492L25.1641 26.5705C24.6431 26.4579 24.1221 26.7958 24.0095 27.3167L23.4745 29.823C19.9826 31.3999 15.9839 31.3858 12.5203 29.7667L11.9852 27.2604C11.8726 26.7395 11.3516 26.4015 10.8307 26.5142L8.62011 26.9929C8.2118 26.5705 7.83164 26.1199 7.47964 25.6412H18.2086C18.3353 25.6412 18.4057 25.6271 18.4057 25.5004V21.6988C18.4057 21.5862 18.3212 21.558 18.2086 21.558H15.0687C15.0687 21.5721 15.0687 19.1645 15.0687 19.1645ZM25.9244 27.9081C26.5016 27.9222 26.9522 28.4009 26.9663 28.9782C26.9663 29.5695 26.4876 30.0483 25.8962 30.0483C25.3049 30.0483 24.8402 29.5695 24.8261 28.9782C24.8261 28.3868 25.3049 27.9222 25.8962 27.9081H25.9244ZM10.1126 27.8659C10.6899 27.8799 11.1404 28.3587 11.1545 28.9359C11.1545 29.5273 10.6758 29.9919 10.0844 30.006C9.49307 30.006 9.02843 29.5273 9.01435 28.9359C9.01435 28.3446 9.49307 27.8799 10.0844 27.8659H10.1126ZM93.2969 10.5053H88.5661V11.505C88.5661 12.4624 88.0592 13.1382 86.8765 13.1382V16.799H87.8621V20.84C87.8621 24.6275 89.608 25.8524 92.607 25.8524C94.7753 25.8524 96.4368 25.1766 96.4368 25.1766V21.6707C96.4368 21.6707 95.4089 21.8678 94.5782 21.8678C93.7334 21.8678 93.2828 21.4454 93.2828 20.4457V16.7849H96.296V13.1242H93.2828L93.2969 10.5053ZM75.6407 25.1625C75.6407 25.1625 77.6259 25.8524 81.0192 25.8524C84.8771 25.8524 86.6371 24.2192 86.6371 21.5721C86.6371 18.9814 85.032 17.7424 81.5965 17.3763C80.2166 17.2355 79.9069 17.0806 79.9069 16.7286C79.9069 16.3766 80.4138 16.1936 81.6246 16.1936C83.455 16.1936 85.8627 16.5033 85.8627 16.5033V13.4902C85.8627 13.4902 84.1027 12.8144 80.6813 12.8144C76.6263 12.8144 74.993 14.5744 74.993 16.8976C74.993 19.3897 76.8656 20.7132 79.9632 21.1356C81.3712 21.3328 81.681 21.4736 81.681 21.8678C81.681 22.2198 81.3853 22.4451 80.0759 22.4451C78.4285 22.4451 75.6407 22.0368 75.6407 22.0368V25.1625ZM65.9396 13.1382H59.8289V16.799H60.8145V20.4598C60.8145 24.191 62.3351 25.8524 64.7569 25.8524C66.7703 25.8524 67.8122 24.7401 68.5303 24.022V25.5427H74.641V21.8819H73.6554V13.1382H67.3194V16.799H68.5162V20.4598C68.5162 21.4595 68.0657 21.8819 67.2209 21.8819C66.3761 21.8819 65.9255 21.4595 65.9255 20.4598L65.9396 13.1382ZM50.3531 18.2352C52.1976 18.2352 52.9579 18.5309 52.9579 20.3049V25.5427H60.026V21.8819H58.9841V20.1641C58.9841 18.6013 58.266 17.7565 56.8439 17.5312L56.8158 17.3059C58.3364 16.7286 59.139 15.1658 59.139 13.2086C59.139 9.53377 56.8862 8.19618 53.2254 8.19618H42.764V11.857H44.1016V21.896H42.764V25.5568H51.8174V21.896H50.339C50.3531 21.8819 50.3531 18.2352 50.3531 18.2352ZM20.4614 4.92963C24.2489 5.64771 27.5436 7.98498 29.4584 11.336L28.1912 14.1802C27.98 14.673 28.1912 15.2502 28.684 15.4614L31.1058 16.5315C31.1762 17.2918 31.1903 18.0521 31.1339 18.8125H29.7823C29.6415 18.8125 29.5992 18.8969 29.5992 19.0377V19.6573C29.5992 21.1075 28.7826 21.4313 28.0504 21.5158C27.3605 21.6003 26.6002 21.2342 26.5016 20.8118C26.0933 18.5309 25.4175 18.0521 24.3615 17.2073C25.685 16.3625 27.0508 15.1235 27.0508 13.4762C27.0508 11.688 25.8258 10.5616 24.9951 10.0125C23.8265 9.23809 22.517 9.08321 22.1791 9.08321H8.23996C10.1689 6.92898 12.7455 5.47875 15.5897 4.94371L17.2511 6.64738C17.6172 7.04162 18.2367 7.0557 18.6169 6.67554L20.4614 4.92963ZM7.2966 13.0538H9.15515V21.4313H5.40989C4.94525 19.7981 4.80445 18.0944 4.98749 16.4189L7.28252 15.391C7.77532 15.1798 8.0006 14.6026 7.77532 14.1098C7.77532 14.1098 7.2966 13.0538 7.2966 13.0538ZM15.0687 13.1382H19.5039C19.7292 13.1382 21.1231 13.4058 21.1231 14.4477C21.1231 15.3066 20.053 15.6163 19.1801 15.6163H15.0687V13.1382ZM50.3531 15.5037V11.857H51.5499C52.3947 11.857 52.8452 12.2794 52.8452 13.279V14.0816C52.8452 15.0813 52.3947 15.5037 51.5499 15.5037H50.3531ZM30.7397 12.8707C31.317 12.8848 31.7675 13.3635 31.7816 13.9408C31.7816 14.5322 31.3029 14.9968 30.7116 15.0109C30.1202 15.0109 29.6556 14.5322 29.6415 13.9408C29.6415 13.3494 30.1202 12.8707 30.7116 12.8707H30.7397ZM5.28317 12.8285C5.86044 12.8426 6.311 13.3213 6.32508 13.8986C6.32508 14.4899 5.84636 14.9546 5.25501 14.9686C4.66365 14.9686 4.19901 14.4899 4.18493 13.8986C4.18493 13.3072 4.66365 12.8426 5.25501 12.8285H5.28317ZM18.0255 3.16964C18.6028 3.18372 19.0534 3.66243 19.0674 4.23971C19.0674 4.83107 18.5887 5.30979 17.9974 5.30979C17.406 5.30979 16.9414 4.83107 16.9273 4.23971C16.9273 3.64835 17.406 3.16964 17.9974 3.16964C17.9833 3.16964 18.0255 3.16964 18.0255 3.16964Z" fill="#333333"/>
</g>
<defs>
<clipPath id="clip0_7_240">
<rect width="97" height="36" fill="white"/>
</clipPath>
</defs>
</svg>
