<svg width="86" height="36" viewBox="0 0 86 36" fill="none" xmlns="http://www.w3.org/2000/svg">
<g clip-path="url(#clip0_7_243)">
<path d="M1.9314 25.4759C2.28614 25.4759 2.54891 25.4759 2.79855 25.4759C5.88614 25.4759 8.97373 25.4627 12.0613 25.489C12.6131 25.489 12.9153 25.3051 13.1781 24.819C14.7548 21.9679 16.3708 19.1299 17.9606 16.2919C18.0788 16.0949 18.1971 15.8978 18.3548 15.635C18.4993 15.8715 18.6175 16.0423 18.7226 16.2263C20.3518 19.1168 21.981 22.0204 23.6234 24.9109C23.8204 25.2525 23.8467 25.5022 23.6365 25.8569C21.9548 28.8 20.2993 31.7562 18.6438 34.7255C18.4467 35.0671 18.2496 35.2248 17.8292 35.2248C14.5051 35.2117 11.1679 35.2248 7.84381 35.1985C7.59417 35.1985 7.23943 35.0277 7.12118 34.8306C5.41315 31.8481 3.74454 28.8525 2.06278 25.8569C2.06278 25.7912 2.03651 25.6992 1.9314 25.4759Z" fill="#333333"/>
<path d="M7.2525 20.3781C7.10798 20.1679 7.00287 20.0102 6.9109 19.8394C5.26856 16.9226 3.62623 14.0058 1.98389 11.0891C1.78681 10.7475 1.77367 10.4978 1.97075 10.1431C3.6525 7.20001 5.30798 4.2438 6.96345 1.27446C7.14739 0.932856 7.35761 0.78833 7.76491 0.78833C11.089 0.801469 14.4262 0.78833 17.7503 0.814607C17.9868 0.814607 18.3284 0.945994 18.4335 1.12994C20.1416 4.11242 21.8102 7.10804 23.4919 10.1037C23.5445 10.1956 23.5707 10.3007 23.6364 10.4847C23.3211 10.4978 23.0715 10.5241 22.8087 10.5241C19.7211 10.5241 16.6335 10.5372 13.5459 10.511C12.9941 10.511 12.6919 10.6949 12.416 11.181C10.8394 14.0321 9.22331 16.8701 7.63352 19.708C7.52841 19.9183 7.41017 20.1153 7.2525 20.3781Z" fill="#333333"/>
<path d="M81.4072 17.3694C82.0116 16.0555 82.616 14.8599 83.1153 13.6249C83.378 12.9942 83.7328 12.7446 84.3897 12.8497C84.5999 12.8891 84.8233 12.8497 85.1386 12.8497C84.5999 13.9533 84.1795 15.0176 83.5883 15.9767C82.3664 17.9212 81.8802 20.0103 82.143 22.2833C82.1693 22.546 82.143 22.7957 82.143 23.111C81.6569 23.111 81.2102 23.111 80.6977 23.111C80.6977 21.9022 80.7109 20.6935 80.6846 19.4979C80.6715 19.1694 80.5926 18.8015 80.4481 18.4993C79.6204 16.7913 78.7664 15.0964 77.8466 13.2176C77.7941 13.6511 77.7678 13.9008 77.7284 14.2293C76.8481 14.2293 75.981 14.2293 75.035 14.2293C75.035 17.2117 75.035 20.1417 75.035 23.0979C74.4831 23.0979 74.0102 23.0979 73.4715 23.0979C73.4715 20.1679 73.4715 17.2511 73.4715 14.2555C72.5386 14.2555 71.6715 14.2555 70.7649 14.2555C70.7649 13.7825 70.7649 13.3752 70.7649 12.8891C70.962 12.876 71.1722 12.8497 71.3824 12.8497C73.8393 12.8497 76.2831 12.8628 78.7401 12.8365C79.1868 12.8365 79.3839 12.9679 79.5678 13.3752C80.1328 14.6891 80.7503 15.9636 81.4072 17.3694Z" fill="#333333"/>
<path d="M59.1372 23.1634C59.1372 19.6817 59.1372 16.3181 59.1372 12.9284C60.5562 12.9284 61.962 12.8101 63.3416 12.9546C64.8394 13.1123 66.035 14.5181 66.1007 16.0291C66.1664 17.343 66.1664 18.6568 66.0876 19.9576C65.9956 21.7313 64.4846 23.124 62.7109 23.1634C61.5416 23.1765 60.3591 23.1634 59.1372 23.1634ZM60.7007 14.3868C60.7007 16.8306 60.7007 19.2349 60.7007 21.6656C61.4102 21.6656 62.0671 21.705 62.7109 21.6525C63.762 21.5736 64.4978 20.9298 64.5635 19.8656C64.6423 18.6306 64.6292 17.3824 64.5503 16.1342C64.4846 15.2014 63.7883 14.4919 62.8686 14.3868C62.1722 14.3211 61.4496 14.3868 60.7007 14.3868Z" fill="#333333"/>
<path d="M45.4862 18.0395C45.4862 18.6965 45.5125 19.3534 45.4862 20.0103C45.4074 21.8235 43.949 23.2162 42.1095 23.2687C40.257 23.3213 38.6409 22.0337 38.5227 20.2468C38.4176 18.749 38.4176 17.2249 38.5227 15.7271C38.6541 13.9271 40.2964 12.6921 42.2278 12.7709C43.9752 12.8497 45.4205 14.2556 45.4993 16.003C45.5125 16.6731 45.4862 17.3563 45.4862 18.0395ZM44.0409 17.9738C44.0015 17.3432 43.9752 16.7125 43.8964 16.0819C43.765 15.0702 42.9767 14.3607 41.9913 14.3475C41.0453 14.3344 40.1519 14.9782 40.073 15.9636C39.9679 17.33 39.9679 18.7096 40.073 20.076C40.1519 21.0483 41.0716 21.7052 41.9913 21.6921C42.9636 21.6658 43.765 20.9432 43.8833 19.9446C43.9752 19.2877 43.9884 18.6439 44.0409 17.9738Z" fill="#333333"/>
<path d="M35.9211 15.0306C35.1065 14.7941 34.4101 14.5182 33.7006 14.4C33.3196 14.3343 32.8729 14.4394 32.4919 14.5708C31.9269 14.7678 31.6378 15.2934 31.743 15.8189C31.8218 16.2262 32.1765 16.6992 32.5444 16.9094C32.978 17.1591 33.5429 17.1722 34.0685 17.251C36.1575 17.5532 37.1824 18.8014 36.9459 20.7985C36.8276 21.7576 36.3678 22.4802 35.4743 22.9007C33.74 23.7153 31.1123 23.2423 29.6802 21.8364C29.9955 21.4554 30.3108 21.0744 30.6393 20.6671C31.559 21.3766 32.5707 21.7576 33.7006 21.6788C34.4101 21.6262 35.1196 21.4948 35.3692 20.6671C35.6189 19.8394 35.1984 19.1299 34.3313 18.9459C33.8189 18.8277 33.2933 18.7883 32.7809 18.6832C31.1123 18.381 30.14 17.2773 30.1794 15.7401C30.2189 14.0846 31.2174 12.9678 32.9386 12.797C34.2919 12.6525 35.54 12.9941 36.7094 13.8481C36.4072 14.2686 36.1444 14.6759 35.9211 15.0306Z" fill="#333333"/>
<path d="M48.9941 21.705C50.6759 21.705 52.2394 21.705 53.8423 21.705C53.8423 22.2043 53.8423 22.651 53.8423 23.124C51.7139 23.124 49.6248 23.124 47.4963 23.124C47.4963 19.7079 47.4963 16.3313 47.4963 12.9021C47.9956 12.9021 48.4555 12.9021 48.9941 12.9021C48.9941 15.8057 48.9941 18.7094 48.9941 21.705Z" fill="#333333"/>
<path d="M56.9299 23.124C56.4175 23.124 55.9708 23.124 55.4846 23.124C55.4846 19.7079 55.4846 16.3313 55.4846 12.9021C55.9576 12.9021 56.4175 12.9021 56.9299 12.9021C56.9299 16.305 56.9299 19.6817 56.9299 23.124Z" fill="#333333"/>
<path d="M69.622 23.124C69.1227 23.124 68.676 23.124 68.1768 23.124C68.1768 19.7211 68.1768 16.3444 68.1768 12.9021C68.6498 12.9021 69.1096 12.9021 69.622 12.9021C69.622 16.2919 69.622 19.6685 69.622 23.124Z" fill="#333333"/>
</g>
<defs>
<clipPath id="clip0_7_243">
<rect width="85.7956" height="36" fill="white"/>
</clipPath>
</defs>
</svg>
