<svg width="137" height="36" viewBox="0 0 137 36" fill="none" xmlns="http://www.w3.org/2000/svg">
<g clip-path="url(#clip0_7_253)">
<path d="M0 21.4709V31.1569L8.39462 36L16.7892 31.1569V21.4709L8.39462 16.6278L0 21.4709ZM27.6054 16.6278L19.2108 21.4709V31.1569L27.6054 36L36 31.1569V21.4709L27.6054 16.6278ZM26.3882 9.69578L22.1941 7.26457L22.1909 2.42152L18 0L9.61184 4.84305V14.5291L18 19.3722L26.3882 14.5291V9.69578Z" fill="#333333"/>
<path d="M26.3882 9.69579L30.5823 7.26457V2.42152L26.3947 0L22.1909 2.42152L26.3947 4.83659L26.3882 9.69579Z" fill="#333333"/>
<path d="M77.9892 9.70859L75.9357 24.0117C75.9325 24.0343 75.897 24.0343 75.897 24.0117L74.0921 9.70859C74.0921 9.6989 74.0824 9.68922 74.0727 9.69245H68.9585C68.9488 9.69245 68.9391 9.6989 68.9391 9.70859L67.1343 24.0117C67.131 24.0343 67.0988 24.0343 67.0955 24.0117L65.0421 9.70859C65.0421 9.6989 65.0324 9.69245 65.0227 9.69245H61.9038C61.8941 9.69245 61.8844 9.70213 61.8844 9.71182V9.71505L64.4867 26.2654C64.49 26.275 64.4964 26.2815 64.5061 26.2815H69.6139C69.6236 26.2815 69.6333 26.275 69.6333 26.2654L71.4962 11.9881C71.4995 11.9655 71.535 11.9655 71.535 11.9881L73.3979 26.2654C73.3979 26.275 73.4076 26.2815 73.4173 26.2815H78.5251C78.5348 26.2815 78.5445 26.275 78.5445 26.2654L81.1468 9.71505C81.1501 9.70536 81.1404 9.69245 81.1307 9.69245H81.1274H78.0085C77.9988 9.69245 77.9924 9.6989 77.9892 9.70859ZM135.266 10.4867C134.556 9.66016 133.542 9.24043 132.257 9.24043C130.614 9.24043 129.38 9.9798 128.596 11.4392H128.583C128.363 10.8289 128.002 10.3188 127.504 9.91846C126.949 9.46967 126.242 9.24043 125.406 9.24043C124.621 9.24043 123.927 9.43415 123.343 9.8216C122.852 10.1445 122.455 10.6223 122.164 11.2422V9.71505C122.164 9.70536 122.155 9.69568 122.145 9.69568H119.1C119.09 9.69568 119.081 9.70536 119.081 9.71505V26.2654C119.081 26.275 119.09 26.2847 119.1 26.2847H122.145C122.158 26.2847 122.164 26.275 122.164 26.2654V14.952C122.164 14.1125 122.358 13.4313 122.739 12.9244C123.107 12.4368 123.617 12.1979 124.308 12.1979C124.873 12.1979 125.309 12.3916 125.642 12.792C125.99 13.2085 126.158 13.7251 126.158 14.3708V26.2654C126.158 26.275 126.168 26.2847 126.177 26.2847H129.222C129.235 26.2847 129.242 26.275 129.242 26.2654V15.1457C129.242 14.119 129.442 13.3602 129.839 12.8889C130.226 12.4239 130.724 12.1979 131.35 12.1979C132.012 12.1979 132.477 12.3981 132.767 12.8049C133.074 13.2408 133.232 13.809 133.232 14.5V26.2654C133.232 26.275 133.242 26.2847 133.252 26.2847H136.316V13.6573C136.322 12.3658 135.967 11.3003 135.266 10.4867ZM99.5892 24.4799L97.6616 26.6334C97.6552 26.6431 97.6422 26.6431 97.6326 26.6367L94.236 23.6921C94.2295 23.6856 94.2198 23.6856 94.2101 23.6889L90.1484 26.062C89.464 26.4526 88.7472 26.6496 87.9626 26.6496C86.8196 26.6496 85.7768 26.2266 84.8663 25.4098C83.9848 24.5606 83.5296 23.5177 83.5296 22.2456C83.5296 20.712 84.3432 19.2139 85.7477 18.4293L93.9551 13.7089C93.9615 13.7057 93.9648 13.6993 93.9648 13.6896V12.6467C93.9648 12.6338 93.9551 12.6273 93.9454 12.6273H84.3658C84.3529 12.6273 84.3465 12.6176 84.3465 12.608V9.71505C84.3465 9.70213 84.3561 9.69568 84.3658 9.69568H96.877C96.89 9.69568 96.8964 9.70536 96.8964 9.71505V22.1068C96.8964 22.1133 96.8996 22.1197 96.9029 22.1229L99.5859 24.4508C99.5956 24.4573 99.5956 24.4702 99.5892 24.4799ZM88.6794 23.5177L93.9518 20.4602C93.9583 20.4569 93.9615 20.4505 93.9615 20.4408V17.1281C93.9615 17.112 93.9454 17.1023 93.9292 17.1088L87.2103 20.9703C86.7228 21.2641 86.4613 21.6871 86.4613 22.2424C86.4613 23.056 87.178 23.7115 87.9271 23.7115C88.2241 23.7115 88.4501 23.6469 88.6794 23.5177ZM114.251 10.8516C113.185 9.78608 111.897 9.24043 110.383 9.24043C108.584 9.24043 107.138 9.94429 106.043 11.352C106.037 11.3617 106.024 11.3617 106.014 11.3552C106.014 11.3552 106.014 11.3552 106.011 11.3552L104.077 9.57944C104.067 9.57299 104.054 9.57299 104.048 9.57944L102.14 11.7104C102.133 11.7201 102.133 11.733 102.143 11.7394L104.894 14.2352C104.897 14.2385 104.9 14.2449 104.9 14.2514V23.3595C104.9 23.3692 104.891 23.3789 104.881 23.3789H102.146C102.133 23.3789 102.127 23.3886 102.127 23.3983V26.2589C102.127 26.2686 102.137 26.2783 102.146 26.2783H111.997C112.01 26.2783 112.016 26.2686 112.016 26.2589V23.3983C112.016 23.3854 112.007 23.3789 111.997 23.3789H107.822C107.809 23.3789 107.803 23.3692 107.803 23.3595V14.8584C107.803 13.5023 108.784 12.2786 110.134 12.1527C111.661 12.0074 112.959 13.2214 112.959 14.7195V15.6655C112.959 15.6785 112.969 15.6849 112.979 15.6849H115.839C115.852 15.6849 115.859 15.6752 115.859 15.6655V14.7195C115.862 13.2053 115.313 11.917 114.251 10.8516ZM58.8914 19.3882C58.6912 18.9201 58.3845 18.51 58.0196 18.2098C57.6774 17.8675 57.2415 17.6028 56.6539 17.3735C56.0534 17.0894 55.4948 16.928 55.0783 16.815C54.5359 16.6697 53.9483 16.5179 53.2896 16.392C52.0046 16.1337 51.0521 15.8141 50.458 15.4395C49.8801 15.0747 49.5863 14.5904 49.5863 14.006C49.5863 13.3247 49.8317 12.8501 50.3676 12.5046C51.1199 12.0171 52.0466 11.8847 52.9183 12.0655C53.761 12.2399 54.5197 12.7307 55.159 13.2892C55.2882 13.4022 56.6152 14.6227 56.5926 14.6517L58.5007 12.4885C58.5007 12.4885 57.5838 11.5586 57.1479 11.1809C56.1115 10.2768 54.8749 9.51487 53.4866 9.29532C52.1047 9.07577 50.5355 9.28563 49.2892 9.92814C48.947 10.1057 48.6209 10.3188 48.3206 10.5642C47.2132 11.4715 46.6514 12.6629 46.6514 14.1028C46.6514 15.5428 47.126 16.6826 48.0979 17.3864C49.0116 18.0709 50.3257 18.6037 52.0046 18.9653C53.4866 19.2817 54.5649 19.6046 55.2139 19.9274C55.8306 20.1922 56.1309 20.6151 56.1309 21.2221C56.1309 22.0035 55.8144 22.5943 55.1913 22.9818C53.7868 23.8503 51.8335 23.8115 50.4161 22.9979C49.8026 22.646 49.2957 22.1359 48.7597 21.6838C48.3465 21.3319 47.959 20.9541 47.5619 20.5861C47.5587 20.5828 47.5522 20.5764 47.5457 20.5699L45.6892 22.8074C45.6828 22.8139 46.5965 23.6533 46.6772 23.7244C47.9332 24.8673 49.286 25.8166 50.9746 26.1653C51.5784 26.288 52.1951 26.3493 52.8085 26.3493C54.6263 26.3493 56.1567 25.8715 57.3578 24.9287C58.617 23.9665 59.2562 22.6331 59.2562 20.9671C59.2595 20.415 59.1303 19.8661 58.8914 19.3882Z" fill="#333333"/>
</g>
<defs>
<clipPath id="clip0_7_253">
<rect width="136.322" height="36" fill="white"/>
</clipPath>
</defs>
</svg>
