<svg width="116" height="36" viewBox="0 0 116 36" fill="none" xmlns="http://www.w3.org/2000/svg">
<g clip-path="url(#clip0_7_258)">
<path d="M36 10C36 9.63636 36 9.27273 36 8.90909C36 8.12121 35.9394 7.33333 35.8182 6.54545C35.697 5.75758 35.4545 5.0303 35.0909 4.30303C34.7273 3.57576 34.2424 2.9697 33.697 2.36364C33.1515 1.81818 32.4848 1.33333 31.7576 0.969697C31.0303 0.606061 30.303 0.363636 29.5151 0.242424C28.6667 0.0606061 27.8788 0.0606061 27.0909 0C26.7273 0 26.3636 0 26 0C25.5758 0 25.1515 0 24.7273 0H15.2121H11.2727C10.8485 0 10.4242 0 10 0C9.63636 0 9.27273 0 8.90909 0C8.72727 0 8.48485 0 8.30303 0C7.69697 0 7.09091 0.0606061 6.54545 0.181818C5.93939 0.30303 5.39394 0.424242 4.84848 0.666667C4.60606 0.787879 4.42424 0.848485 4.24242 0.969697C3.75758 1.21212 3.27273 1.57576 2.78788 1.93939C2.66667 2.06061 2.48485 2.24242 2.36364 2.36364C1.81818 2.90909 1.33333 3.57576 0.969697 4.24242C0.606061 4.9697 0.363636 5.69697 0.242424 6.48485C0.0606061 7.27273 0.0606061 8.12121 0 8.90909C0 9.27273 0 9.63636 0 10C0 10.4242 0 10.8485 0 11.2727V17.1515V24.7879C0 25.2121 0 25.6364 0 26.0606C0 26.4242 0 26.7879 0 27.1515C0 27.9394 0.0606061 28.7273 0.181818 29.5151C0.30303 30.303 0.545454 31.0303 0.909091 31.7576C1.27273 32.4848 1.75758 33.0909 2.30303 33.697C2.84848 34.2424 3.51515 34.7273 4.24242 35.0909C4.9697 35.4545 5.69697 35.697 6.48485 35.8182C7.27273 35.9394 8.06061 36 8.84848 36C9.21212 36 9.57576 36 9.93939 36C10.3636 36 10.7879 36 11.2121 36H24.6667C25.0909 36 25.5151 36 25.9394 36C26.303 36 26.6667 36 27.0303 36C27.8182 36 28.6061 35.9394 29.3939 35.8182C30.1818 35.697 30.9091 35.4545 31.6364 35.0909C32.3636 34.7273 32.9697 34.2424 33.5758 33.697C34.1212 33.1515 34.6061 32.4848 34.9697 31.7576C35.3333 31.0303 35.5758 30.303 35.697 29.5151C35.8182 28.7273 35.8788 27.9394 35.8788 27.1515C35.8788 26.7879 35.8788 26.4242 35.8788 26.0606C35.8788 25.6364 35.8788 25.2121 35.8788 24.7879V11.2727C36 10.8485 36 10.4242 36 10ZM30.3636 29.3333C28.7273 26.1818 25.7576 26.9697 24.1818 27.7576C24.0606 27.8182 23.9394 27.8788 23.8182 28H23.7576C20.6061 29.697 16.303 29.8182 12.0606 28C8.48485 26.4848 5.51515 23.8182 3.57576 20.7273C4.54545 21.4545 5.57576 22.0606 6.72727 22.6061C11.2727 24.7273 15.8182 24.5455 19.0303 22.6061C14.4242 19.0909 10.6061 14.4848 7.69697 10.7879C7.15151 10.1212 6.60606 9.45454 6.18182 8.72727C9.69697 11.9394 15.2121 16 17.2121 17.0909C12.9697 12.6061 9.27273 7.15151 9.45455 7.33333C16.1212 14.0606 22.2424 17.8182 22.2424 17.8182C22.4848 17.9394 22.6667 18.0606 22.7879 18.1212C22.9091 17.8182 23.0303 17.4545 23.1515 17.0909C24.2424 13.2121 23.0303 8.78788 20.303 5.09091C26.4848 8.78788 30.1212 15.8788 28.6061 21.8182C28.5455 21.9394 28.5455 22.1212 28.4848 22.2424C31.6364 26 30.7879 30.1212 30.3636 29.3333Z" fill="#333333"/>
<path d="M49.6364 23.3334C49.9394 25.8183 52.303 27.4547 55.6364 27.4547C58.7879 27.4547 61.0303 25.8183 61.0303 23.5759C61.0303 21.6365 59.6364 20.4244 56.4849 19.6365L53.4546 18.8486C49.0303 17.7577 47.0909 15.7577 47.0909 12.485C47.0909 8.42435 50.6061 5.63647 55.6364 5.63647C60.4849 5.63647 63.9394 8.42435 64.0606 12.485H60.8485C60.6061 10.0001 58.6061 8.48496 55.5758 8.48496C52.6061 8.48496 50.4849 10.0001 50.4849 12.2425C50.4849 14.0001 51.7576 15.0304 54.9697 15.8183L57.5152 16.485C62.4243 17.6971 64.4849 19.6365 64.4849 23.091C64.4849 27.5153 60.9697 30.2425 55.4546 30.2425C50.303 30.2425 46.7879 27.5153 46.4849 23.2728L49.6364 23.3334Z" fill="#333333"/>
<path d="M84.8484 29.9395H81.6363L77.8787 16.7274H77.8181L74.0605 29.9395H70.8484L66.0605 12.6667H69.2121L72.5454 26.5455H72.606L76.3636 12.6667H79.3939L83.2121 26.5455H83.2727L86.606 12.6667H89.6969L84.8484 29.9395Z" fill="#333333"/>
<path d="M91.7576 8.00013C91.7576 6.96982 92.6061 6.12134 93.6364 6.12134C94.6667 6.12134 95.5758 6.96982 95.5758 8.00013C95.5758 9.03043 94.7273 9.87891 93.6364 9.87891C92.6061 9.93952 91.7576 9.09103 91.7576 8.00013ZM92.0606 12.6668H95.2121V29.9395H92.0606V12.6668Z" fill="#333333"/>
<path d="M115.879 15.2121V12.6667H112.546V8.54547H109.394V12.6667H106.849H103.394V11.1515C103.394 9.63638 104 8.96971 105.455 8.96971C105.94 8.96971 106.364 9.03032 106.788 9.09092V6.60608C106.243 6.54547 105.697 6.48486 105.091 6.48486C101.697 6.48486 100.303 7.8788 100.303 11.0909V12.6667H97.8789V15.2121H100.303V29.9394H103.455V15.2121H106.909H109.455V25.4546C109.455 28.7879 110.727 30.0606 114.061 30.0606C114.788 30.0606 115.576 30 115.94 29.9394V27.3333C115.697 27.394 115.091 27.394 114.727 27.394C113.273 27.394 112.606 26.7273 112.606 25.1515V15.2121H115.879Z" fill="#333333"/>
</g>
<defs>
<clipPath id="clip0_7_258">
<rect width="115.879" height="36" fill="white"/>
</clipPath>
</defs>
</svg>
