<svg width="36" height="36" viewBox="0 0 36 36" fill="none" xmlns="http://www.w3.org/2000/svg">
<path d="M32.3999 2.87988H3.59988C3.20172 2.87988 2.87988 3.20244 2.87988 3.59988V32.3999C2.87988 32.7973 3.20172 33.1199 3.59988 33.1199H32.3999C32.798 33.1199 33.1199 32.7973 33.1199 32.3999V3.59988C33.1199 3.20244 32.798 2.87988 32.3999 2.87988ZM20.8799 19.0403H17.2799V30.2399H14.3999V19.0403H10.7999V16.5599H20.8799V19.0403ZM21.687 29.6005V26.6068C21.687 26.6068 23.3221 27.8394 25.2841 27.8394C27.2461 27.8394 27.1705 26.5564 27.1705 26.3807C27.1705 24.5188 21.6114 24.5188 21.6114 20.3939C21.6114 14.7844 29.7114 16.9976 29.7114 16.9976L29.6106 19.6645C29.6106 19.6645 28.252 18.7588 26.7176 18.7588C25.1833 18.7588 24.6296 19.4881 24.6296 20.2679C24.6296 22.2803 30.2392 22.0794 30.2392 26.1294C30.2399 32.3675 21.687 29.6005 21.687 29.6005Z" fill="#333333"/>
</svg>
