<svg width="99" height="36" viewBox="0 0 99 36" fill="none" xmlns="http://www.w3.org/2000/svg">
<g clip-path="url(#clip0_7_270)">
<path d="M29.808 28.728L23.364 17.928L29.808 7.092L32.904 17.928L29.808 28.728ZM15.48 27.684L7.38 19.656H20.268L26.712 30.492L15.48 27.684ZM15.48 8.1L26.676 5.292L20.232 16.128H7.344L15.48 8.1ZM31.896 0L17.28 3.78L15.12 7.524L10.728 7.488L0 17.928L10.728 28.368L15.12 28.332L17.28 32.04L31.896 35.856L35.82 21.636L33.624 17.928L35.82 14.22L31.896 0ZM65.124 10.512C63.18 10.512 61.848 11.34 60.876 12.852H60.804V10.908H57.384V25.236H60.876V17.136C60.876 15.192 62.1 13.824 63.792 13.824C65.376 13.824 66.564 14.796 66.564 16.452V25.272H70.056V15.912C70.056 12.78 68.076 10.512 65.124 10.512ZM52.056 19.188C52.056 21.096 50.976 22.428 49.176 22.428C47.556 22.428 46.548 21.492 46.548 19.836V10.908H43.056V20.484C43.056 23.616 44.82 25.668 48.024 25.668C50.04 25.668 51.156 24.912 52.128 23.58H52.236V25.272H55.62V10.908H52.128L52.056 19.188ZM71.892 10.908H75.384V25.236H71.892V10.908ZM71.892 6.48H75.384V9.36H71.892V6.48ZM95.22 10.908L93.132 17.388C92.664 18.72 92.304 20.52 92.304 20.52H92.196C92.196 20.52 91.728 18.72 91.26 17.388L88.92 10.908H85.176L89.028 21.096C89.856 23.292 90.108 24.192 90.108 24.984C90.108 26.172 89.496 26.928 87.984 26.928H86.616V29.916H88.848C91.764 29.916 92.772 28.764 93.852 25.596L98.892 10.908H95.22ZM81.936 21.06V13.464H84.168V10.944H81.936V6.48H78.444V10.944H76.464V13.464H78.444V21.888C78.444 24.588 80.496 25.308 82.332 25.308C83.844 25.308 84.24 25.236 84.24 25.236V22.464H83.34C82.548 22.464 81.936 22.104 81.936 21.06Z" fill="#333333"/>
</g>
<defs>
<clipPath id="clip0_7_270">
<rect width="99" height="36" fill="white"/>
</clipPath>
</defs>
</svg>
