<?xml version="1.0" encoding="utf-8"?>
<!-- Generator: Adobe Illustrator 27.2.0, SVG Export Plug-In . SVG Version: 6.00 Build 0)  -->
<svg version="1.0" id="Layer_1" xmlns="http://www.w3.org/2000/svg" xmlns:xlink="http://www.w3.org/1999/xlink" x="0px" y="0px"
	 viewBox="0 0 415.8 110.5" style="enable-background:new 0 0 415.8 110.5;" xml:space="preserve" width="500px" height="500px">
<style type="text/css">
	.st0{fill:#FFFFFF;}
</style>
<path class="st0" d="M211.8,21.2c9.1,8.3,13.6,19.7,13.6,34.4c0,14.8-4.4,26.5-13.3,35.1c-8.8,8.6-22.3,12.9-40.4,12.9h-31.9V9h33
	C189.7,9.1,202.7,12.9,211.8,21.2z M196.2,77.4c5.2-4.9,7.8-12,7.8-21.4c0-9.3-2.6-16.7-7.8-21.7c-5.2-5-13.2-7.7-24-7.7H160v58.1
	h13.8C183.5,84.7,191,82.3,196.2,77.4z"/>
<path class="st0" d="M300.6,103.7h-18.9v-9c-5.4,6.6-11.7,9.9-19.4,9.9c-7.7,0-14.2-2.2-19.5-6.7s-7.9-10.5-7.9-17.9
	c0-7.5,2.7-13,8.2-16.7c5.4-3.7,12.9-5.5,22.3-5.5h15v-0.6c0-7.8-4-11.7-12.2-11.7c-3.5,0-7.2,0.7-11.2,2.1c-3.9,1.4-7.2,3.1-10,5.2
	l-9.1-13.2c9.6-7,20.6-10.5,32.9-10.5c8.9,0,15.9,2.2,21.6,6.7c5.6,4.4,8.2,11.5,8.2,21.1V103.7L300.6,103.7z M280.3,75.6v-3h-12.7
	c-8.2,0-12.2,2.3-12.2,7.3c0,2.6,1,4.5,2.9,5.9s4.7,2,8.4,2c3.6,0,6.8-1.1,9.5-3.4C279,82.3,280.3,79.3,280.3,75.6z"/>
<path class="st0" d="M354.3,48.3c-6.1,0-10.9,2.1-13.9,6.5c-3,4.3-4.8,10-4.8,17.1v31.9h-20.3V30.9h20.3v9.3c2.7-3,6.4-5.5,10.3-7.6
	c3.9-2.1,8.6-3.2,12.6-3.3v19.2L354.3,48.3L354.3,48.3z"/>
<path class="st0" d="M391.1,45.6v32.2c0,2.8,0.8,5,2.3,6.6c1.4,1.6,3.2,2.4,5.2,2.4c3.8,0,7-1.7,9.7-5.2l7.6,14.3
	c-6.3,5.8-13,8.7-20,8.7s-12.9-2.3-17.8-6.9c-4.9-4.6-7.2-10.9-7.2-18.9V9.2h20.3v20.3h21.6l-11.1,16.2L391.1,45.6L391.1,45.6z"/>
<path class="st0" d="M18.9,19.4l0.2,0.2v60.9l-12-12c-4.3-4.3-5.5-10.8-3-16.3L18.9,19.4z M83.3,16.3H22.4l-0.2-0.2L55.1,1.3
	c5.5-2.5,12-1.3,16.3,3L83.3,16.3z M88.7,89.3H27.8L26.6,88c-1.8-1.8-2.8-4.1-2.8-6.7v-57L88.7,89.3z M32.5,94h59.5v14.1
	c0,1.3-1.1,2.4-2.4,2.4H49.9c-0.6,0-1.2-0.3-1.7-0.7L37.2,98.7l0,0L32.5,94z M113.2,47.1v39.8c0,1.3-1.1,2.4-2.4,2.4H95.4L27.1,21
	h57c2.5,0,4.9,1,6.7,2.8l10.7,10.7l0,0l11.1,11.1C113,45.9,113.2,46.5,113.2,47.1z"/>
</svg>
