<?xml version="1.0" encoding="utf-8"?>
<!-- Generator: Adobe Illustrator 27.2.0, SVG Export Plug-In . SVG Version: 6.00 Build 0)  -->
<svg version="1.0" id="Layer_1" xmlns="http://www.w3.org/2000/svg" xmlns:xlink="http://www.w3.org/1999/xlink" x="0px" y="0px"
	 viewBox="0 0 100 21.7" style="enable-background:new 0 0 100 21.7;" xml:space="preserve">
<style type="text/css">
	.st0{fill:#FFFFFF;}
</style>
<path class="st0" d="M94.5,6c-1.2,0-2.2,0.3-3.1,0.9c-0.7,0.5-1.3,1.1-1.7,1.8l0-2.3h-3.1v15h3.2V13c0-0.8,0.2-1.5,0.5-2.2
	c0.3-0.6,0.7-1.1,1.3-1.5c0.6-0.3,1.2-0.5,2-0.5c0.7,0,1.3,0.1,1.7,0.4c0.5,0.3,0.8,0.7,1.1,1.2c0.2,0.5,0.4,1.2,0.4,1.9v9h3.2v-9.5
	c0-1.2-0.2-2.2-0.7-3.1c-0.4-0.9-1.1-1.6-1.9-2.1C96.6,6.2,95.6,6,94.5,6L94.5,6z"/>
<path class="st0" d="M79.7,0v3.3H83V0L79.7,0z M79.7,6.3v15h3.2v-15L79.7,6.3z"/>
<path class="st0" d="M72.8,0v21.4h3.2V0L72.8,0z"/>
<path class="st0" d="M63.7,2.6v2.6c0,0.4-0.1,0.7-0.3,0.9s-0.5,0.3-0.9,0.3h-1.6V9h2.7v8.1c0,0.8,0.2,1.6,0.5,2.2
	c0.3,0.6,0.8,1.1,1.5,1.5c0.6,0.3,1.4,0.5,2.2,0.5h2.4v-2.8h-1.8c-0.5,0-0.8-0.2-1.2-0.5c-0.3-0.3-0.4-0.8-0.4-1.3V9.1h3.5V6.3h-3.5
	V2.6L63.7,2.6z"/>
<path class="st0" d="M52.5,6c-1.5,0-2.8,0.3-4,1c-1.2,0.7-2.1,1.6-2.8,2.8c-0.7,1.2-1,2.6-1,4.1c0,1.5,0.3,2.9,1,4.1
	c0.6,1.2,1.6,2.1,2.7,2.8c1.2,0.7,2.5,1,4,1c1.5,0,2.8-0.3,4-1c1.2-0.7,2.1-1.6,2.7-2.8c0.7-1.2,1-2.6,1-4.1c0-1.5-0.3-2.9-1-4.1
	c-0.7-1.2-1.6-2.1-2.7-2.8C55.3,6.3,54,6,52.5,6z M52.5,8.9c0.8,0,1.6,0.2,2.2,0.6c0.7,0.4,1.2,1,1.5,1.7c0.4,0.7,0.5,1.6,0.5,2.6
	c0,1-0.2,1.8-0.5,2.6c-0.4,0.7-0.9,1.3-1.5,1.7c-0.7,0.4-1.4,0.6-2.3,0.6c-0.9,0-1.6-0.2-2.3-0.6c-0.7-0.4-1.2-1-1.6-1.7
	c-0.4-0.7-0.6-1.6-0.6-2.6c0-1,0.2-1.8,0.6-2.6c0.4-0.7,0.9-1.3,1.6-1.7C50.8,9.1,51.6,8.9,52.5,8.9L52.5,8.9z"/>
<path class="st0" d="M41.2,0.8l-8.9,9.5V0.8h-3.3v20.5h3.3v-10l8.9,10h4.2L36,10.7l9.3-9.9L41.2,0.8z"/>
<path class="st0" d="M20.6,21.4H0V0.8h20.6L10.1,10.9L20.6,21.4z"/>
</svg>
