<?xml version="1.0" encoding="utf-8"?>
<!-- Generator: Adobe Illustrator 27.2.0, SVG Export Plug-In . SVG Version: 6.00 Build 0)  -->
<svg version="1.1" id="Layer_1" xmlns="http://www.w3.org/2000/svg" xmlns:xlink="http://www.w3.org/1999/xlink" x="0px" y="0px"
	 viewBox="0 0 1054 344" style="enable-background:new 0 0 1054 344;" xml:space="preserve">
<style type="text/css">
	.st0{clip-path:url(#SVGID_00000109025311446962912710000005837832693686150533_);}
	.st1{fill:#FFFFFF;}
</style>
<g>
	<g>
		<defs>
			<rect id="SVGID_1_" width="280" height="344"/>
		</defs>
		<clipPath id="SVGID_00000137849646427288407720000014079132693139262380_">
			<use xlink:href="#SVGID_1_"  style="overflow:visible;"/>
		</clipPath>
		<g style="clip-path:url(#SVGID_00000137849646427288407720000014079132693139262380_);">
			<path class="st1" d="M271.1,117.3c-2,1.5-37.2,21.4-37.2,65.5c0,51,44.8,69.1,46.2,69.6c-0.2,1.1-7.1,24.7-23.6,48.8
				c-14.7,21.2-30.1,42.3-53.5,42.3s-29.4-13.6-56.4-13.6c-26.3,0-35.7,14-57.1,14S53.2,324.3,36,300.2C16.1,272,0,228.1,0,186.4
				C0,119.5,43.5,84,86.3,84c22.7,0,41.7,15,55.9,15c13.6,0,34.8-15.8,60.6-15.8C212.7,83.1,247.9,84,271.1,117.3L271.1,117.3z
				 M190.6,54.8c10.7-12.7,18.3-30.3,18.3-47.9c0-2.4-0.2-4.9-0.7-6.9c-17.4,0.7-38.1,11.6-50.6,26.1c-9.8,11.1-19,28.8-19,46.6
				c0,2.7,0.4,5.4,0.7,6.2c1.1,0.2,2.9,0.4,4.7,0.4C159.6,79.4,179.2,68.9,190.6,54.8z"/>
		</g>
	</g>
</g>
<path class="st1" d="M414.5,201.3c0,9.9-1.8,18.5-5.5,25.6c-3.6,7.1-8.6,12.6-15,16.5c-6.3,3.8-13.5,5.7-21.5,5.7
	c-8.1,0-15.3-1.9-21.6-5.7c-6.3-3.8-11.3-9.3-14.9-16.5s-5.5-15.7-5.5-25.6c0-9.9,1.8-18.5,5.5-25.6c3.6-7.2,8.6-12.6,14.9-16.5
	c6.3-3.8,13.5-5.8,21.6-5.8c8,0,15.2,1.9,21.5,5.8c6.3,3.8,11.3,9.3,15,16.5C412.6,182.8,414.5,191.3,414.5,201.3z M400.6,201.3
	c0-7.6-1.2-14-3.7-19.1c-2.4-5.2-5.8-9.2-10-11.8c-4.2-2.7-9-4-14.3-4c-5.4,0-10.2,1.3-14.4,4c-4.2,2.7-7.5,6.6-10,11.8
	c-2.4,5.2-3.6,11.6-3.6,19.1c0,7.6,1.2,14,3.6,19.2c2.5,5.2,5.8,9.1,10,11.8s9,4,14.4,4c5.3,0,10.1-1.3,14.3-4
	c4.2-2.7,7.6-6.6,10-11.8C399.3,215.2,400.6,208.8,400.6,201.3z"/>
<path class="st1" d="M432,247.8v-93.1h13.6v34.6h0.8c0.8-1.5,1.9-3.1,3.4-5s3.5-3.6,6.2-5c2.6-1.5,6.1-2.2,10.5-2.2
	c5.6,0,10.7,1.4,15.1,4.3c4.4,2.8,7.9,7,10.4,12.3c2.5,5.4,3.8,11.8,3.8,19.4c0,7.5-1.3,14-3.8,19.4s-6,9.5-10.4,12.4
	s-9.4,4.3-15,4.3c-4.2,0-7.7-0.7-10.4-2.1c-2.7-1.4-4.8-3.1-6.3-5s-2.7-3.6-3.5-5.1h-1.1v10.9L432,247.8L432,247.8z M445.3,212.9
	c0,4.9,0.7,9.2,2.1,12.9s3.5,6.6,6.2,8.7c2.7,2.1,6,3.1,9.9,3.1c4.1,0,7.5-1.1,10.2-3.2c2.7-2.2,4.8-5.1,6.2-8.9
	c1.4-3.7,2.1-7.9,2.1-12.6c0-4.6-0.7-8.7-2.1-12.4s-3.4-6.6-6.2-8.7c-2.7-2.1-6.1-3.2-10.2-3.2c-3.9,0-7.3,1-10,3s-4.7,4.9-6.1,8.5
	C446,203.8,445.3,208.1,445.3,212.9z"/>
<path class="st1" d="M511,178h13.6v74.4c0,4.7-0.8,8.6-2.5,11.8c-1.7,3.2-4.2,5.7-7.5,7.3c-3.3,1.7-7.3,2.5-12.1,2.5
	c-0.5,0-0.9,0-1.4,0s-0.9,0-1.4,0v-11.7c0.4,0,0.8,0,1.1,0c0.3,0,0.7,0,1,0c3.2,0,5.5-0.9,7-2.6s2.2-4.2,2.2-7.4V178z M517.7,167.2
	c-2.4,0-4.4-0.8-6.1-2.4c-1.7-1.6-2.5-3.5-2.5-5.7s0.8-4.2,2.5-5.7c1.7-1.6,3.7-2.4,6.1-2.4s4.4,0.8,6,2.4c1.7,1.6,2.5,3.5,2.5,5.7
	s-0.8,4.1-2.5,5.7C522.1,166.4,520.1,167.2,517.7,167.2z"/>
<path class="st1" d="M573,249.2c-6.9,0-12.8-1.5-17.8-4.4c-4.9-3-8.8-7.1-11.5-12.5s-4-11.7-4-19c0-7.2,1.3-13.5,4-18.9
	c2.7-5.5,6.5-9.7,11.3-12.8s10.5-4.6,17-4.6c3.9,0,7.8,0.7,11.5,2s7,3.3,10,6.1c2.9,2.8,5.3,6.4,7,10.9c1.7,4.4,2.5,9.8,2.5,16.1
	v4.8h-55.5v-10.2h42.2c0-3.6-0.7-6.7-2.2-9.5s-3.5-5-6.1-6.6s-5.7-2.4-9.2-2.4c-3.8,0-7.2,0.9-10,2.8c-2.8,1.8-5,4.3-6.5,7.3
	s-2.3,6.2-2.3,9.7v8c0,4.7,0.8,8.6,2.5,11.9c1.7,3.3,4,5.8,7,7.5s6.4,2.5,10.4,2.5c2.6,0,4.9-0.4,7-1.1c2.1-0.8,4-1.9,5.5-3.4
	s2.7-3.3,3.5-5.5l12.9,2.3c-1,3.8-2.9,7.1-5.5,10c-2.6,2.8-6,5-10,6.6C582.6,248.5,578.1,249.2,573,249.2z"/>
<path class="st1" d="M647.4,249.2c-6.8,0-12.6-1.5-17.5-4.6c-4.8-3.1-8.6-7.3-11.2-12.8c-2.6-5.4-3.9-11.6-3.9-18.6
	c0-7.1,1.3-13.3,4-18.8s6.4-9.7,11.3-12.8c4.8-3.1,10.6-4.6,17.1-4.6c5.3,0,10,1,14.2,3c4.2,1.9,7.5,4.7,10,8.2
	c2.6,3.5,4.1,7.6,4.6,12.3h-13.2c-0.7-3.3-2.4-6.1-5-8.5s-6-3.5-10.4-3.5c-3.8,0-7.1,1-10,3c-2.8,2-5,4.8-6.6,8.5
	c-1.6,3.6-2.4,7.9-2.4,12.9c0,5.1,0.8,9.5,2.3,13.2s3.7,6.6,6.5,8.6s6.2,3,10,3c2.6,0,4.9-0.5,7-1.4c2.1-1,3.9-2.3,5.3-4.1
	c1.5-1.8,2.5-3.9,3-6.5h13.2c-0.5,4.5-2,8.5-4.4,12.1c-2.5,3.5-5.7,6.3-9.9,8.4C657.7,248.2,652.9,249.2,647.4,249.2z"/>
<path class="st1" d="M723.2,178v10.9h-38.1V178H723.2z M695.3,161.3h13.6v66c0,2.6,0.4,4.6,1.2,6c0.8,1.3,1.8,2.2,3,2.7
	c1.3,0.5,2.7,0.7,4.1,0.7c1.1,0,2-0.1,2.9-0.2c0.8-0.2,1.5-0.3,1.9-0.4l2.5,11.2c-0.8,0.3-1.9,0.6-3.4,0.9c-1.5,0.3-3.3,0.5-5.5,0.5
	c-3.6,0.1-6.9-0.6-10-1.9c-3.1-1.3-5.6-3.4-7.5-6.2s-2.9-6.3-2.9-10.5v-68.8H695.3z"/>
<path class="st1" d="M738.3,247.8V178h13.6v69.8H738.3z M745.1,167.2c-2.4,0-4.4-0.8-6.1-2.4c-1.7-1.6-2.5-3.5-2.5-5.7
	s0.8-4.2,2.5-5.7c1.7-1.6,3.7-2.4,6.1-2.4s4.4,0.8,6,2.4c1.7,1.6,2.5,3.5,2.5,5.7s-0.8,4.1-2.5,5.7
	C749.5,166.4,747.5,167.2,745.1,167.2z"/>
<path class="st1" d="M829.9,178l-25.3,69.8H790L764.6,178h14.6l17.7,53.7h0.7l17.6-53.7H829.9z"/>
<path class="st1" d="M870.4,249.2c-6.9,0-12.8-1.5-17.8-4.4c-4.9-3-8.8-7.1-11.5-12.5s-4-11.7-4-19c0-7.2,1.3-13.5,4-18.9
	c2.7-5.5,6.5-9.7,11.3-12.8s10.5-4.6,17-4.6c3.9,0,7.8,0.7,11.5,2s7,3.3,10,6.1c2.9,2.8,5.3,6.4,7,10.9c1.7,4.4,2.5,9.8,2.5,16.1
	v4.8h-55.5v-10.2H887c0-3.6-0.7-6.7-2.2-9.5s-3.5-5-6.1-6.6s-5.7-2.4-9.2-2.4c-3.8,0-7.2,0.9-10,2.8c-2.8,1.8-5,4.3-6.5,7.3
	s-2.3,6.2-2.3,9.7v8c0,4.7,0.8,8.6,2.5,11.9c1.7,3.3,4,5.8,7,7.5s6.4,2.5,10.4,2.5c2.6,0,4.9-0.4,7-1.1c2.1-0.8,4-1.9,5.5-3.4
	s2.7-3.3,3.5-5.5l12.9,2.3c-1,3.8-2.9,7.1-5.5,10c-2.6,2.8-6,5-10,6.6C880,248.5,875.4,249.2,870.4,249.2z"/>
<path class="st1" d="M956.5,202.6v11.8h-41.3v-11.8H956.5z"/>
<path class="st1" d="M1053.1,185h-14.2c-0.5-3-1.6-5.7-3-8c-1.5-2.3-3.3-4.3-5.5-5.9c-2.2-1.6-4.6-2.8-7.2-3.6
	c-2.6-0.8-5.4-1.2-8.4-1.2c-5.4,0-10.2,1.3-14.4,4s-7.5,6.7-10,11.9c-2.4,5.2-3.6,11.6-3.6,19.1c0,7.6,1.2,14,3.6,19.2
	c2.5,5.2,5.8,9.2,10,11.8c4.2,2.7,9,4,14.3,4c2.9,0,5.7-0.4,8.4-1.2c2.7-0.8,5.1-2,7.2-3.6s4-3.5,5.5-5.8s2.6-4.9,3.1-7.9h14.2
	c-0.8,4.6-2.2,8.8-4.4,12.6c-2.2,3.8-4.9,7.1-8.3,9.9c-3.4,2.8-7.2,4.9-11.5,6.4s-9.1,2.3-14.2,2.3c-8.1,0-15.2-1.9-21.5-5.7
	s-11.3-9.3-14.9-16.5c-3.6-7.2-5.4-15.7-5.4-25.6c0-9.9,1.8-18.5,5.5-25.6c3.6-7.2,8.6-12.6,14.9-16.5c6.3-3.8,13.5-5.8,21.5-5.8
	c4.9,0,9.5,0.7,13.8,2.1c4.3,1.4,8.2,3.5,11.6,6.2s6.3,6,8.5,9.9C1050.7,175.6,1052.3,180,1053.1,185z"/>
</svg>
