<?xml version="1.0" encoding="utf-8"?>
<!-- Generator: Adobe Illustrator 27.2.0, SVG Export Plug-In . SVG Version: 6.00 Build 0)  -->
<svg version="1.1" id="Layer_1" xmlns="http://www.w3.org/2000/svg" xmlns:xlink="http://www.w3.org/1999/xlink" x="0px" y="0px"
	 viewBox="0 0 2500 959" style="enable-background:new 0 0 2500 959;" xml:space="preserve">
<style type="text/css">
	.st0{fill:#FFFFFF;}
</style>
<path class="st0" d="M188.6,298.2c-4.8,0-6-2.4-3.6-6l25.4-32.6c2.4-3.6,8.5-6,13.3-6h431.6c4.8,0,6,3.6,3.6,7.3l-20.6,31.4
	c-2.4,3.6-8.5,7.3-12.1,7.3L188.6,298.2z M6,409.4c-4.8,0-6-2.4-3.6-6l25.4-32.6c2.4-3.6,8.5-6,13.3-6h551.3c4.8,0,7.3,3.6,6,7.3
	l-9.7,29c-1.2,4.8-6,7.3-10.9,7.3L6,409.4z M298.6,520.6c-4.8,0-6-3.6-3.6-7.3l16.9-30.2c2.4-3.6,7.3-7.3,12.1-7.3h241.8
	c4.8,0,7.3,3.6,7.3,8.5l-2.4,29c0,4.8-4.8,8.5-8.5,8.5L298.6,520.6z M1553.4,276.4c-76.2,19.3-128.1,33.8-203.1,53.2
	c-18.1,4.8-19.3,6-35.1-12.1c-18.1-20.6-31.4-33.8-56.8-45.9c-76.2-37.5-149.9-26.6-218.8,18.1c-82.2,53.2-124.5,131.8-123.3,229.7
	c1.2,96.7,67.7,176.5,163.2,189.8c82.2,10.9,151.1-18.1,205.5-79.8c10.9-13.3,20.6-27.8,32.6-44.7h-233.3c-25.4,0-31.4-15.7-23-36.3
	c15.7-37.5,44.7-100.3,61.7-131.8c3.6-7.3,12.1-19.3,30.2-19.3h440c-2.4,32.6-2.4,65.3-7.3,97.9c-13.3,87-45.9,166.8-99.1,236.9
	c-87,114.8-200.7,186.2-344.5,205.5c-118.5,15.7-228.5-7.3-325.2-79.8C727.8,790.2,677,700.7,663.7,589.5
	c-15.7-131.8,23-250.2,102.8-354.2c85.8-112.4,199.5-183.8,338.5-209.1c113.6-20.6,222.4-7.3,320.4,59.2
	c64.1,42.3,110,100.3,140.2,170.5C1572.8,266.7,1567.9,272.8,1553.4,276.4z"/>
<path class="st0" d="M1953.6,944.9c-110-2.4-210.3-33.8-295-106.4c-71.3-61.7-116.1-140.2-130.6-233.3
	c-21.8-136.6,15.7-257.5,97.9-365.1c88.2-116.1,194.6-176.5,338.5-201.9c123.3-21.8,239.4-9.7,344.5,61.7
	c95.5,65.3,154.7,153.5,170.5,269.6c20.6,163.2-26.6,296.2-139,409.8c-79.8,81-177.7,131.8-290.1,154.7
	C2017.7,940.1,1985,941.3,1953.6,944.9L1953.6,944.9z M2241.3,456.5c-1.2-15.7-1.2-27.8-3.6-39.9
	c-21.8-119.7-131.8-187.4-246.6-160.8c-112.4,25.4-185,96.7-211.6,210.3c-21.8,94.3,24.2,189.8,111.2,228.5
	c66.5,29,133,25.4,197.1-7.3C2183.3,637.9,2235.3,560.5,2241.3,456.5L2241.3,456.5z"/>
</svg>
