<?xml version="1.0" encoding="utf-8"?>
<!-- Generator: Adobe Illustrator 27.2.0, SVG Export Plug-In . SVG Version: 6.00 Build 0)  -->
<svg version="1.0" id="Layer_1" xmlns="http://www.w3.org/2000/svg" xmlns:xlink="http://www.w3.org/1999/xlink" x="0px" y="0px"
	 viewBox="0 0 54.5 30.6" style="enable-background:new 0 0 54.5 30.6;" xml:space="preserve">
<style type="text/css">
	.st0{fill-rule:evenodd;clip-rule:evenodd;fill:#FFFFFF;}
</style>
<g>
	<path class="st0" d="M35.3,22c0,0.2-0.5,0.5-0.6,0.5C34,23,33,23.3,32.3,22.6c-0.6-0.6-0.4-1.8,0.2-2.2c0.3-0.2,0.8-0.3,1.2-0.3
		c0.4,0,1.1-0.1,1.5-0.1L35.3,22L35.3,22z M30.6,16l0.3,1.1c0.5-0.1,0.7-0.3,1.4-0.4c0.5-0.1,1.1-0.2,1.7-0.1
		c0.6,0.1,0.9,0.3,1.1,0.7c0.1,0.2,0.2,0.5,0.2,0.7l0,0.9c0,0-1.7,0.1-2,0.2c-1.7,0.2-3.4,1.1-3.1,3.2c0.2,1.3,0.9,1.9,2.2,2.1
		c0.7,0.1,1.2,0,1.8-0.3c0.3-0.1,0.5-0.2,0.7-0.4c0.3-0.2,0.5-0.4,0.6-0.5l0.2,0.9H37c0-0.3,0-3.6,0-4c0-0.7,0-1.3,0-2
		c0-0.7,0-1.2-0.4-1.6c-0.9-1.5-2.9-1.4-4.6-1C31.7,15.6,30.8,15.8,30.6,16L30.6,16z"/>
	<path class="st0" d="M51.6,22.1c-0.1,0.1-0.2,0.2-0.4,0.3c-0.4,0.3-0.9,0.5-1.4,0.6c-1.5,0.2-1.9-1.4-1.4-2.2
		C49,20,50.7,20,51.7,20L51.6,22.1L51.6,22.1z M47,16c0,0.2,0.2,0.9,0.3,1.1c0.3-0.1,0.8-0.3,1.4-0.4c0.9-0.2,2.3-0.3,2.8,0.6
		c0.2,0.4,0.3,1.5,0.2,1.6c-0.1,0.1-0.8,0.1-1,0.1c-1,0.1-1.8,0.1-2.6,0.6c-0.9,0.5-1.6,1.3-1.5,2.7c0.2,1.3,0.9,1.9,2.2,2.1
		c1,0.1,1.7-0.1,2.5-0.6c0.3-0.2,0.5-0.4,0.6-0.5l0.2,0.9l1.4,0v-6c0-0.7-0.1-1.2-0.4-1.7c-0.9-1.5-3-1.4-4.6-1
		C48.1,15.6,47.2,15.8,47,16L47,16z"/>
	<path class="st0" d="M40.8,24.2l2.2,0c0.1,0,0.2-0.4,0.3-0.5c0.1-0.2,0.1-0.3,0.2-0.5c0.1-0.3,0.3-0.7,0.4-1c0.5-1.4,1-3,1.3-4.4
		c0.1-0.4,0.5-2.1,0.5-2.4l-1.6,0c-0.4,0-0.2,0-0.3,0.7c-0.1,0.8-0.3,1.5-0.4,2.2c-0.1,0.5-1.1,3.8-1.2,4l-0.5-1.8
		c-0.2-0.6-0.3-1.2-0.5-1.7l-0.8-2.6c-0.1-0.3-0.2-0.6-0.3-0.9l-1.9,0c0,0.2,1.3,4.1,1.4,4.4c0.2,0.7,0.5,1.4,0.7,2.2
		C40.4,22.7,40.6,23.5,40.8,24.2L40.8,24.2z"/>
	<path class="st0" d="M27,15.2l0,7.6c0,1.4-0.5,3-1.9,3.5c0.1,0.2,0.7,0.8,0.9,1c0.5-0.1,1.2-0.5,1.4-0.8c0.4-0.4,0.7-0.7,1-1.3
		c0.6-1.2,0.5-2.5,0.5-4c0-3,0-6,0-9c-0.2,0-1.5,0-1.9,0L27,15.2L27,15.2z"/>
	<path class="st0" d="M11.5,16.5l-0.6-0.9c-0.2-0.3-0.4-0.6-0.6-0.9c-0.3-0.6-0.7-1.3-0.9-2c-0.3-1.3,0.5-2.2,1.2-3
		c0.1-0.1,0.2-0.3,0.4-0.4c0.8-0.8,1.8-1.8,2.6-2.6c0.8-0.8,1.3-1.7,1.4-3C15.1,3,15,1.6,14.5,1.3c0.1,1,0.2,1.7-0.2,2.8
		C13.8,5.3,13,6,12.1,6.7c-0.7,0.6-2,1.6-2.6,2.2C9.1,9.3,8.4,10,8.1,10.7c-0.4,1,0,1.7,0.5,2.4C8.8,13.4,9,13.7,9.2,14
		c0.3,0.4,0.5,0.6,0.7,0.9c0.2,0.3,0.5,0.6,0.8,0.8C10.9,15.9,11.4,16.4,11.5,16.5L11.5,16.5z"/>
	<path class="st0" d="M20.3,25.3c0.3,0.5,0,0.7-0.4,0.9c-1.8,0.8-7.7,1-9.6,1c-1.9,0-3.8,0-5.7-0.4c-0.3-0.1-1.6-0.3-1.7-0.6
		c0-0.2,0.2-0.4,0.3-0.5c0.4-0.3,1.2-0.4,1.7-0.5c0.2,0,0.5-0.1,0.6-0.1C4.8,25,2,25.5,1.4,26.3c-0.4,0.6,0.3,0.8,0.7,1
		c1.6,0.5,5,0.6,6.8,0.7c2.7,0,9.1,0,11.4-1.6c0.1-0.1,0.4-0.3,0.4-0.5C20.8,25.6,20.5,25.4,20.3,25.3L20.3,25.3z"/>
	<path class="st0" d="M12.6,17.6c0.3-0.1,1.1-0.8,1.3-1c0.3-0.3,0.8-0.9,0.8-1.5c0-0.6-0.4-1.4-0.6-1.8c-0.8-1.2-1.4-1.9-0.4-3.2
		c0.4-0.4,0.7-0.8,1.2-1.2c0.5-0.5,1.4-1.1,2.1-1.5L17.9,7c-0.4,0.1-1.4,0.5-1.8,0.6c-0.5,0.2-1.2,0.5-1.6,0.8
		c-1.6,0.9-3.2,2.4-2.6,4.4c0.4,1.4,1.7,2.2,1.6,3.2C13.4,16.7,12.8,17.3,12.6,17.6L12.6,17.6z"/>
	<path class="st0" d="M16,24.3c-0.5-0.2-0.9-0.4-1.3-0.7c-0.3-0.2-0.2-0.1-0.5-0.1c-1.3,0.3-3.5,0.3-5,0.3c-0.4,0-1.4,0-1.6-0.4
		c-0.1-0.2,0-0.4,0.1-0.5c-0.9,0.2-1.9,1-0.6,1.6c1.5,0.7,4.5,0.7,6.1,0.4C13.8,25,15.8,24.5,16,24.3L16,24.3z"/>
	<path class="st0" d="M16.5,21.3c-0.4-0.1-0.7-0.3-1-0.5c-0.2-0.2-0.1-0.1-0.6-0.1c-1.6,0.3-6.3,0.7-7.7,0.2
		c-0.2-0.1-0.4-0.2-0.4-0.4c0-0.2,0.2-0.4,0.3-0.5c-1.1,0.1-2.1,1.2-0.7,1.7c1.6,0.6,5.2,0.6,6.9,0.4C14,22,16,21.6,16.5,21.3
		L16.5,21.3z"/>
	<path class="st0" d="M17.6,17.7c-0.2,0-0.5,0.1-0.7,0.1c-0.2,0-0.5,0.1-0.7,0.1c-1.5,0.2-3.1,0.4-4.5,0.5c-1.1,0.1-5.4,0.2-6.1-0.4
		c0-0.3,0.3-0.4,0.4-0.5c0.7-0.4,1.5-0.5,2.2-0.8c-1-0.1-3.5,0.6-4.4,1.2c-1,0.6,0.7,0.9,1.3,0.9c3.6,0.5,7,0.2,10.5-0.3
		c0.6-0.1,0.7,0,1.1-0.3C17,18.1,17.3,17.9,17.6,17.7L17.6,17.7z"/>
	<path class="st0" d="M5.1,28.6c1,0.4,3.2,0.7,4.3,0.8c1.6,0.1,3.3,0.1,4.9,0c2.1-0.1,4.5-0.4,6.3-1.3c0.4-0.2,1.2-0.7,1.3-1.3
		c-0.1,0.1-0.2,0.2-0.4,0.3c-3.2,2.2-10.5,2-14.3,1.7L5.1,28.6L5.1,28.6z"/>
	<path class="st0" d="M18.3,16.9c0.8-0.2,1.7-0.1,2.2,0.4c0.5,0.5,0.5,1.4,0.2,2.1c-0.5,0.9-1.6,1.8-2.5,2.3
		c-0.2,0.1-0.3,0.2-0.4,0.3c0.6-0.1,2-0.7,2.5-1c0.7-0.4,1.4-1,1.7-1.8c0.4-1.1-0.2-2-0.9-2.4c-0.4-0.2-0.9-0.4-1.4-0.3
		C19.2,16.5,18.5,16.6,18.3,16.9L18.3,16.9z"/>
</g>
</svg>
