<?xml version="1.0" encoding="utf-8"?>
<!-- Generator: Adobe Illustrator 27.2.0, SVG Export Plug-In . SVG Version: 6.00 Build 0)  -->
<svg version="1.0" id="katman_1" xmlns="http://www.w3.org/2000/svg" xmlns:xlink="http://www.w3.org/1999/xlink" x="0px" y="0px"
	 viewBox="0 0 447.7 129.7" style="enable-background:new 0 0 447.7 129.7;" xml:space="preserve">
<style type="text/css">
	.st0{fill:#FFFFFF;}
</style>
<path class="st0" d="M238.1,99.8h-23.7c-5.3-8.2-10-15.4-14.3-21.4c-4.2-6-8.8-12.2-13.8-18.6h-9v28c0,1.5,0.2,2.7,0.7,3.9
	c0.5,1.1,1.4,1.9,2.9,2.5c0.7,0.3,2.1,0.6,3.9,0.8c1.9,0.2,3.4,0.4,4.7,0.4v4.4h-37.3v-4.4c1-0.1,2.4-0.2,4.3-0.4
	c1.9-0.2,3.2-0.5,4-0.8c1.2-0.5,2.1-1.3,2.7-2.4c0.6-1,0.9-2.4,0.9-4V24c0-1.5-0.2-2.7-0.6-3.9c-0.4-1.1-1.4-2-2.9-2.5
	c-1-0.4-2.4-0.7-4-1c-1.7-0.3-3.1-0.5-4.2-0.6v-4.4h40.7c3.7,0,7.2,0.4,10.5,1.2c3.3,0.7,6.2,2,8.9,3.7c2.6,1.7,4.6,3.8,6.2,6.5
	c1.5,2.7,2.3,5.9,2.3,9.6c0,3.4-0.5,6.4-1.6,9c-1,2.6-2.6,4.9-4.6,6.8c-1.9,1.8-4.1,3.3-6.7,4.7c-2.6,1.3-5.5,2.4-8.6,3.3
	c4.4,5.8,8,10.6,10.8,14.5c2.9,3.9,6.4,8.7,10.6,14.4c1.8,2.5,3.5,4.3,4.9,5.5c1.5,1.2,3,2.1,4.4,2.9c1.1,0.5,2.4,1,4,1.2
	c1.6,0.3,3,0.5,4,0.5V99.8z M205.4,34c0-5.3-1.5-9.6-4.6-12.7c-3.1-3.1-7.4-4.7-13-4.7h-10.6v37.9h8.1c5.7,0,10.5-1.8,14.3-5.5
	C203.5,45.3,205.4,40.3,205.4,34z"/>
<path class="st0" d="M305.5,98.7l-20,1.4l-0.9-0.9v-7.8h-0.4c-1,1-2.1,2.2-3.4,3.4c-1.2,1.2-2.7,2.2-4.3,3.2c-1.9,1.1-3.7,2-5.4,2.5
	c-1.7,0.6-4.2,0.9-7.4,0.9c-5.4,0-9.6-1.8-12.4-5.3c-2.8-3.6-4.2-8.7-4.2-15.5V51.2c0-1.5-0.3-2.7-0.9-3.7c-0.5-1-1.3-1.9-2.4-2.7
	c-0.7-0.5-1.7-0.8-2.8-1.1c-1.1-0.2-2.3-0.4-3.5-0.5v-4l20.4-1.5l0.9,0.9v42.6c0,4.4,1,7.8,3,10c2,2.2,4.4,3.4,7.1,3.4
	c2.3,0,4.3-0.4,6.1-1.1s3.3-1.5,4.5-2.5c1.1-0.9,2.1-1.8,2.9-2.7c0.9-1,1.5-1.9,2-2.7V50.8c0-1.4-0.3-2.6-0.9-3.6
	c-0.6-1.1-1.4-2-2.4-2.7c-0.7-0.5-1.9-0.8-3.4-0.9c-1.5-0.1-3.1-0.2-4.9-0.3v-4l22.3-1.5l0.9,0.9v48.7c0,1.4,0.3,2.6,0.9,3.6
	c0.6,1,1.4,1.8,2.4,2.5c0.7,0.5,1.6,0.8,2.7,0.9c1,0.1,2.2,0.2,3.4,0.2V98.7"/>
<path class="st0" d="M375.4,69.1c0,9.2-2.9,16.9-8.7,23.2c-5.8,6.3-12.5,9.4-20.2,9.4c-3.4,0-6.7-0.5-9.9-1.6
	c-3.2-1-6.3-2.4-9.1-4.2l-4.6,7.1l-3.9-0.9c0.2-3.1,0.4-6.8,0.4-11.1c0.1-4.3,0.1-8.5,0.1-12.5V18c0-1.4-0.3-2.8-1-4.2
	c-0.6-1.4-1.4-2.4-2.4-3c-0.8-0.5-2.1-0.9-4-1.2c-1.8-0.3-3.3-0.5-4.4-0.6V5l22.5-1.4l0.9,0.9v40.4l0.4,0.1c2.6-2.7,5.4-4.8,8.4-6.2
	c3.1-1.4,6.1-2.1,9-2.1c7.5,0,13.8,3,18.9,9C372.9,51.7,375.4,59.5,375.4,69.1L375.4,69.1z M362.4,69.5c0-3.1-0.3-6.2-1-9.4
	c-0.7-3.2-1.7-6-3.1-8.3c-1.4-2.4-3.3-4.4-5.5-5.8c-2.3-1.5-5-2.2-8.2-2.2c-2.9,0-5.4,0.6-7.6,1.7c-2.2,1.1-4.1,2.7-5.8,4.6v35.7
	c0.2,1,0.7,2.2,1.4,3.5c0.7,1.3,1.7,2.6,3,3.8c1.2,1.2,2.7,2.1,4.2,2.9c1.6,0.7,3.5,1.1,5.8,1.1c5.1,0,9.1-2.4,12.2-7.3
	C360.9,84.7,362.4,78,362.4,69.5z"/>
<path class="st0" d="M379.9,119.8c0-2.1,0.6-3.8,1.7-5.1c1.2-1.3,2.6-1.9,4.3-1.9c1.3,0,2.5,0.2,3.4,0.7c1,0.5,1.8,1.1,2.5,1.9
	c0.6,0.6,1.3,1.5,2,2.5c0.7,1.1,1.3,2,1.7,2.7c2.1-1.1,4.5-4,7.4-8.8c2.9-4.7,5-8.9,6.3-12.4c-3.9-9.8-7.5-18.6-10.7-26.4
	c-3.2-7.7-6.5-15.8-10-24.1c-0.8-1.9-2.1-3.4-4-4.4c-1.9-1.1-3.7-1.8-5.6-2.1v-4.1h28v4.4c-1.2,0-2.7,0.3-4.5,0.8
	c-1.7,0.5-2.6,1.1-2.6,1.9c0,0,0.1,0.3,0.3,0.9c0.2,0.6,0.5,1.2,0.6,1.8c1.6,4.1,4,10,7.2,17.8c3.2,7.7,5.7,13.9,7.5,18.5
	c1.9-4.4,3.8-9,5.8-13.7c2-4.8,4.3-10.4,6.8-16.8c0.3-0.8,0.7-1.9,1.2-3.2c0.5-1.4,0.8-2.6,0.8-3.6c0-1.1-1-2.1-2.9-3
	c-1.9-1-3.6-1.5-5.3-1.7v-4h22.7v3.9c-1.2,0.2-2.9,0.9-4.9,2.2c-2,1.2-3.5,2.9-4.5,5.2c-4.9,11.4-9.3,21.9-13.2,31.3
	c-3.8,9.4-6.7,16.3-8.7,20.8c-2.6,5.8-5,10.3-7,13.5c-2,3.3-4,5.8-6,7.7c-1.9,1.7-3.6,2.9-5.2,3.5c-1.5,0.6-3.1,0.9-4.8,0.9
	c-3.2,0-5.8-0.8-7.6-2.3C380.8,123.5,379.9,121.8,379.9,119.8"/>
<g>
	<g transform="scale(5.12,5.12)">
		<path class="st0" d="M13.9,0.2c-0.1,0-0.2,0.1-0.3,0.1l-5,1.8c-0.1,0-0.1,0.1-0.2,0.1L3.6,6.9c0,0-0.1,0.1-0.1,0.1l-3.2,5.5
			c0,0,0,0.1-0.1,0.1l0,0c0,0,0,0,0,0c0,0,0,0,0,0c0,0,0,0,0,0c0,0,0,0,0,0c0,0,0,0,0,0c0,0,0,0,0,0c0,0,0,0,0,0c0,0,0,0,0,0
			c0,0,0,0,0,0c0,0,0,0,0,0c0,0,0,0,0,0c0,0,0,0.1,0,0.1v6.7c0,0,0,0,0,0.1v0c0,0.1,0,0.1,0,0.2c0.1,2.4,1.1,3.7,2.2,4.4
			c1.1,0.6,2.3,0.7,3,0.7c0.1,0,0.1,0,0.2,0h0.1c0,0,0.1,0,0.1,0h0l17.4-1.2c0,0,0.1,0,0.1,0c0.1,0,0.1,0,0.2-0.1c0,0,0.1,0,0.1-0.1
			c0,0,0,0,0,0c0.2-0.1,0.2-0.3,0.2-0.5l1.3-17c0,0,0,0,0,0l0.1-0.6c0-0.1,0-0.1,0-0.2c0-0.6-0.1-1.1-0.2-1.6c-0.4-1.6-1.7-3-4-3.4
			c0,0-0.1,0-0.1,0c0,0,0,0,0,0l-6.6-0.1C14.1,0.2,14,0.2,13.9,0.2C14,0.2,14,0.2,13.9,0.2z M15.9,1.3l2.8,0l-1.6,0.9L15.9,1.3z
			 M14,1.4l2.5,1.7l-1.8,5.6l-6.7,6.2l-5.4,1.2l-1.3-3.2l3.1-5.3l4.8-4.4L14,1.4z M20.8,1.4c1.9,0.4,2.7,1.3,3,2.6
			c0.3,1.1,0.1,2.3-0.2,3.5L18,2.9L20.8,1.4z M17.4,3.8L22.5,8L16,8.5L17.4,3.8z M23.2,9.1c-1.1,3.1-3.1,5.7-5.4,8.1l-1.9-7.7
			L23.2,9.1z M14.9,10l1.9,7.5l-7.4-2.4L14.9,10z M23.6,11l-0.8,11.2l-4.4-3.9C20.4,16.1,22.3,13.7,23.6,11z M1.2,15.6l0.5,1.1
			l-0.5,0.9V15.6z M8.7,16.1l7.7,2.5c-2.9,2.6-6,4.6-10,5.2L8.7,16.1z M7.6,16.1L5.5,23L3,17.2L7.6,16.1z M2.2,18L4.8,24
			c-0.6-0.1-1.2-0.2-1.8-0.5c-0.9-0.5-1.6-1.4-1.7-3.6L2.2,18z M17.6,19l4.4,3.9L11,23.6C13.4,22.5,15.6,20.9,17.6,19z"/>
	</g>
</g>
</svg>
