<?xml version="1.0" encoding="UTF-8"?><svg id="a" xmlns="http://www.w3.org/2000/svg" viewBox="0 0 3758.63 406.3"><path d="m3056.87,4.49c3.69-.12,6.84-.32,9.99-.32,55.62-.02,111.24-.05,166.86,0,23.82.02,47.14,3.27,69.59,11.59,10.24,3.8,19.81,8.86,28.64,15.32,18.96,13.87,30.59,32.38,34.63,55.45,2.84,16.22,2.48,32.51-1.77,48.47-6.79,25.5-22.65,43.92-45.5,56.62-2.74,1.52-5.53,2.97-8.08,4.34-.14,2.48,1.61,2,2.55,2.44,1.15.54,2.44.77,3.63,1.23,7.14,2.76,14.58,4.94,21.35,8.41,28.51,14.63,44.93,38.12,49.35,69.77,2.04,14.63,1.78,29.29-1.42,43.83-4.27,19.38-13.84,35.56-28.91,48.48-15.14,12.98-32.96,20.54-52.06,25.41-19.31,4.92-39.02,7.08-58.86,7.16-60.42.24-120.83.09-181.25.07-2.81,0-5.61-.31-8.79-.49-.34-1.94-.77-3.43-.85-4.94-1.01-21.59-.27-384.34.9-392.83Zm42.05,362.81c3.86.15,7.31.39,10.75.39,43.77.03,87.55.06,131.32-.01,12.15-.02,24.26-.72,36.27-2.8,13.62-2.36,26.77-6.07,38.79-13.12,14.8-8.69,24.34-21.29,28.45-37.99,2.95-11.98,3.14-24.1,1.14-36.14-3.17-19.04-13.35-33.54-30.04-43.4-6.92-4.08-14.28-7.11-21.99-9.3-12.03-3.42-24.29-5.66-36.79-5.94-19.48-.43-38.97-.61-58.45-.68-29.71-.11-59.43-.05-89.14,0-3.41,0-6.95-.53-10.05.88-1.27,7.8-1.56,135.91-.25,148.12Zm.31-184.5c3.04.14,5.56.37,8.09.37,39.93.02,79.87.04,119.8,0,10.55,0,21.07-.61,31.48-2.5,13.3-2.41,26.02-6.41,37.6-13.59,15.51-9.62,25.09-23.39,28.38-41.33,1.5-8.2,1.57-16.5.61-24.81-2.1-18.12-10.4-32.61-25.27-43.27-8.4-6.03-17.73-10.12-27.63-12.9-13.91-3.91-28.15-5.64-42.59-5.8-6.71-.07-13.42-.02-20.13-.02-33.54,0-67.09-.04-100.63.05-3.38,0-7.04-1.07-10.1,1.33-1.18,9.6-.96,134.16.38,142.47Z"/><path d="m1333.43,81.14c-.66,3.14-1.07,4.28-1.1,5.43-.1,3.19-.06,6.39-.06,9.58,0,98.09,0,196.19-.02,294.28,0,3.76.54,7.61-.8,11.1-8.06,1.66-32.43,1.67-40.31.09-.29-.79-.88-1.66-.88-2.53-.08-129.73-.12-259.45-.14-389.18,0-1.53.36-3.07.62-5.11,5.88-1.24,11.61-.51,17.27-.64,5.42-.12,10.85-.03,16.75-.03,2.41,2.92,4.88,5.81,7.25,8.79,79.74,100.33,159.47,200.66,239.24,300.97,2.74,3.45,5.09,7.3,9.26,10.53.56-1.61,1.2-2.66,1.25-3.73.16-3.19.1-6.39.1-9.58,0-97.78,0-195.55.01-293.33,0-4.1.11-8.2.17-12.11,7.4-1.97,32-2.1,40.63-.32.2,1.07.63,2.27.63,3.48,0,130.05-.02,260.09-.08,390.14,0,.88-.55,1.77-.82,2.59-6.77,1.48-20.43,1.76-34.3.63-84.18-106.13-168.76-212.76-254.66-321.06Z"/><path d="m1933.94,406.25c-51.24-.16-95.76-12.83-134.73-42.11-41.2-30.95-66.05-72.19-74.98-122.89-5.8-32.92-4.52-65.66,5.05-97.71,16.75-56.09,52.15-96.61,104.79-121.94,37.82-18.2,77.92-23.73,119.53-20.01,23.43,2.1,46.16,7.16,67.53,16.99,67.46,31.01,106.93,83.41,117.2,156.85,5.17,36.98,1.26,73.47-13.67,108.05-26.19,60.67-72.22,98.54-135.68,115.7-18.93,5.12-38.34,6.81-55.05,7.07Zm164.41-202.44c-1.08-10.47-1.45-21.07-3.37-31.38-10.54-56.54-41.72-97.27-94.7-120.35-35.76-15.58-73.26-17.9-110.86-9.01-57.73,13.65-97.57,48.55-117.6,104.76-9.05,25.38-11.27,51.76-7.4,78.42,9.17,63.29,43.43,107.32,102.97,130.83,32.64,12.89,66.71,14.71,100.91,7.53,47.9-10.06,84.77-35.98,108.95-78.94,14.27-25.35,20.35-52.87,21.11-81.86Z"/><path d="m986.24,406.25c-49.05-.19-92.23-11.96-130.38-39.38-45.43-32.67-71.92-77.06-79.76-132.37-4.55-32.05-2.82-63.83,7.18-94.75,19.19-59.35,58.63-100.15,116.06-123.58,34.37-14.03,70.35-17.96,107.25-14.57,24.08,2.21,47.35,7.58,69.27,17.82,63.69,29.78,102.27,79.37,114.27,148.55,6.9,39.8,3.28,79.17-13.02,116.51-26.28,60.2-72.26,97.73-135.37,114.74-18.93,5.1-38.35,6.78-55.49,7.04Zm-4.07-367.74c-12.2-.25-25.88,1.04-39.29,4.25-50.88,12.2-88.82,40.93-111.55,88.47-15.52,32.46-19.24,66.85-12.96,101.94,10.78,60.18,45.18,101.8,102.18,124.01,32.04,12.49,65.41,14.5,99.03,7.67,52.87-10.74,92.36-39.79,115.3-88.93,20.27-43.42,21.29-88.43,4.99-133.33-14.13-38.89-40.32-67.68-77.38-86.35-24.73-12.45-51.08-18-80.31-17.74Z"/><path d="m.63,4.2c90.1,0,179.27,0,268.45.03,1.21,0,2.41.38,4.11.67,1.08,11.66.54,23.01.37,34.79-2.31.37-4.12.86-5.93.92-4.15.13-8.31.05-12.47.05-66.83,0-133.65,0-200.48.02-3.76,0-7.61-.48-11.14.66-1.59,7.46-2.1,63.36-1.26,131.45.03,2.79.37,5.58.56,8.24,4.32,1.84,8.19,1.18,11.95,1.19,60.43.04,120.86.03,181.29.04,3.77,0,7.54.18,11.11.27,1.66,7.41,1.94,21.05.78,34.47-1.54.38-3.27,1.06-5.03,1.19-2.86.22-5.75.09-8.63.09-59.79,0-119.58,0-179.37.02-3.77,0-7.54.21-11.35.32-1.9,3.86-1.29,7.42-1.3,10.83-.07,21.73-.03,43.45-.03,65.18,0,20.13-.01,40.26.02,60.39,0,3.15.21,6.3.35,9.89,2.16.47,3.91,1.07,5.7,1.19,2.87.19,5.75.07,8.63.07,70.98,0,141.96-.01,212.95.04,3.78,0,7.66-.7,11.29.87,1.61,6.86,1.79,24.97.27,34.78-1.58.28-3.35.74-5.15.87-2.23.16-4.47.05-6.71.05-85.69,0-171.38,0-257.07-.03-3.77,0-7.61.54-11.3-.69-.42-1.09-1.06-1.96-1.06-2.84C.08,269.82.03,140.43,0,11.03c0-1.87.34-3.74.63-6.83Z"/><path d="m2750.96,4.4h41.06c3.13,2.49,3.94,6.04,5.37,9.17,39.65,86.53,79.25,173.09,118.86,259.64,18.08,39.5,36.16,79,54.17,118.53,1.41,3.09,3.6,6,3.46,9.63-7.12,1.76-26.98,2.14-42.4.86-2.71-2.11-3.52-5.67-4.93-8.8-13.15-29.11-26.21-58.26-39.32-87.38-1.43-3.17-2.96-6.29-4.28-9.08-7.94-1-210.18-1.23-221.99-.27-1.32,2.74-2.9,5.82-4.33,8.97-13.13,29.12-26.23,58.25-39.36,87.36-1.43,3.17-2.99,6.27-4.33,9.06-12.97,1.32-35.93.99-42.62-.58.09-.88-.05-1.89.31-2.67,59.99-131.29,120.01-262.56,180.31-394.44Zm114.96,256.36c-.09-3.39-1.84-6.12-3.11-8.96-15.36-34.4-30.75-68.79-46.13-103.19-13.68-30.61-27.33-61.23-41.09-91.8-.97-2.14-1.08-5.16-4.88-5.93-30.71,68.65-61.46,137.41-92.18,206.19-.49,1.1-.49,2.41-.73,3.73,1.21.35,2.1.84,2.99.84,60.73.02,121.46.01,182.2-.04.87,0,1.74-.49,2.94-.84Z"/><path d="m3461.34,354.31c5.37-10.6,10.55-20.8,16.01-31.58,1.68.91,3.15,1.38,4.19,2.32,23.25,20.82,50.98,32.6,80.92,39.64,28.36,6.67,56.98,7.2,85.69,2.17,10.11-1.77,19.89-4.61,29.2-9.04,6.39-3.05,12.32-6.79,17.62-11.46,18.75-16.51,25.05-37.11,20-61.37-2.09-10.03-7.21-18.31-14.72-25.23-10.77-9.93-23.27-16.98-37.16-21.24-18.01-5.52-36.16-10.6-54.37-15.41-23.79-6.28-47.54-12.63-70.59-21.35-16.7-6.31-31.27-15.8-43.84-28.52-10.17-10.29-17.04-22.29-20.21-36.35-6.07-26.86-3.65-52.67,9.95-77.01,6.82-12.2,16.11-22.19,27.36-30.4,17.62-12.86,37.44-20.76,58.73-24.68,45.64-8.4,90.39-4.92,133.97,11.38,11.1,4.15,21.72,9.34,31.76,15.66,1.86,1.17,3.61,2.54,5.84,4.12-4,11.31-9.15,21.83-13.71,33.3-2.59-1.34-4.53-2.22-6.34-3.31-37.33-22.47-77.8-31.74-121.15-28.68-12.77.9-25.37,3.03-37.54,7.27-12.9,4.49-24.38,11.26-33.56,21.47-16.39,18.24-20.06,39.37-13.43,62.53,2.05,7.16,6.18,13.25,11.47,18.57,10.37,10.4,22.66,17.74,36.54,22.17,15.2,4.86,30.53,9.39,45.95,13.51,22.84,6.1,45.87,11.46,68.27,19.11,6.65,2.27,13.26,4.68,19.74,7.38,14.34,5.98,26.82,14.71,37.75,25.77,10.17,10.29,16.88,22.37,20.01,36.45,5.52,24.86,3.51,48.85-8.16,71.78-7.89,15.49-19.42,27.59-33.89,37.05-15.44,10.1-32.3,16.95-50.3,20.52-52.8,10.46-104.3,6.09-154.13-14.81-13.92-5.84-26.95-13.27-38.54-23.01-3.15-2.64-6.02-5.61-9.32-8.71Z"/><path d="m686.41,321.28c1.12.65,2.06.96,2.69,1.58,7.94,7.85,15.84,15.75,23.75,23.64-.87,4.12-3.99,6.09-6.44,8.43-21.19,20.32-46.28,33.91-74.3,42.19-25.06,7.4-50.69,9.98-76.78,8.77-24.79-1.15-48.98-5.43-71.89-15-68.14-28.47-109.31-79.01-122.1-151.84-6.59-37.54-3.43-74.59,10.19-110.33,18.47-48.47,51.17-84.58,98.13-106.56,59.41-27.81,120.36-28.98,181.66-6.12,21.81,8.14,40.91,20.91,57.38,37.45,1.54,1.55,2.89,3.31,4.45,5.11-.96,1.28-1.61,2.37-2.48,3.25-7.64,7.7-15.32,15.36-23.29,23.33-1.6-1.1-2.99-1.79-4.06-2.82-32.21-30.83-71.11-44.03-115.17-43.92-35.14.09-67.7,8.94-96.85,28.73-40.08,27.21-63.09,65.13-69.55,113.09-3.55,26.38-1.73,52.43,7.07,77.55,19.35,55.2,58.35,89.72,114.37,104.85,32.11,8.68,64.53,7.87,96.61-1.36,22.52-6.48,42.28-17.85,59.54-33.64,2.33-2.13,4.7-4.24,7.06-6.37Z"/><path d="m2237.87,402.13c-.33-1.67-.77-2.87-.77-4.08-.03-130.7-.03-261.4-.03-392.34,1.45-.57,2.57-1.39,3.7-1.4,11.83-.05,23.66.01,35.49.09.57,0,1.14.45,2.34.96.19,1.47.54,3.28.61,5.11.11,2.87.04,5.75.04,8.63,0,111.22,0,222.45,0,333.67v11.86c2.15.57,3.86,1.3,5.63,1.45,2.86.23,5.75.08,8.63.08,65.57,0,131.14-.01,196.71.03,3.79,0,7.67-.63,11.33.79,1.94,7.52,1.89,27.94-.07,34.87-9.02,1.46-210.32,2.17-257.9.89-1.85-.05-3.69-.39-5.72-.62Z"/><path d="m1784.84,189.61c-.44,2.56-.8,3.74-.83,4.93-.26,10.85-.45,21.7,1.37,32.48,9.46,56.03,40.93,93.88,94.52,112.64,28.7,10.05,58.41,10.93,87.89,3.82,50.05-12.08,84.18-42.44,101.25-91.26,5.97-17.06,7.68-34.83,7.5-52.83-.13-13.55-.03-13.56-11.47-20.51-1.64-.99-3.3-1.97-5.02-2.8-30.1-14.55-61-17.77-92.87-6.35-5.1,1.83-10.13,3.92-15.02,6.26-9.21,4.41-18.24,9.21-27.45,13.63-10.64,5.11-21.3,10.22-32.15,14.87-8.82,3.78-18.09,6.39-27.73,7.08-26.27,1.86-50.78-3.66-73.17-17.81-1.86-1.17-3.76-2.28-6.83-4.13Z"/><path d="m1784.84,189.61c3.07,1.86,4.98,2.96,6.83,4.13,22.39,14.14,46.9,19.67,73.17,17.81,9.64-.68,18.91-3.3,27.73-7.08,10.85-4.64,21.5-9.76,32.15-14.87,9.21-4.42,18.24-9.22,27.45-13.63,4.89-2.34,9.92-4.43,15.02-6.26,31.86-11.43,62.77-8.2,92.87,6.35,1.72.83,3.38,1.8,5.02,2.8,11.45,6.95,11.34,6.96,11.47,20.51.18,18-1.53,35.77-7.5,52.83-17.07,48.82-51.2,79.18-101.25,91.26-29.49,7.11-59.2,6.23-87.89-3.82-53.59-18.76-85.06-56.6-94.52-112.64-1.82-10.78-1.63-21.62-1.37-32.48.03-1.19.38-2.36.83-4.93Z"/></svg>