<?xml version="1.0" encoding="utf-8"?>
<!-- Generator: Adobe Illustrator 27.2.0, SVG Export Plug-In . SVG Version: 6.00 Build 0)  -->
<svg version="1.0" id="EconoLabs_Logos_2-03_copy_xA0_Image_00000016071562913633036600000002443772142298581690_"
	 xmlns="http://www.w3.org/2000/svg" xmlns:xlink="http://www.w3.org/1999/xlink" x="0px" y="0px" viewBox="0 0 4717.4 1248.5"
	 style="enable-background:new 0 0 4717.4 1248.5;" xml:space="preserve">
<style type="text/css">
	.st0{display:none;fill:#333;}
	.st1{fill:#333;}
	.st2{opacity:0.3;fill:#333;}
</style>
<g>
	<path class="st0" d="M0,1248.5C0,832.3,0,416.2,0,0c1572.5,0,3145,0,4717.4,0c0,416.2,0,832.3,0,1248.5
		C3145,1248.5,1572.5,1248.5,0,1248.5z M769.2,1028.8c-0.4-5.5-0.6-10.6-1.1-15.6c-4.9-47.9-26.3-87-63.8-117.1
		c-30.7-24.6-66.2-36.8-105.7-36.9c-109.1-0.1-218.2,0-327.2,0c-2.9,0-5.8,0.1-8.6-0.1c-1.8-0.1-3.5-0.7-5.6-1.2c0-4.6,0-8.7,0-12.9
		c0-217.3,0-434.7,0-652c0-3.2,0.1-6.4,0-9.6c-0.1-1.8-0.4-3.6-0.6-5.3c-9.4-1.6-105.3-2.3-162.5-1.1c-2.2,0-4.3,0.4-6.6,0.6
		c-1.5,4.4-0.9,8.6-0.9,12.7c0,275.2,0,550.4,0,825.6c0,2.6-0.1,5.1,0,7.7c0.1,1.8,0.5,3.6,0.7,5.3
		C96,1030.1,759.7,1030.1,769.2,1028.8z M3984.8,404.8c-1.2,8.5-1.9,371.2-0.9,392.8c0.1,1.5,0.5,3,0.8,4.9c3.2,0.2,6,0.5,8.8,0.5
		c60.4,0,120.8,0.2,181.2-0.1c19.8-0.1,39.6-2.2,58.9-7.2c19.1-4.9,36.9-12.4,52.1-25.4c15.1-12.9,24.6-29.1,28.9-48.5
		c3.2-14.5,3.5-29.2,1.4-43.8c-4.4-31.6-20.8-55.1-49.3-69.8c-6.8-3.5-14.2-5.7-21.3-8.4c-1.2-0.5-2.5-0.7-3.6-1.2
		c-0.9-0.4-2.7,0-2.5-2.4c2.6-1.4,5.3-2.8,8.1-4.3c22.9-12.7,38.7-31.1,45.5-56.6c4.3-16,4.6-32.2,1.8-48.5
		c-4-23.1-15.7-41.6-34.6-55.4c-8.8-6.5-18.4-11.5-28.6-15.3c-22.4-8.3-45.8-11.6-69.6-11.6c-55.6-0.1-111.2,0-166.9,0
		C3991.6,404.5,3988.5,404.7,3984.8,404.8z M428.2,347c3.1,0.2,5.3,0.5,7.5,0.5c55.7,0,111.3,0.1,167,0c20.4,0,40-4.4,58.9-11.8
		c55.8-22,103.9-76.4,107.5-151.6c0.1-2.1-0.5-4.2-0.8-6.9c-4.3-0.1-8.1-0.2-11.9-0.2c-105.2,0-210.5,0-315.7,0
		c-2.2,0-4.5-0.1-6.7,0.1c-1.8,0.1-3.6,0.6-5.7,1C428.2,234.3,428.2,290.2,428.2,347z M428.8,688.6c3,0,5.6,0,8.1,0
		c54.7,0,109.3,0,164,0c13.8,0,27.3-2.1,40.7-5.5C706.7,666.7,765,607.9,769,525.1c0.1-2.1-0.4-4.2-0.6-6c-1.2-0.5-1.8-0.9-2.4-0.9
		c-109.3-0.1-218.6-0.1-327.9-0.2c-2.6,0-5.1,0.1-7.7,0.3c-0.3,0-0.6,0.1-0.9,0.3c-0.3,0.2-0.5,0.4-0.7,0.6
		C427.5,526.6,427.4,678.2,428.8,688.6z M2261.4,481.5c85.9,108.3,170.5,214.9,254.7,321.1c13.9,1.1,27.5,0.8,34.3-0.6
		c0.3-0.8,0.8-1.7,0.8-2.6c0.1-130,0.1-260.1,0.1-390.1c0-1.2-0.4-2.4-0.6-3.5c-8.6-1.8-33.2-1.7-40.6,0.3c-0.1,3.9-0.2,8-0.2,12.1
		c0,97.8,0,195.6,0,293.3c0,3.2,0.1,6.4-0.1,9.6c-0.1,1.1-0.7,2.1-1.3,3.7c-4.2-3.2-6.5-7.1-9.3-10.5
		c-79.8-100.3-159.5-200.6-239.2-301c-2.4-3-4.8-5.9-7.2-8.8c-5.9,0-11.3-0.1-16.7,0c-5.7,0.1-11.4-0.6-17.3,0.6
		c-0.3,2-0.6,3.6-0.6,5.1c0,129.7,0.1,259.5,0.1,389.2c0,0.9,0.6,1.7,0.9,2.5c7.9,1.6,32.2,1.6,40.3-0.1c1.3-3.5,0.8-7.3,0.8-11.1
		c0-98.1,0-196.2,0-294.3c0-3.2,0-6.4,0.1-9.6C2260.3,485.8,2260.7,484.6,2261.4,481.5z M2861.9,806.6c16.7-0.3,36.1-1.9,55.1-7.1
		c63.5-17.2,109.5-55,135.7-115.7c14.9-34.6,18.8-71.1,13.7-108.1c-10.3-73.4-49.7-125.8-117.2-156.9c-21.4-9.8-44.1-14.9-67.5-17
		c-41.6-3.7-81.7,1.8-119.5,20c-52.6,25.3-88,65.9-104.8,121.9c-9.6,32-10.8,64.8-5,97.7c8.9,50.7,33.8,91.9,75,122.9
		C2766.1,793.8,2810.6,806.4,2861.9,806.6z M1914.2,806.6c17.1-0.3,36.6-1.9,55.5-7c63.1-17,109.1-54.5,135.4-114.7
		c16.3-37.3,19.9-76.7,13-116.5c-12-69.2-50.6-118.8-114.3-148.6c-21.9-10.2-45.2-15.6-69.3-17.8c-36.9-3.4-72.9,0.5-107.3,14.6
		c-57.4,23.4-96.9,64.2-116.1,123.6c-10,30.9-11.7,62.7-7.2,94.7c7.8,55.3,34.3,99.7,79.8,132.4
		C1821.9,794.7,1865.1,806.4,1914.2,806.6z M928.6,404.6c-0.3,3.1-0.6,5-0.6,6.8c0,129.4,0.1,258.8,0.2,388.2c0,0.9,0.6,1.7,1.1,2.8
		c3.7,1.2,7.5,0.7,11.3,0.7c85.7,0,171.4,0,257.1,0c2.2,0,4.5,0.1,6.7-0.1c1.8-0.1,3.6-0.6,5.2-0.9c1.5-9.8,1.3-27.9-0.3-34.8
		c-3.6-1.6-7.5-0.9-11.3-0.9c-71,0-142,0-212.9,0c-2.9,0-5.8,0.1-8.6-0.1c-1.8-0.1-3.5-0.7-5.7-1.2c-0.1-3.6-0.3-6.7-0.3-9.9
		c0-20.1,0-40.3,0-60.4c0-21.7,0-43.5,0-65.2c0-3.4-0.6-7,1.3-10.8c3.8-0.1,7.6-0.3,11.4-0.3c59.8,0,119.6,0,179.4,0
		c2.9,0,5.8,0.1,8.6-0.1c1.8-0.1,3.5-0.8,5-1.2c1.2-13.4,0.9-27.1-0.8-34.5c-3.6-0.1-7.3-0.3-11.1-0.3c-60.4,0-120.9,0-181.3,0
		c-3.8,0-7.6,0.7-12-1.2c-0.2-2.7-0.5-5.5-0.6-8.2c-0.8-68.1-0.3-124,1.3-131.4c3.5-1.1,7.4-0.7,11.1-0.7c66.8,0,133.7,0,200.5,0
		c4.2,0,8.3,0.1,12.5-0.1c1.8-0.1,3.6-0.5,5.9-0.9c0.2-11.8,0.7-23.1-0.4-34.8c-1.7-0.3-2.9-0.7-4.1-0.7
		C1107.8,404.5,1018.7,404.6,928.6,404.6z M3678.9,404.8c-60.3,131.9-120.3,263.1-180.3,394.4c-0.4,0.8-0.2,1.8-0.3,2.7
		c6.7,1.6,29.7,1.9,42.6,0.6c1.3-2.8,2.9-5.9,4.3-9.1c13.1-29.1,26.2-58.2,39.4-87.4c1.4-3.2,3-6.2,4.3-9c11.8-1,214-0.7,222,0.3
		c1.3,2.8,2.9,5.9,4.3,9.1c13.1,29.1,26.2,58.3,39.3,87.4c1.4,3.1,2.2,6.7,4.9,8.8c15.4,1.3,35.3,0.9,42.4-0.9
		c0.1-3.6-2.1-6.5-3.5-9.6c-18-39.5-36.1-79-54.2-118.5c-39.6-86.6-79.2-173.1-118.9-259.6c-1.4-3.1-2.2-6.7-5.4-9.2
		C3706.7,404.8,3693.3,404.8,3678.9,404.8z M4389.3,754.7c3.3,3.1,6.2,6.1,9.3,8.7c11.6,9.7,24.6,17.2,38.5,23
		c49.8,20.9,101.3,25.3,154.1,14.8c18-3.6,34.9-10.4,50.3-20.5c14.5-9.5,26-21.6,33.9-37.1c11.7-22.9,13.7-46.9,8.2-71.8
		c-3.1-14.1-9.8-26.2-20-36.5c-10.9-11.1-23.4-19.8-37.7-25.8c-6.5-2.7-13.1-5.1-19.7-7.4c-22.4-7.7-45.4-13-68.3-19.1
		c-15.4-4.1-30.7-8.7-46-13.5c-13.9-4.4-26.2-11.8-36.5-22.2c-5.3-5.3-9.4-11.4-11.5-18.6c-6.6-23.2-3-44.3,13.4-62.5
		c9.2-10.2,20.7-17,33.6-21.5c12.2-4.2,24.8-6.4,37.5-7.3c43.3-3.1,83.8,6.2,121.1,28.7c1.8,1.1,3.8,2,6.3,3.3
		c4.6-11.5,9.7-22,13.7-33.3c-2.2-1.6-4-2.9-5.8-4.1c-10-6.3-20.7-11.5-31.8-15.7c-43.6-16.3-88.3-19.8-134-11.4
		c-21.3,3.9-41.1,11.8-58.7,24.7c-11.3,8.2-20.5,18.2-27.4,30.4c-13.6,24.3-16,50.2-9.9,77c3.2,14.1,10,26.1,20.2,36.3
		c12.6,12.7,27.1,22.2,43.8,28.5c23,8.7,46.8,15.1,70.6,21.3c18.2,4.8,36.4,9.9,54.4,15.4c13.9,4.3,26.4,11.3,37.2,21.2
		c7.5,6.9,12.6,15.2,14.7,25.2c5,24.3-1.2,44.9-20,61.4c-5.3,4.7-11.2,8.4-17.6,11.5c-9.3,4.4-19.1,7.3-29.2,9
		c-28.7,5-57.3,4.5-85.7-2.2c-29.9-7-57.7-18.8-80.9-39.6c-1-0.9-2.5-1.4-4.2-2.3C4399.8,733.9,4394.6,744.1,4389.3,754.7z
		 M1614.3,721.6c-2.4,2.1-4.7,4.2-7.1,6.4c-17.3,15.8-37,27.2-59.5,33.6c-32.1,9.2-64.5,10-96.6,1.4c-56-15.1-95-49.7-114.4-104.9
		c-8.8-25.1-10.6-51.2-7.1-77.5c6.5-48,29.5-85.9,69.5-113.1c29.1-19.8,61.7-28.6,96.9-28.7c44.1-0.1,83,13.1,115.2,43.9
		c1.1,1,2.5,1.7,4.1,2.8c8-8,15.6-15.6,23.3-23.3c0.9-0.9,1.5-2,2.5-3.2c-1.6-1.8-2.9-3.6-4.4-5.1c-16.5-16.5-35.6-29.3-57.4-37.5
		c-61.3-22.9-122.2-21.7-181.7,6.1c-47,22-79.7,58.1-98.1,106.6c-13.6,35.7-16.8,72.8-10.2,110.3c12.8,72.8,54,123.4,122.1,151.8
		c22.9,9.6,47.1,13.8,71.9,15c26.1,1.2,51.7-1.4,76.8-8.8c28-8.3,53.1-21.9,74.3-42.2c2.4-2.3,5.6-4.3,6.4-8.4
		c-7.9-7.9-15.8-15.8-23.8-23.6C1616.4,722.6,1615.5,722.3,1614.3,721.6z M3165.8,802.5c2,0.2,3.9,0.6,5.7,0.6
		c47.6,1.3,248.9,0.6,257.9-0.9c2-6.9,2-27.4,0.1-34.9c-3.7-1.4-7.5-0.8-11.3-0.8c-65.6,0-131.1,0-196.7,0c-2.9,0-5.8,0.1-8.6-0.1
		c-1.8-0.1-3.5-0.9-5.6-1.4c0-4.2,0-8,0-11.9c0-111.2,0-222.4,0-333.7c0-2.9,0.1-5.8,0-8.6c-0.1-1.8-0.4-3.6-0.6-5.1
		c-1.2-0.5-1.8-1-2.3-1c-11.8-0.1-23.7-0.1-35.5-0.1c-1.1,0-2.3,0.8-3.7,1.4c0,130.9,0,261.6,0,392.3
		C3165,799.6,3165.5,800.8,3165.8,802.5z M492.5,421.4c-0.1-20.5-15.2-35.3-35.7-35.8c-21.7-0.5-36.4,18-36.3,36.3
		c0.1,21.5,18.8,36.1,36.8,36.1C474.7,457.8,494,440.9,492.5,421.4z M703.6,751.4c0.9-12.7-11.2-24.2-23.2-24
		c-12.4,0.1-23.9,9.1-23.8,24.2c0,13.9,10.4,23.8,23.6,23.6C693.3,775,703.9,765.4,703.6,751.4z M350.1,539.5
		c-14.1-0.7-24.5,10.4-24.7,23.6c-0.1,10.4,8.3,23.8,23.8,23.5c13.3-0.2,23.9-10.2,24.2-23.1C373.6,553.4,365,538.8,350.1,539.5z
		 M360,241.2c-0.2-6.3-4.8-10.5-11.2-10.3c-5.8,0.2-10.2,4.8-10.1,10.5c0.1,6.3,4.8,10.9,10.8,10.8
		C355.8,252.2,360.2,247.5,360,241.2z M427.1,819.9c6.1,0.2,11.1-4.4,11.4-10.3c0.2-6-4.6-11-10.6-11c-6,0-10.3,4-10.7,9.8
		C416.9,814.7,421.1,819.7,427.1,819.9z M643.7,472.4c-0.2,6.2,4.6,11.6,10.2,11.6c5.5,0,11-5.5,11.1-11.1
		c0.1-5.3-4.8-10.5-10.1-10.9C648.7,461.6,643.9,466.1,643.7,472.4z"/>
	<path class="st1" d="M769.2,1028.8c-9.6,1.3-673.2,1.3-682.1,0.1c-0.2-1.6-0.6-3.4-0.7-5.3c-0.1-2.6,0-5.1,0-7.7
		c0-275.2,0-550.4,0-825.6c0-4.1-0.6-8.2,0.9-12.7c2.3-0.2,4.5-0.6,6.6-0.6c57.3-1.2,153.1-0.5,162.5,1.1c0.2,1.6,0.6,3.4,0.6,5.3
		c0.1,3.2,0,6.4,0,9.6c0,217.3,0,434.7,0,652c0,4.1,0,8.3,0,12.9c2.1,0.5,3.8,1.1,5.6,1.2c2.9,0.2,5.8,0.1,8.6,0.1
		c109.1,0,218.2,0,327.2,0c39.5,0,74.9,12.2,105.7,36.9c37.5,30,58.9,69.1,63.8,117.1C768.6,1018.1,768.8,1023.2,769.2,1028.8z"/>
	<path class="st1" d="M3984.8,404.8c3.7-0.1,6.8-0.3,10-0.3c55.6,0,111.2,0,166.9,0c23.8,0,47.1,3.3,69.6,11.6
		c10.2,3.8,19.8,8.9,28.6,15.3c19,13.9,30.6,32.4,34.6,55.4c2.8,16.2,2.5,32.5-1.8,48.5c-6.8,25.5-22.6,43.9-45.5,56.6
		c-2.7,1.5-5.5,3-8.1,4.3c-0.1,2.5,1.6,2,2.5,2.4c1.1,0.5,2.4,0.8,3.6,1.2c7.1,2.8,14.6,4.9,21.3,8.4c28.5,14.6,44.9,38.1,49.3,69.8
		c2,14.6,1.8,29.3-1.4,43.8c-4.3,19.4-13.8,35.6-28.9,48.5c-15.1,13-33,20.5-52.1,25.4c-19.3,4.9-39,7.1-58.9,7.2
		c-60.4,0.2-120.8,0.1-181.2,0.1c-2.8,0-5.6-0.3-8.8-0.5c-0.3-1.9-0.8-3.4-0.8-4.9C3982.9,776.1,3983.6,413.3,3984.8,404.8z
		 M4026.8,767.6c3.9,0.1,7.3,0.4,10.7,0.4c43.8,0,87.5,0.1,131.3,0c12.1,0,24.3-0.7,36.3-2.8c13.6-2.4,26.8-6.1,38.8-13.1
		c14.8-8.7,24.3-21.3,28.5-38c2.9-12,3.1-24.1,1.1-36.1c-3.2-19-13.4-33.5-30-43.4c-6.9-4.1-14.3-7.1-22-9.3
		c-12-3.4-24.3-5.7-36.8-5.9c-19.5-0.4-39-0.6-58.5-0.7c-29.7-0.1-59.4,0-89.1,0c-3.4,0-7-0.5-10,0.9
		C4025.8,627.3,4025.5,755.4,4026.8,767.6z M4027.2,583.1c3,0.1,5.6,0.4,8.1,0.4c39.9,0,79.9,0,119.8,0c10.6,0,21.1-0.6,31.5-2.5
		c13.3-2.4,26-6.4,37.6-13.6c15.5-9.6,25.1-23.4,28.4-41.3c1.5-8.2,1.6-16.5,0.6-24.8c-2.1-18.1-10.4-32.6-25.3-43.3
		c-8.4-6-17.7-10.1-27.6-12.9c-13.9-3.9-28.2-5.6-42.6-5.8c-6.7-0.1-13.4,0-20.1,0c-33.5,0-67.1,0-100.6,0.1c-3.4,0-7-1.1-10.1,1.3
		C4025.6,450.3,4025.8,574.8,4027.2,583.1z"/>
	<path class="st1" d="M428.2,347c0-56.9,0-112.7,0-169c2.1-0.4,3.9-0.9,5.7-1c2.2-0.2,4.5-0.1,6.7-0.1c105.2,0,210.5,0,315.7,0
		c3.8,0,7.6,0.1,11.9,0.2c0.3,2.7,0.9,4.8,0.8,6.9c-3.6,75.2-51.7,129.7-107.5,151.6c-18.9,7.5-38.5,11.8-58.9,11.8
		c-55.7,0.1-111.3,0-167,0C433.5,347.5,431.3,347.2,428.2,347z"/>
	<path class="st1" d="M428.8,688.6c-1.4-10.4-1.3-162,0-169.4c0.2-0.2,0.5-0.5,0.7-0.6c0.3-0.2,0.6-0.3,0.9-0.3
		c2.6-0.1,5.1-0.3,7.7-0.3c109.3,0,218.6,0.1,327.9,0.2c0.6,0,1.2,0.4,2.4,0.9c0.2,1.8,0.7,3.9,0.6,6
		c-4,82.8-62.3,141.6-127.4,158.1c-13.4,3.4-26.9,5.5-40.7,5.5c-54.7,0-109.3,0-164,0C434.4,688.6,431.8,688.6,428.8,688.6z"/>
	<path class="st1" d="M2261.4,481.5c-0.7,3.1-1.1,4.3-1.1,5.4c-0.1,3.2-0.1,6.4-0.1,9.6c0,98.1,0,196.2,0,294.3
		c0,3.8,0.5,7.6-0.8,11.1c-8.1,1.7-32.4,1.7-40.3,0.1c-0.3-0.8-0.9-1.7-0.9-2.5c-0.1-129.7-0.1-259.5-0.1-389.2
		c0-1.5,0.4-3.1,0.6-5.1c5.9-1.2,11.6-0.5,17.3-0.6c5.4-0.1,10.9,0,16.7,0c2.4,2.9,4.9,5.8,7.2,8.8
		c79.7,100.3,159.5,200.7,239.2,301c2.7,3.4,5.1,7.3,9.3,10.5c0.6-1.6,1.2-2.7,1.3-3.7c0.2-3.2,0.1-6.4,0.1-9.6
		c0-97.8,0-195.6,0-293.3c0-4.1,0.1-8.2,0.2-12.1c7.4-2,32-2.1,40.6-0.3c0.2,1.1,0.6,2.3,0.6,3.5c0,130,0,260.1-0.1,390.1
		c0,0.9-0.5,1.8-0.8,2.6c-6.8,1.5-20.4,1.8-34.3,0.6C2431.8,696.4,2347.3,589.8,2261.4,481.5z"/>
	<path class="st1" d="M2861.9,806.6c-51.2-0.2-95.8-12.8-134.7-42.1c-41.2-31-66-72.2-75-122.9c-5.8-32.9-4.5-65.7,5-97.7
		c16.7-56.1,52.2-96.6,104.8-121.9c37.8-18.2,77.9-23.7,119.5-20c23.4,2.1,46.2,7.2,67.5,17c67.5,31,106.9,83.4,117.2,156.9
		c5.2,37,1.3,73.5-13.7,108.1c-26.2,60.7-72.2,98.5-135.7,115.7C2898,804.7,2878.6,806.3,2861.9,806.6z M3026.3,604.2
		c-1.1-10.5-1.4-21.1-3.4-31.4c-10.5-56.5-41.7-97.3-94.7-120.4c-35.8-15.6-73.3-17.9-110.9-9c-57.7,13.6-97.6,48.6-117.6,104.8
		c-9,25.4-11.3,51.8-7.4,78.4c9.2,63.3,43.4,107.3,103,130.8c32.6,12.9,66.7,14.7,100.9,7.5c47.9-10.1,84.8-36,108.9-78.9
		C3019.4,660.7,3025.5,633.2,3026.3,604.2z"/>
	<path class="st1" d="M1914.2,806.6c-49.1-0.2-92.2-12-130.4-39.4c-45.4-32.7-71.9-77.1-79.8-132.4c-4.5-32-2.8-63.8,7.2-94.7
		c19.2-59.3,58.6-100.1,116.1-123.6c34.4-14,70.4-18,107.3-14.6c24.1,2.2,47.4,7.6,69.3,17.8c63.7,29.8,102.3,79.4,114.3,148.6
		c6.9,39.8,3.3,79.2-13,116.5c-26.3,60.2-72.3,97.7-135.4,114.7C1950.7,804.7,1931.3,806.3,1914.2,806.6z M1910.1,438.9
		c-12.2-0.3-25.9,1-39.3,4.3c-50.9,12.2-88.8,40.9-111.6,88.5c-15.5,32.5-19.2,66.9-13,101.9c10.8,60.2,45.2,101.8,102.2,124
		c32,12.5,65.4,14.5,99,7.7c52.9-10.7,92.4-39.8,115.3-88.9c20.3-43.4,21.3-88.4,5-133.3c-14.1-38.9-40.3-67.7-77.4-86.3
		C1965.7,444.2,1939.3,438.6,1910.1,438.9z"/>
	<path class="st1" d="M928.6,404.6c90.1,0,179.3,0,268.4,0c1.2,0,2.4,0.4,4.1,0.7c1.1,11.7,0.5,23,0.4,34.8
		c-2.3,0.4-4.1,0.9-5.9,0.9c-4.2,0.1-8.3,0.1-12.5,0.1c-66.8,0-133.7,0-200.5,0c-3.8,0-7.6-0.5-11.1,0.7
		c-1.6,7.5-2.1,63.4-1.3,131.4c0,2.8,0.4,5.6,0.6,8.2c4.3,1.8,8.2,1.2,12,1.2c60.4,0,120.9,0,181.3,0c3.8,0,7.5,0.2,11.1,0.3
		c1.7,7.4,1.9,21,0.8,34.5c-1.5,0.4-3.3,1.1-5,1.2c-2.9,0.2-5.8,0.1-8.6,0.1c-59.8,0-119.6,0-179.4,0c-3.8,0-7.5,0.2-11.4,0.3
		c-1.9,3.9-1.3,7.4-1.3,10.8c-0.1,21.7,0,43.5,0,65.2c0,20.1,0,40.3,0,60.4c0,3.2,0.2,6.3,0.3,9.9c2.2,0.5,3.9,1.1,5.7,1.2
		c2.9,0.2,5.8,0.1,8.6,0.1c71,0,142,0,212.9,0c3.8,0,7.7-0.7,11.3,0.9c1.6,6.9,1.8,25,0.3,34.8c-1.6,0.3-3.4,0.7-5.2,0.9
		c-2.2,0.2-4.5,0.1-6.7,0.1c-85.7,0-171.4,0-257.1,0c-3.8,0-7.6,0.5-11.3-0.7c-0.4-1.1-1.1-2-1.1-2.8
		c-0.1-129.4-0.1-258.8-0.2-388.2C927.9,409.5,928.3,407.6,928.6,404.6z"/>
	<path class="st1" d="M3678.9,404.8c14.4,0,27.8,0,41.1,0c3.1,2.5,3.9,6,5.4,9.2c39.6,86.5,79.3,173.1,118.9,259.6
		c18.1,39.5,36.2,79,54.2,118.5c1.4,3.1,3.6,6,3.5,9.6c-7.1,1.8-27,2.1-42.4,0.9c-2.7-2.1-3.5-5.7-4.9-8.8
		c-13.1-29.1-26.2-58.3-39.3-87.4c-1.4-3.2-3-6.3-4.3-9.1c-7.9-1-210.2-1.2-222-0.3c-1.3,2.7-2.9,5.8-4.3,9
		c-13.1,29.1-26.2,58.2-39.4,87.4c-1.4,3.2-3,6.3-4.3,9.1c-13,1.3-35.9,1-42.6-0.6c0.1-0.9-0.1-1.9,0.3-2.7
		C3558.6,667.9,3618.6,536.6,3678.9,404.8z M3793.8,661.1c-0.1-3.4-1.8-6.1-3.1-9c-15.4-34.4-30.8-68.8-46.1-103.2
		c-13.7-30.6-27.3-61.2-41.1-91.8c-1-2.1-1.1-5.2-4.9-5.9c-30.7,68.7-61.5,137.4-92.2,206.2c-0.5,1.1-0.5,2.4-0.7,3.7
		c1.2,0.4,2.1,0.8,3,0.8c60.7,0,121.5,0,182.2,0C3791.8,661.9,3792.6,661.5,3793.8,661.1z"/>
	<path class="st1" d="M4389.3,754.7c5.4-10.6,10.5-20.8,16-31.6c1.7,0.9,3.1,1.4,4.2,2.3c23.2,20.8,51,32.6,80.9,39.6
		c28.4,6.7,57,7.2,85.7,2.2c10.1-1.8,19.9-4.6,29.2-9c6.4-3,12.3-6.8,17.6-11.5c18.8-16.5,25-37.1,20-61.4
		c-2.1-10-7.2-18.3-14.7-25.2c-10.8-9.9-23.3-17-37.2-21.2c-18-5.5-36.2-10.6-54.4-15.4c-23.8-6.3-47.5-12.6-70.6-21.3
		c-16.7-6.3-31.3-15.8-43.8-28.5c-10.2-10.3-17-22.3-20.2-36.3c-6.1-26.9-3.7-52.7,9.9-77c6.8-12.2,16.1-22.2,27.4-30.4
		c17.6-12.9,37.4-20.8,58.7-24.7c45.6-8.4,90.4-4.9,134,11.4c11.1,4.2,21.7,9.3,31.8,15.7c1.9,1.2,3.6,2.5,5.8,4.1
		c-4,11.3-9.2,21.8-13.7,33.3c-2.6-1.3-4.5-2.2-6.3-3.3c-37.3-22.5-77.8-31.7-121.1-28.7c-12.8,0.9-25.4,3-37.5,7.3
		c-12.9,4.5-24.4,11.3-33.6,21.5c-16.4,18.2-20.1,39.4-13.4,62.5c2,7.2,6.2,13.3,11.5,18.6c10.4,10.4,22.7,17.7,36.5,22.2
		c15.2,4.9,30.5,9.4,46,13.5c22.8,6.1,45.9,11.5,68.3,19.1c6.6,2.3,13.3,4.7,19.7,7.4c14.3,6,26.8,14.7,37.7,25.8
		c10.2,10.3,16.9,22.4,20,36.5c5.5,24.9,3.5,48.8-8.2,71.8c-7.9,15.5-19.4,27.6-33.9,37.1c-15.4,10.1-32.3,17-50.3,20.5
		c-52.8,10.5-104.3,6.1-154.1-14.8c-13.9-5.8-26.9-13.3-38.5-23C4395.4,760.7,4392.6,757.8,4389.3,754.7z"/>
	<path class="st1" d="M1614.3,721.6c1.1,0.6,2.1,1,2.7,1.6c7.9,7.9,15.8,15.8,23.8,23.6c-0.9,4.1-4,6.1-6.4,8.4
		c-21.2,20.3-46.3,33.9-74.3,42.2c-25.1,7.4-50.7,10-76.8,8.8c-24.8-1.2-49-5.4-71.9-15c-68.1-28.5-109.3-79-122.1-151.8
		c-6.6-37.5-3.4-74.6,10.2-110.3c18.5-48.5,51.2-84.6,98.1-106.6c59.4-27.8,120.4-29,181.7-6.1c21.8,8.1,40.9,20.9,57.4,37.5
		c1.5,1.6,2.9,3.3,4.4,5.1c-1,1.3-1.6,2.4-2.5,3.2c-7.6,7.7-15.3,15.4-23.3,23.3c-1.6-1.1-3-1.8-4.1-2.8
		c-32.2-30.8-71.1-44-115.2-43.9c-35.1,0.1-67.7,8.9-96.9,28.7c-40.1,27.2-63.1,65.1-69.5,113.1c-3.6,26.4-1.7,52.4,7.1,77.5
		c19.3,55.2,58.4,89.7,114.4,104.9c32.1,8.7,64.5,7.9,96.6-1.4c22.5-6.5,42.3-17.9,59.5-33.6C1609.6,725.9,1612,723.8,1614.3,721.6z
		"/>
	<path class="st1" d="M3165.8,802.5c-0.3-1.7-0.8-2.9-0.8-4.1c0-130.7,0-261.4,0-392.3c1.4-0.6,2.6-1.4,3.7-1.4
		c11.8-0.1,23.7,0,35.5,0.1c0.6,0,1.1,0.4,2.3,1c0.2,1.5,0.5,3.3,0.6,5.1c0.1,2.9,0,5.8,0,8.6c0,111.2,0,222.4,0,333.7
		c0,3.8,0,7.6,0,11.9c2.1,0.6,3.9,1.3,5.6,1.4c2.9,0.2,5.8,0.1,8.6,0.1c65.6,0,131.1,0,196.7,0c3.8,0,7.7-0.6,11.3,0.8
		c1.9,7.5,1.9,27.9-0.1,34.9c-9,1.5-210.3,2.2-257.9,0.9C3169.7,803,3167.8,802.7,3165.8,802.5z"/>
	<path class="st2" d="M492.5,421.4c1.5,19.5-17.8,36.4-35.3,36.5c-18,0.1-36.6-14.6-36.8-36.1c-0.1-18.2,14.6-36.8,36.3-36.3
		C477.3,386.1,492.4,400.9,492.5,421.4z"/>
	<path class="st2" d="M703.6,751.4c0.3,14-10.3,23.7-23.4,23.8c-13.2,0.1-23.5-9.7-23.6-23.6c0-15.2,11.4-24.1,23.8-24.2
		C692.4,727.2,704.5,738.7,703.6,751.4z"/>
	<path class="st2" d="M350.1,539.5c14.9-0.7,23.4,13.9,23.3,23.9c-0.2,12.9-10.8,22.9-24.2,23.1c-15.5,0.3-23.9-13.1-23.8-23.5
		C325.6,549.9,336.1,538.8,350.1,539.5z"/>
	<path class="st2" d="M360,241.2c0.2,6.3-4.2,10.9-10.5,11c-6,0.1-10.7-4.6-10.8-10.8c-0.1-5.6,4.3-10.2,10.1-10.5
		C355.2,230.7,359.8,234.9,360,241.2z"/>
	<path class="st2" d="M427.1,819.9c-6-0.2-10.3-5.2-9.9-11.5c0.4-5.8,4.7-9.8,10.7-9.8c6,0,10.8,5,10.6,11
		C438.3,815.5,433.2,820.1,427.1,819.9z"/>
	<path class="st2" d="M643.7,472.4c0.2-6.3,5-10.8,11.2-10.4c5.3,0.3,10.1,5.5,10.1,10.9c-0.1,5.6-5.6,11.1-11.1,11.1
		C648.3,484,643.6,478.6,643.7,472.4z"/>
	<path class="st1" d="M2712.8,590c-0.4,2.6-0.8,3.7-0.8,4.9c-0.3,10.9-0.4,21.7,1.4,32.5c9.5,56,40.9,93.9,94.5,112.6
		c28.7,10,58.4,10.9,87.9,3.8c50.1-12.1,84.2-42.4,101.3-91.3c6-17.1,7.7-34.8,7.5-52.8c-0.1-13.6,0-13.6-11.5-20.5
		c-1.6-1-3.3-2-5-2.8c-30.1-14.6-61-17.8-92.9-6.3c-5.1,1.8-10.1,3.9-15,6.3c-9.2,4.4-18.2,9.2-27.5,13.6
		c-10.6,5.1-21.3,10.2-32.1,14.9c-8.8,3.8-18.1,6.4-27.7,7.1c-26.3,1.9-50.8-3.7-73.2-17.8C2717.7,592.9,2715.8,591.8,2712.8,590z"
		/>
	<path class="st1" d="M2712.8,590c3.1,1.9,5,3,6.8,4.1c22.4,14.1,46.9,19.7,73.2,17.8c9.6-0.7,18.9-3.3,27.7-7.1
		c10.8-4.6,21.5-9.8,32.1-14.9c9.2-4.4,18.2-9.2,27.5-13.6c4.9-2.3,9.9-4.4,15-6.3c31.9-11.4,62.8-8.2,92.9,6.3
		c1.7,0.8,3.4,1.8,5,2.8c11.4,7,11.3,7,11.5,20.5c0.2,18-1.5,35.8-7.5,52.8c-17.1,48.8-51.2,79.2-101.3,91.3
		c-29.5,7.1-59.2,6.2-87.9-3.8c-53.6-18.8-85.1-56.6-94.5-112.6c-1.8-10.8-1.6-21.6-1.4-32.5C2712,593.7,2712.3,592.5,2712.8,590z"
		/>
</g>
</svg>
