<?xml version="1.0" encoding="utf-8"?>
<!-- Generator: Adobe Illustrator 27.2.0, SVG Export Plug-In . SVG Version: 6.00 Build 0)  -->
<svg version="1.0" id="Layer_1" xmlns="http://www.w3.org/2000/svg" xmlns:xlink="http://www.w3.org/1999/xlink" x="0px" y="0px"
	 viewBox="0 0 1922.7 800" style="enable-background:new 0 0 1922.7 800;" xml:space="preserve">
<style type="text/css">
	.st0{fill:#FFFFFF;}
</style>
<path class="st0" d="M400,0L53.6,200v400L400,800l346.4-200V200L400,0z M364.2,48.2L364.2,48.2c21.2,15.6,50.1,15.6,71.3,0
	l251.1,145c-0.5,4.5-0.5,9,0,13.4l-251.2,145c-21.2-15.6-50.1-15.6-71.2,0l-251.2-145c0.5-4.5,0.5-8.9,0-13.4L364.2,48.2z
	 M710.8,246.7c3.6,2.7,7.5,4.9,11.6,6.7v290c-24.1,10.5-38.6,35.6-35.6,61.7l-251.2,145c-3.6-2.6-7.5-4.9-11.6-6.7L423.7,455
	c24.1-10.5,38.6-35.5,35.7-61.7L710.8,246.7z M89.2,248.3l251.2,145c-3,26.2,11.5,51.2,35.6,61.7v290c-4.1,1.8-8,4.1-11.6,6.7
	l-251.2-145c3-26.2-11.5-51.2-35.6-61.7V255C81.7,253.2,85.6,250.9,89.2,248.3L89.2,248.3z"/>
<g>
	<path class="st0" d="M943.7,202.6V607h-52.2V202.6H943.7z"/>
	<path class="st0" d="M1034.9,207.4c25.2-4.2,58.2-7.8,100.2-7.8c51.6,0,89.4,12,113.4,33.6c22.2,19.2,35.4,48.6,35.4,84.6
		c0,36.6-10.8,65.4-31.2,86.4c-27.6,29.4-72.6,44.4-123.6,44.4c-15.6,0-30-0.6-42-3.6v162h-52.2V207.4z M1087.1,402.4
		c11.4,3,25.8,4.2,43.2,4.2c63,0,101.4-30.6,101.4-86.4c0-53.4-37.8-79.2-95.4-79.2c-22.8,0-40.2,1.8-49.2,4.2V402.4z"/>
	<path class="st0" d="M1354.1,202.6h217.8v43.8h-165.6v134.4h153V424h-153v183h-52.2V202.6z"/>
	<path class="st0" d="M1639.1,543.4c23.4,14.4,57.6,26.4,93.6,26.4c53.4,0,84.6-28.2,84.6-69c0-37.8-21.6-59.4-76.2-80.4
		c-66-23.4-106.8-57.6-106.8-114.6c0-63,52.2-109.8,130.8-109.8c41.4,0,71.4,9.6,89.4,19.8l-14.4,42.6
		c-13.2-7.2-40.2-19.2-76.8-19.2c-55.2,0-76.2,33-76.2,60.6c0,37.8,24.6,56.4,80.4,78c68.4,26.4,103.2,59.4,103.2,118.8
		c0,62.4-46.2,116.4-141.6,116.4c-39,0-81.6-11.4-103.2-25.8L1639.1,543.4z"/>
</g>
</svg>
