<?xml version="1.0" encoding="utf-8"?>
<!-- Generator: Adobe Illustrator 27.2.0, SVG Export Plug-In . SVG Version: 6.00 Build 0)  -->
<svg version="1.0" id="katman_1" xmlns="http://www.w3.org/2000/svg" xmlns:xlink="http://www.w3.org/1999/xlink" x="0px" y="0px"
	 viewBox="0 0 706.1 269.3" style="enable-background:new 0 0 706.1 269.3;" xml:space="preserve">
<style type="text/css">
	.st0{fill:#FFFFFF;}
</style>
<g>
	<path class="st0" d="M129.1,19.5c-1,0.1-2,0.2-3,0.3l-8.7-9.3c-1.4-1.5-3.7-1.6-5.2-0.2c-0.4,0.4-0.7,0.9-0.9,1.4l-4.5,11.9
		c-0.9,0.3-1.9,0.6-2.8,0.9L93.7,17c-1.6-1.2-3.9-0.8-5.1,0.8c-0.3,0.5-0.6,1-0.6,1.6L85.9,32c-0.9,0.4-1.7,0.9-2.6,1.4l-11.6-5.3
		c-0.5-0.2-1-0.3-1.5-0.3c-2,0-3.7,1.7-3.7,3.7c0,0,0,0.1,0,0.1L67,44.3c-0.8,0.6-1.5,1.2-2.2,1.8l-12.5-2.9c-2-0.5-3.9,0.8-4.4,2.8
		c-0.1,0.5-0.1,1.1,0,1.6l2.9,12.5c-0.6,0.7-1.2,1.5-1.8,2.2l-12.8-0.4H36c-2,0-3.6,1.6-3.7,3.6c0,0.5,0.1,1,0.3,1.5L38,78.7
		c-0.5,0.9-0.9,1.7-1.4,2.6L24,83.3c-2,0.3-3.3,2.2-3,4.2c0.1,0.6,0.3,1.1,0.6,1.5l7.4,10.4c-0.3,1-0.6,1.9-0.9,2.8l-11.9,4.5
		c-1.9,0.7-2.8,2.8-2.1,4.7c0.2,0.5,0.5,1,0.9,1.4l9.3,8.7c-0.1,1-0.2,2-0.3,3l-10.8,6.7c-1.7,1.1-2.2,3.3-1.2,5
		c0.3,0.5,0.7,0.9,1.2,1.2l10.8,6.7c0.1,1,0.2,2,0.3,3l-9.3,8.7c-1.5,1.4-1.6,3.7-0.2,5.2c0.4,0.4,0.9,0.7,1.4,0.9l11.9,4.5
		c0.3,1,0.6,1.9,0.9,2.8l-7.4,10.4c-1.2,1.6-0.8,3.9,0.8,5.1c0.5,0.3,1,0.6,1.6,0.6l12.6,2.1c0.4,0.9,0.9,1.7,1.4,2.6l-5.3,11.6
		c-0.8,1.8,0,4,1.8,4.8c0.5,0.2,1,0.3,1.5,0.3h0.1l12.8-0.5c0.6,0.8,1.2,1.5,1.8,2.2L47.9,221c-0.5,2,0.8,3.9,2.8,4.4
		c0.5,0.1,1.1,0.1,1.7,0l12.5-2.9c0.7,0.6,1.5,1.2,2.2,1.8l-0.4,12.8v0.1c0,2,1.6,3.6,3.6,3.6c0.5,0,1.1-0.1,1.5-0.3l11.6-5.3
		c0.9,0.5,1.7,0.9,2.6,1.4l2.1,12.6c0.3,2,2.2,3.4,4.2,3c0.6-0.1,1.1-0.3,1.5-0.6l10.4-7.4c0.9,0.3,1.9,0.6,2.8,0.9l4.5,11.9
		c0.7,1.9,2.8,2.9,4.7,2.1c0.5-0.2,1-0.5,1.4-0.9l8.7-9.3c1,0.1,2,0.2,3,0.3l6.7,10.8c1.1,1.7,3.3,2.2,5,1.2
		c0.5-0.3,0.9-0.7,1.2-1.2l6.7-10.8c1-0.1,2-0.2,3-0.3l8.7,9.3c0.9,0.9,2.1,1.3,3.4,1.1c1.2-0.2,2.3-1.1,2.7-2.3L171,245
		c0.9-0.3,1.9-0.6,2.8-0.9l10.4,7.4c1.6,1.2,3.9,0.8,5.1-0.9c0.3-0.5,0.5-1,0.6-1.5l2.1-12.6c0.9-0.5,1.7-0.9,2.6-1.4l11.6,5.3
		c0.5,0.2,1,0.3,1.5,0.3c2,0,3.6-1.6,3.6-3.6v-0.1l-0.5-12.8c0.8-0.6,1.5-1.2,2.2-1.8l12.5,2.9c2,0.5,3.9-0.8,4.4-2.8
		c0.1-0.5,0.1-1.1,0-1.6l-2.9-12.5c0.6-0.7,1.2-1.5,1.8-2.2l12.8,0.5h0.1c2,0,3.7-1.6,3.7-3.7c0-0.5-0.1-1-0.3-1.5l-5.3-11.6
		c0.5-0.9,0.9-1.7,1.4-2.6l12.6-2.1c2-0.3,3.4-2.2,3-4.2c-0.1-0.5-0.3-1.1-0.6-1.5l-7.4-10.4c0.3-0.9,0.6-1.9,0.9-2.8l11.9-4.5
		c1.9-0.7,2.9-2.8,2.1-4.7c-0.2-0.5-0.5-1-0.9-1.4l-9.3-8.7c0.1-1,0.2-2,0.3-3l10.8-6.7c1.7-1.1,2.2-3.3,1.2-5
		c-0.3-0.5-0.7-0.9-1.2-1.2l-10.8-6.7c-0.1-1-0.2-2-0.3-3l9.3-8.7c1.5-1.4,1.5-3.7,0.2-5.2c-0.4-0.4-0.9-0.7-1.4-0.9l-11.9-4.5
		c-0.3-1-0.6-1.9-0.9-2.8l7.4-10.4c1.2-1.6,0.8-3.9-0.8-5.1c-0.5-0.3-1-0.6-1.5-0.6l-12.6-2.1c-0.5-0.9-0.9-1.7-1.4-2.6l5.3-11.6
		c0.2-0.5,0.3-1,0.3-1.5c0-2-1.6-3.6-3.6-3.6h-0.1l-12.8,0.4c-0.6-0.8-1.2-1.5-1.8-2.2l2.9-12.5c0.5-2-0.8-3.9-2.8-4.4
		c-0.5-0.1-1.1-0.1-1.6,0l-12.5,3c-0.7-0.6-1.5-1.2-2.2-1.8l0.5-12.8v-0.1c0-2-1.6-3.7-3.7-3.7c-0.5,0-1,0.1-1.5,0.3l-11.6,5.3
		c-0.9-0.5-1.7-0.9-2.6-1.4l-2.1-12.6c-0.3-2-2.2-3.4-4.2-3c-0.6,0.1-1.1,0.3-1.5,0.6l-10.4,7.4c-0.9-0.3-1.9-0.6-2.8-0.9l-4.5-11.9
		c-0.7-1.9-2.8-2.9-4.7-2.1c-0.5,0.2-1,0.5-1.4,0.9l-8.7,9.3c-1-0.1-2-0.2-3-0.3l-6.7-10.8c-1.1-1.7-3.3-2.2-5-1.2
		c-0.5,0.3-0.9,0.7-1.2,1.2C135.8,8.6,129.1,19.5,129.1,19.5z M117.8,142.9h24.1c2.2,0,11.8,0.6,14.8,12.9c0.9,3.8,3.1,16,4.5,19.9
		c1.4,4.4,7.3,13.2,13.5,13.2h39.4c-2.6,3.5-5.5,6.9-8.6,10l-16-3.4c-3.7-0.8-7.4,1.6-8.2,5.3l-3.8,17.8
		c-24.8,11.2-53.2,11.1-77.8-0.4l-3.8-17.8c-0.8-3.7-4.5-6.1-8.2-5.3l-15.7,3.4c-2.9-3-5.6-6.2-8.1-9.6h76.2c0.9,0,1.4-0.1,1.4-1
		v-27c0-0.8-0.6-1-1.4-1h-22.3C117.8,160,117.8,142.9,117.8,142.9z M194.9,205c4.1,0.1,7.3,3.5,7.4,7.6c0,4.2-3.4,7.6-7.6,7.6
		c-4.2,0-7.5-3.4-7.6-7.6l0,0c0-4.2,3.4-7.5,7.6-7.6H194.9z M82.6,204.7c4.1,0.1,7.3,3.5,7.4,7.6c0,4.2-3.4,7.5-7.6,7.6
		c-4.2,0-7.5-3.4-7.6-7.6l0,0c0-4.2,3.4-7.5,7.6-7.6H82.6z M673.4,81.4h-33.6v7.1c0,6.8-3.6,11.6-12,11.6v26h7v28.7
		c0,26.9,12.4,35.6,33.7,35.6c15.4,0,27.2-4.8,27.2-4.8v-24.9c0,0-7.3,1.4-13.2,1.4c-6,0-9.2-3-9.2-10.1v-26h21.4v-26h-21.4
		L673.4,81.4L673.4,81.4z M548,185.5c0,0,14.1,4.9,38.2,4.9c27.4,0,39.9-11.6,39.9-30.4c0-18.4-11.4-27.2-35.8-29.8
		c-9.8-1-12-2.1-12-4.6s3.6-3.8,12.2-3.8c13,0,30.1,2.2,30.1,2.2v-21.4c0,0-12.5-4.8-36.8-4.8c-28.8,0-40.4,12.5-40.4,29
		c0,17.7,13.3,27.1,35.3,30.1c10,1.4,12.2,2.4,12.2,5.2c0,2.5-2.1,4.1-11.4,4.1c-11.7,0-31.5-2.9-31.5-2.9V185.5z M479.1,100.1
		h-43.4v26h7v26c0,26.5,10.8,38.3,28,38.3c14.3,0,21.7-7.9,26.8-13v10.8h43.4v-26h-7v-62.1h-45v26h8.5v26c0,7.1-3.2,10.1-9.2,10.1
		s-9.2-3-9.2-10.1L479.1,100.1L479.1,100.1z M368.4,136.3c13.1,0,18.5,2.1,18.5,14.7v37.2h50.2v-26h-7.4V150
		c0-11.1-5.1-17.1-15.2-18.7l-0.2-1.6c10.8-4.1,16.5-15.2,16.5-29.1c0-26.1-16-35.6-42-35.6h-74.3v26h9.5v71.3h-9.5v26h64.3v-26
		h-10.5C368.4,162.2,368.4,136.3,368.4,136.3z M156.1,41.8c26.9,5.1,50.3,21.7,63.9,45.5l-9,20.2c-1.5,3.5,0,7.6,3.5,9.1l17.2,7.6
		c0.5,5.4,0.6,10.8,0.2,16.2h-9.6c-1,0-1.3,0.6-1.3,1.6v4.4c0,10.3-5.8,12.6-11,13.2c-4.9,0.6-10.3-2-11-5
		c-2.9-16.2-7.7-19.6-15.2-25.6c9.4-6,19.1-14.8,19.1-26.5c0-12.7-8.7-20.7-14.6-24.6c-8.3-5.5-17.6-6.6-20-6.6h-99
		c13.7-15.3,32-25.6,52.2-29.4L133.3,54c2.6,2.8,7,2.9,9.7,0.2c0,0,0,0,0,0C143,54.2,156.1,41.8,156.1,41.8z M62.6,99.5h13.2V159
		H49.2c-3.3-11.6-4.3-23.7-3-35.6l16.3-7.3c3.5-1.5,5.1-5.6,3.5-9.1C66,107,62.6,99.5,62.6,99.5z M117.8,100.1h31.5
		c1.6,0,11.5,1.9,11.5,9.3c0,6.1-7.6,8.3-13.8,8.3h-29.2L117.8,100.1z M368.4,116.9V91h8.5c6,0,9.2,3,9.2,10.1v5.7
		c0,7.1-3.2,10.1-9.2,10.1L368.4,116.9L368.4,116.9z M229.1,98.2c4.1,0.1,7.3,3.5,7.4,7.6c0,4.2-3.4,7.5-7.6,7.6
		c-4.2,0-7.5-3.4-7.6-7.6l0,0c0-4.2,3.4-7.6,7.6-7.6H229.1z M48.3,97.9c4.1,0.1,7.3,3.5,7.4,7.6c0,4.2-3.4,7.5-7.6,7.6
		c-4.2,0-7.5-3.4-7.6-7.6l0,0c0-4.2,3.4-7.5,7.6-7.6H48.3z M138.8,29.3c4.1,0.1,7.3,3.5,7.4,7.6c0,4.2-3.4,7.6-7.6,7.6
		c-4.2,0-7.5-3.4-7.6-7.6v0c0-4.2,3.4-7.6,7.6-7.6C138.5,29.3,138.8,29.3,138.8,29.3z"/>
</g>
</svg>
