<svg width="653" height="274" viewBox="0 0 653 274" fill="none" xmlns="http://www.w3.org/2000/svg">
<path d="M14.7 193.9C17.4 193.9 19.4 193.9 21.3 193.9C44.8 193.9 68.3 193.8 91.8 194C96 194 98.3 192.6 100.3 188.9C112.3 167.2 124.6 145.6 136.7 124C137.6 122.5 138.5 121 139.7 119C140.8 120.8 141.7 122.1 142.5 123.5C154.9 145.5 167.3 167.6 179.8 189.6C181.3 192.2 181.5 194.1 179.9 196.8C167.1 219.2 154.5 241.7 141.9 264.3C140.4 266.9 138.9 268.1 135.7 268.1C110.4 268 85 268.1 59.7 267.9C57.8 267.9 55.1 266.6 54.2 265.1C41.2 242.4 28.5 219.6 15.7 196.8C15.7 196.3 15.5 195.6 14.7 193.9Z" fill="white"/>
<path d="M55.2 155.1C54.1 153.5 53.3 152.3 52.6 151C40.1 128.8 27.6 106.6 15.1 84.4C13.6 81.8 13.5 79.9 15 77.2C27.8 54.8 40.4 32.3 53 9.7C54.4 7.1 56 6 59.1 6C84.4 6.1 109.8 6 135.1 6.2C136.9 6.2 139.5 7.2 140.3 8.6C153.3 31.3 166 54.1 178.8 76.9C179.2 77.6 179.4 78.4 179.9 79.8C177.5 79.9 175.6 80.1 173.6 80.1C150.1 80.1 126.6 80.2 103.1 80C98.9 80 96.6 81.4 94.5 85.1C82.5 106.8 70.2 128.4 58.1 150C57.3 151.6 56.4 153.1 55.2 155.1Z" fill="white"/>
<path d="M619.6 132.2C624.2 122.2 628.8 113.1 632.6 103.7C634.6 98.9 637.3 97 642.3 97.8C643.9 98.1 645.6 97.8 648 97.8C643.9 106.2 640.7 114.3 636.2 121.6C626.9 136.4 623.2 152.3 625.2 169.6C625.4 171.6 625.2 173.5 625.2 175.9C621.5 175.9 618.1 175.9 614.2 175.9C614.2 166.7 614.3 157.5 614.1 148.4C614 145.9 613.4 143.1 612.3 140.8C606 127.8 599.5 114.9 592.5 100.6C592.1 103.9 591.9 105.8 591.6 108.3C584.9 108.3 578.3 108.3 571.1 108.3C571.1 131 571.1 153.3 571.1 175.8C566.9 175.8 563.3 175.8 559.2 175.8C559.2 153.5 559.2 131.3 559.2 108.5C552.1 108.5 545.5 108.5 538.6 108.5C538.6 104.9 538.6 101.8 538.6 98.1C540.1 98 541.7 97.8 543.3 97.8C562 97.8 580.6 97.9 599.3 97.7C602.7 97.7 604.2 98.7 605.6 101.8C609.9 111.8 614.6 121.5 619.6 132.2Z" fill="white"/>
<path d="M450.1 176.3C450.1 149.8 450.1 124.2 450.1 98.4C460.9 98.4 471.6 97.5 482.1 98.6C493.5 99.8 502.6 110.5 503.1 122C503.6 132 503.6 142 503 151.9C502.3 165.4 490.8 176 477.3 176.3C468.4 176.4 459.4 176.3 450.1 176.3ZM462 109.5C462 128.1 462 146.4 462 164.9C467.4 164.9 472.4 165.2 477.3 164.8C485.3 164.2 490.9 159.3 491.4 151.2C492 141.8 491.9 132.3 491.3 122.8C490.8 115.7 485.5 110.3 478.5 109.5C473.2 109 467.7 109.5 462 109.5Z" fill="white"/>
<path d="M346.2 137.3C346.2 142.3 346.4 147.3 346.2 152.3C345.6 166.1 334.5 176.7 320.5 177.1C306.4 177.5 294.1 167.7 293.2 154.1C292.4 142.7 292.4 131.1 293.2 119.7C294.2 106 306.7 96.6 321.4 97.2C334.7 97.8 345.7 108.5 346.3 121.8C346.4 126.9 346.2 132.1 346.2 137.3ZM335.2 136.8C334.9 132 334.7 127.2 334.1 122.4C333.1 114.7 327.1 109.3 319.6 109.2C312.4 109.1 305.6 114 305 121.5C304.2 131.9 304.2 142.4 305 152.8C305.6 160.2 312.6 165.2 319.6 165.1C327 164.9 333.1 159.4 334 151.8C334.7 146.8 334.8 141.9 335.2 136.8Z" fill="white"/>
<path d="M273.4 114.4C267.2 112.6 261.9 110.5 256.5 109.6C253.6 109.1 250.2 109.9 247.3 110.9C243 112.4 240.8 116.4 241.6 120.4C242.2 123.5 244.9 127.1 247.7 128.7C251 130.6 255.3 130.7 259.3 131.3C275.2 133.6 283 143.1 281.2 158.3C280.3 165.6 276.8 171.1 270 174.3C256.8 180.5 236.8 176.9 225.9 166.2C228.3 163.3 230.7 160.4 233.2 157.3C240.2 162.7 247.9 165.6 256.5 165C261.9 164.6 267.3 163.6 269.2 157.3C271.1 151 267.9 145.6 261.3 144.2C257.4 143.3 253.4 143 249.5 142.2C236.8 139.9 229.4 131.5 229.7 119.8C230 107.2 237.6 98.7 250.7 97.4C261 96.3 270.5 98.9 279.4 105.4C277.1 108.6 275.1 111.7 273.4 114.4Z" fill="white"/>
<path d="M372.9 165.2C385.7 165.2 397.6 165.2 409.8 165.2C409.8 169 409.8 172.4 409.8 176C393.6 176 377.7 176 361.5 176C361.5 150 361.5 124.3 361.5 98.2C365.3 98.2 368.8 98.2 372.9 98.2C372.9 120.3 372.9 142.4 372.9 165.2Z" fill="white"/>
<path d="M433.3 176C429.4 176 426 176 422.3 176C422.3 150 422.3 124.3 422.3 98.2C425.9 98.2 429.4 98.2 433.3 98.2C433.3 124.1 433.3 149.8 433.3 176Z" fill="white"/>
<path d="M529.9 176C526.1 176 522.7 176 518.9 176C518.9 150.1 518.9 124.4 518.9 98.2C522.5 98.2 526 98.2 529.9 98.2C529.9 124 529.9 149.7 529.9 176Z" fill="white"/>
</svg>
