<?xml version="1.0" encoding="utf-8"?>
<!-- Generator: Adobe Illustrator 27.2.0, SVG Export Plug-In . SVG Version: 6.00 Build 0)  -->
<svg version="1.0" id="Layer_1" xmlns="http://www.w3.org/2000/svg" xmlns:xlink="http://www.w3.org/1999/xlink" x="0px" y="0px"
	 viewBox="0 0 4222.2 1115" style="enable-background:new 0 0 4222.2 1115;" xml:space="preserve">
<style type="text/css">
	.st0{fill:#FFFFFF;}
</style>
<path class="st0" d="M0,665v300l260,150l260-150V665L260,515L0,665z M855,515L595,665v300l260,150l260-150V665L855,515z
	 M817.3,300.3L687.4,225l-0.1-150L557.5,0L297.7,150v300l259.8,150l259.8-150V300.3z"/>
<path class="st0" d="M817.3,300.3L947.2,225V75L817.5,0L687.3,75l130.2,74.8L817.3,300.3z"/>
<g>
	<path class="st0" d="M2415.5,300.7l-63.6,443c-0.1,0.7-1.2,0.7-1.2,0l-55.9-443c0-0.3-0.3-0.6-0.6-0.5h-158.4
		c-0.3,0-0.6,0.2-0.6,0.5l-55.9,443c-0.1,0.7-1.1,0.7-1.2,0l-63.6-443c0-0.3-0.3-0.5-0.6-0.5h-96.6c-0.3,0-0.6,0.3-0.6,0.6
		c0,0,0,0.1,0,0.1l80.6,512.6c0.1,0.3,0.3,0.5,0.6,0.5h158.2c0.3,0,0.6-0.2,0.6-0.5l57.7-442.2c0.1-0.7,1.2-0.7,1.2,0l57.7,442.2
		c0,0.3,0.3,0.5,0.6,0.5h158.2c0.3,0,0.6-0.2,0.6-0.5l80.6-512.6c0.1-0.3-0.2-0.7-0.5-0.7c0,0-0.1,0-0.1,0h-96.6
		C2415.8,300.2,2415.6,300.4,2415.5,300.7L2415.5,300.7z M4189.5,324.8c-22-25.6-53.4-38.6-93.2-38.6c-50.9,0-89.1,22.9-113.4,68.1
		h-0.4c-6.8-18.9-18-34.7-33.4-47.1c-17.2-13.9-39.1-21-65-21c-24.3,0-45.8,6-63.9,18c-15.2,10-27.5,24.8-36.5,44v-47.3
		c0-0.3-0.3-0.6-0.6-0.6h-94.3c-0.3,0-0.6,0.3-0.6,0.6v512.6c0,0.3,0.3,0.6,0.6,0.6h94.3c0.4,0,0.6-0.3,0.6-0.6V463.1
		c0-26,6-47.1,17.8-62.8c11.4-15.1,27.2-22.5,48.6-22.5c17.5,0,31,6,41.3,18.4c10.8,12.9,16,28.9,16,48.9v368.4
		c0,0.3,0.3,0.6,0.6,0.6h94.3c0.4,0,0.6-0.3,0.6-0.6V469.1c0-31.8,6.2-55.3,18.5-69.9c12-14.4,27.4-21.4,46.8-21.4
		c20.5,0,34.9,6.2,43.9,18.8c9.5,13.5,14.4,31.1,14.4,52.5v364.4c0,0.3,0.3,0.6,0.6,0.6h94.9V423
		C4222.2,383,4211.2,350,4189.5,324.8L4189.5,324.8z M3084.5,758.2l-59.7,66.7c-0.2,0.3-0.6,0.3-0.9,0.1l-105.2-91.2
		c-0.2-0.2-0.5-0.2-0.8-0.1l-125.8,73.5c-21.2,12.1-43.4,18.2-67.7,18.2c-35.4,0-67.7-13.1-95.9-38.4c-27.3-26.3-41.4-58.6-41.4-98
		c0-47.5,25.2-93.9,68.7-118.2l254.2-146.2c0.2-0.1,0.3-0.3,0.3-0.6v-32.3c0-0.4-0.3-0.6-0.6-0.6H2613c-0.4,0-0.6-0.3-0.6-0.6v-89.6
		c0-0.4,0.3-0.6,0.6-0.6h387.5c0.4,0,0.6,0.3,0.6,0.6v383.8c0,0.2,0.1,0.4,0.2,0.5l83.1,72.1
		C3084.7,757.5,3084.7,757.9,3084.5,758.2L3084.5,758.2z M2746.6,728.4l163.3-94.7c0.2-0.1,0.3-0.3,0.3-0.6V530.5
		c0-0.5-0.5-0.8-1-0.6l-208.1,119.6c-15.1,9.1-23.2,22.2-23.2,39.4c0,25.2,22.2,45.5,45.4,45.5
		C2732.5,734.4,2739.5,732.4,2746.6,728.4L2746.6,728.4z M3538.6,336.1c-33-33-72.9-49.9-119.8-49.9c-55.7,0-100.5,21.8-134.4,65.4
		c-0.2,0.3-0.6,0.3-0.9,0.1c0,0,0,0-0.1,0l-59.9-55c-0.3-0.2-0.7-0.2-0.9,0c0,0,0,0,0,0l-59.1,66c-0.2,0.3-0.2,0.7,0.1,0.9
		l85.2,77.3c0.1,0.1,0.2,0.3,0.2,0.5v282.1c0,0.3-0.3,0.6-0.6,0.6h-84.7c-0.4,0-0.6,0.3-0.6,0.6v88.6c0,0.3,0.3,0.6,0.6,0.6h305.1
		c0.4,0,0.6-0.3,0.6-0.6v-88.6c0-0.4-0.3-0.6-0.6-0.6h-129.3c-0.4,0-0.6-0.3-0.6-0.6V460.2c0-42,30.4-79.9,72.2-83.8
		c47.3-4.5,87.5,33.1,87.5,79.5v29.3c0,0.4,0.3,0.6,0.6,0.6h88.6c0.4,0,0.6-0.3,0.6-0.6v-29.3C3588.5,409,3571.5,369.1,3538.6,336.1
		L3538.6,336.1z M1824,600.5c-6.2-14.5-15.7-27.2-27-36.5c-10.6-10.6-24.1-18.8-42.3-25.9c-18.6-8.8-35.9-13.8-48.8-17.3
		c-16.8-4.5-35-9.2-55.4-13.1c-39.8-8-69.3-17.9-87.7-29.5c-17.9-11.3-27-26.3-27-44.4c0-21.1,7.6-35.8,24.2-46.5
		c23.3-15.1,52-19.2,79-13.6c26.1,5.4,49.6,20.6,69.4,37.9c4,3.5,45.1,41.3,44.4,42.2l59.1-67c0,0-28.4-28.8-41.9-40.5
		c-32.1-28-70.4-51.6-113.4-58.4c-42.8-6.8-91.4-0.3-130,19.6c-10.6,5.5-20.7,12.1-30,19.7c-34.3,28.1-51.7,65-51.7,109.6
		s14.7,79.9,44.8,101.7c28.3,21.2,69,37.7,121,48.9c45.9,9.8,79.3,19.8,99.4,29.8c19.1,8.2,28.4,21.3,28.4,40.1
		c0,24.2-9.8,42.5-29.1,54.5c-43.5,26.9-104,25.7-147.9,0.5c-19-10.9-34.7-26.7-51.3-40.7c-12.8-10.9-24.8-22.6-37.1-34
		c-0.1-0.1-0.3-0.3-0.5-0.5l-57.5,69.3c-0.2,0.2,28.1,26.2,30.6,28.4c38.9,35.4,80.8,64.8,133.1,75.6c18.7,3.8,37.8,5.7,56.8,5.7
		c56.3,0,103.7-14.8,140.9-44c39-29.8,58.8-71.1,58.8-122.7C1835.4,632.3,1831.4,615.3,1824,600.5L1824,600.5z"/>
</g>
</svg>
